<?xml version="1.0" encoding="utf-8"?>
<!-- Generator: Adobe Illustrator 17.0.0, SVG Export Plug-In . SVG Version: 6.00 Build 0)  -->
<!DOCTYPE svg PUBLIC "-//W3C//DTD SVG 1.1//EN" "http://www.w3.org/Graphics/SVG/1.1/DTD/svg11.dtd">
<svg version="1.1" id="Layer_1" xmlns="http://www.w3.org/2000/svg" xmlns:xlink="http://www.w3.org/1999/xlink" x="0px" y="0px"
	 width="180px" height="180px" viewBox="0 0 180 180" enable-background="new 0 0 180 180" xml:space="preserve">
<path d="M135,80h-35V44.987h-0.001C99.992,39.479,95.518,40,90,40s-9.992-0.521-9.999,4.987H80V80H44.987v0.001
	C39.479,80.008,40,84.482,40,90c0,5.518-0.521,9.992,4.987,9.999V100H80v35l0,0v0c0,5.523,4.477,5,10,5s10,0.523,10-5v0l0,0v-35h35
	c5.523,0,5-4.477,5-10C140,84.477,140.523,80,135,80z"/>
</svg>
