<?xml version="1.0" encoding="utf-8"?>
<!-- Generator: Adobe Illustrator 17.0.0, SVG Export Plug-In . SVG Version: 6.00 Build 0)  -->
<!DOCTYPE svg PUBLIC "-//W3C//DTD SVG 1.1//EN" "http://www.w3.org/Graphics/SVG/1.1/DTD/svg11.dtd">
<svg version="1.1" id="Layer_1" xmlns="http://www.w3.org/2000/svg" xmlns:xlink="http://www.w3.org/1999/xlink" x="0px" y="0px"
	 width="180px" height="180px" viewBox="0 0 180 180" enable-background="new 0 0 180 180" xml:space="preserve">
<path d="M104.147,90.004l31.819-31.819c0,0,0,0,0.001-0.001s0,0,0.001-0.001l0.009-0.009l0,0c3.889-3.9,0.357-6.695-3.544-10.597
	c-3.902-3.902-6.697-7.433-10.597-3.544l0,0l-0.009,0.009c0,0,0,0-0.001,0.001s0,0-0.001,0.001L90.005,75.862L58.166,44.024
	l-0.001,0.001c-3.9-3.889-6.695-0.358-10.597,3.544c-3.902,3.902-7.434,6.697-3.544,10.597l0,0l31.839,31.839l-31.82,31.82
	c-3.905,3.905-0.37,6.701,3.536,10.607c3.905,3.905,6.701,7.441,10.607,3.536l31.82-31.82l31.81,31.81
	c3.905,3.905,6.701,0.37,10.607-3.536c3.905-3.905,7.441-6.701,3.536-10.607L104.147,90.004z"/>
</svg>
