<?xml version="1.0" encoding="utf-8"?>
<!-- Generator: Adobe Illustrator 17.0.0, SVG Export Plug-In . SVG Version: 6.00 Build 0)  -->
<!DOCTYPE svg PUBLIC "-//W3C//DTD SVG 1.1//EN" "http://www.w3.org/Graphics/SVG/1.1/DTD/svg11.dtd">
<svg version="1.1" id="Layer_1" xmlns="http://www.w3.org/2000/svg" xmlns:xlink="http://www.w3.org/1999/xlink" x="0px" y="0px"
	 width="180px" height="180px" viewBox="0 0 180 180" enable-background="new 0 0 180 180" xml:space="preserve">
<path d="M94.95,98.401l-35.132,32.644c-3.905,3.905-0.37,6.701,3.536,10.607c3.905,3.905,6.701,7.441,10.607,3.536l37.39-34.741
	c1.676-0.883,3.353-2.744,5.306-4.698c1.051-1.051,2.069-2.02,2.929-2.954l0.581-0.539c0.008-0.008,0.018-0.015,0.026-0.024
	c0.001-0.001,0.002-0.003,0.004-0.004l0.006-0.005l0,0c1.267-1.27,1.737-2.423,1.673-3.535c0.064-1.112-0.406-2.265-1.673-3.535l0,0
	l-0.008-0.008c-0.001-0.001-0.001-0.001-0.001-0.002c-0.001-0.001-0.002-0.001-0.002-0.002l-0.957-0.938
	c-0.781-0.818-1.666-1.666-2.576-2.577c-1.345-1.345-2.557-2.637-3.729-3.605L73.96,49.813c-3.905-3.905-6.701-0.37-10.607,3.536
	c-3.905,3.905-7.441,6.701-3.536,10.607L94.95,98.401z"/>
</svg>
