<?xml version="1.0" encoding="utf-8"?>
<!-- Generator: Adobe Illustrator 17.0.0, SVG Export Plug-In . SVG Version: 6.00 Build 0)  -->
<!DOCTYPE svg PUBLIC "-//W3C//DTD SVG 1.1//EN" "http://www.w3.org/Graphics/SVG/1.1/DTD/svg11.dtd">
<svg version="1.1" id="Layer_1" xmlns="http://www.w3.org/2000/svg" xmlns:xlink="http://www.w3.org/1999/xlink" x="0px" y="0px"
	 width="180px" height="180px" viewBox="0 0 180 180" enable-background="new 0 0 180 180" xml:space="preserve">
<path d="M90.901,92.55l32.644,35.132c3.905,3.905,6.701,0.37,10.607-3.536c3.905-3.905,7.441-6.701,3.536-10.607l-34.741-37.39
	c-0.883-1.676-2.744-3.353-4.698-5.306c-1.051-1.051-2.02-2.069-2.954-2.929l-0.539-0.581c-0.008-0.008-0.015-0.018-0.024-0.026
	c-0.001-0.001-0.003-0.002-0.004-0.004l-0.005-0.006l0,0c-1.27-1.267-2.423-1.737-3.535-1.673c-1.112-0.064-2.265,0.406-3.535,1.673
	l0,0l-0.008,0.008c-0.001,0.001-0.001,0.001-0.002,0.001c-0.001,0.001-0.001,0.002-0.002,0.002l-0.938,0.957
	c-0.818,0.781-1.666,1.666-2.577,2.576c-1.345,1.345-2.637,2.557-3.605,3.729L42.313,113.54c-3.905,3.905-0.37,6.701,3.536,10.607
	c3.905,3.905,6.701,7.441,10.607,3.536L90.901,92.55z"/>
</svg>
