<?xml version="1.0" standalone="no"?>
<!DOCTYPE svg PUBLIC "-//W3C//DTD SVG 1.1//EN" "http://www.w3.org/Graphics/SVG/1.1/DTD/svg11.dtd" >
<svg xmlns="http://www.w3.org/2000/svg" width="100%" height="100%">
<metadata>
Created by FontXChange 20100429 at Tue Feb 17 11:00:44 2015
 By Sil van Diepen
Copyright (c) 2013 by Hannes von Doehren. All rights reserved.
</metadata>
<defs>
<font id="MikadoBold" horiz-adv-x="500" >
  <font-face 
    font-family="Mikado Bold"
    font-weight="700"
    font-stretch="normal"
    units-per-em="1000"
    panose-1="2 0 0 0 0 0 0 0 0 0"
    ascent="750"
    descent="-250"
    x-height="494"
    cap-height="696"
    bbox="-94.0432 -315.652 1181 975"
    underline-thickness="50"
    underline-position="-50"
    stemh="140"
    stemv="172"
    unicode-range="U+000D-FB02"
  />
<missing-glyph horiz-adv-x="612" 
d="M50 720h512v-720h-512v720zM266 283h48c0 95 136 100 136 197c0 65 -48 119 -138 119c-111 0 -133 -91 -133 -136h47c0 49 24 93 86 93c56 0 87 -34 87 -76c0 -71 -133 -85 -133 -197zM255 194v-71h68v71h-68z" />
    <glyph glyph-name="fi" unicode="fi" horiz-adv-x="637" 
d="M261 493c42 -3 305 2 324 -4c5 -2 -4 -480 -8 -487s-147 -4 -149 -1c-2 2 -7 228 -7 367c-62 -2 -157 -2 -158 -1c-2 1 12 -362 7 -367s-156 -14 -163 -4c-7 12 -4 359 -4 368c-8 1 -79 -1 -83 1s-13 108 -8 114s93 12 93 13s-3 35 -3 74c0 88 67 187 190 187
c107 0 167 -44 186 -60c-4 -26 -44 -109 -52 -109c-12 -2 -36 25 -89 25c-52 0 -77 -26 -77 -76c0 -12 1 -36 1 -40z" />
    <glyph glyph-name="fl" unicode="fl" horiz-adv-x="644" 
d="M355 493c5 -43 5 -89 -4 -126c-49 -1 -87 -1 -88 0c-2 1 12 -362 7 -367s-156 -14 -163 -4c-7 12 -4 359 -4 368c-8 1 -79 -1 -83 1s-13 108 -8 114s93 12 93 13s-3 35 -3 74c0 90 78 187 216 187c69 0 117 -18 147 -37l17 26c50 2 102 1 111 -2c4 -2 -5 -731 -8 -738
c-4 -7 -147 -4 -149 -1c-2 2 -7 408 -7 571c-15 16 -42 38 -85 38c-47 0 -84 -25 -84 -77c0 -12 1 -36 1 -40c21 -1 19 0 94 0z" />
    <glyph glyph-name="f_f" unicode="ff" horiz-adv-x="738" 
d="M597 499c9 -3 122 2 129 -12c0 0 7 -97 -2 -113c-4 -7 -123 -8 -125 -7s12 -362 7 -367s-165 -17 -166 -4c-3 52 -5 232 -5 374c-61 -2 -170 -4 -171 -3c-1 -2 12 -362 7 -367s-159 -14 -166 -4c-7 12 -4 359 -4 368c-8 1 -77 -1 -81 1s-13 108 -8 114s92 12 92 13
s-1 37 -1 65c0 112 89 193 205 193c75 0 141 -33 172 -53c30 35 75 56 132 56c85 0 140 -34 159 -50c-4 -26 -29 -116 -37 -117c-13 -1 -42 23 -78 23c-43 0 -59 -34 -59 -70v-40zM262 499c6 -2 112 0 173 -4v59c0 9 0 18 1 27c-19 11 -48 25 -88 25c-54 0 -86 -23 -86 -71
v-36z" />
    <glyph glyph-name=".notdef" horiz-adv-x="612" 
d="M50 720h512v-720h-512v720zM266 283h48c0 95 136 100 136 197c0 65 -48 119 -138 119c-111 0 -133 -91 -133 -136h47c0 49 24 93 86 93c56 0 87 -34 87 -76c0 -71 -133 -85 -133 -197zM255 194v-71h68v71h-68z" />
    <glyph glyph-name="space" unicode=" " horiz-adv-x="195" 
 />
    <glyph glyph-name="quotedbl" unicode="&#x22;" horiz-adv-x="407" 
d="M59 430c0 1 -25 287 -21 292c1 1 126 9 126 3s-14 -292 -19 -292c-6 0 -86 -4 -86 -3zM263 430c0 1 -25 287 -21 292c1 1 127 9 127 3s-14 -292 -20 -292s-86 -4 -86 -3z" />
    <glyph glyph-name="numbersign" unicode="#" horiz-adv-x="615" 
d="M84 4l34 169s-84 -4 -88 3s3 72 8 73c5 2 94 6 94 7s30 139 32 139c1 0 -99 -4 -104 0c-5 5 7 77 11 77s107 6 109 8c3 3 44 219 44 219c5 5 98 10 98 5s-52 -220 -52 -223c0 -2 134 2 138 3c5 1 43 211 43 216s84 4 89 4c4 0 -52 -220 -46 -218c6 1 92 2 92 -2
c0 -5 -6 -89 -9 -89s-102 2 -102 2c-1 0 -32 -137 -32 -137s100 0 100 -5c0 -6 -2 -81 -4 -81s-103 1 -106 -2c-3 -4 -43 -179 -43 -179s-82 1 -84 3c-3 2 31 168 32 172c1 5 -136 0 -137 0s-35 -169 -36 -170c-3 -1 -81 6 -81 6zM222 261c10 1 124 0 131 2
c6 1 26 135 26 135c0 -1 -130 0 -130 0s-32 -138 -27 -137z" />
    <glyph glyph-name="dollar" unicode="$" horiz-adv-x="589" 
d="M269 -86c-1 2 -2 33 -2 81c-107 3 -200 45 -234 71c-4 20 45 133 56 128c20 -13 94 -56 176 -67c0 50 -1 106 -2 163c-6 1 -12 3 -18 5c-133 36 -206 82 -206 203c0 104 77 196 222 211c0 38 0 72 1 73c6 11 64 7 64 6v-78c94 -4 174 -30 211 -56
c13 -10 -44 -121 -54 -121c-15 4 -82 40 -157 47v-160c137 -36 234 -79 234 -208c0 -97 -72 -198 -234 -214v-80s-54 -13 -57 -4zM403 197c0 27 -20 50 -77 72v-143c47 5 77 26 77 71zM191 508c0 -25 9 -46 71 -68c0 48 0 94 -1 137c-52 -9 -70 -37 -70 -69z" />
    <glyph glyph-name="percent" unicode="%" horiz-adv-x="838" 
d="M173 -3c-2 3 363 713 372 718c7 3 96 -5 95 -17c-1 -13 -348 -715 -367 -720c-23 -6 -95 12 -100 19zM197 341c-100 0 -171 54 -171 179c0 122 78 174 170 174c94 0 162 -62 162 -176c0 -90 -49 -177 -161 -177zM190 447c35 0 65 19 65 68c0 41 -18 80 -59 80
c-50 0 -67 -36 -67 -80c0 -49 31 -68 61 -68zM648 -10c-103 0 -175 55 -175 184c0 126 80 178 174 178c96 0 165 -64 165 -180c0 -93 -50 -182 -164 -182zM640 95c38 0 72 21 72 74c0 44 -20 85 -65 85c-54 0 -74 -39 -74 -85c0 -53 34 -74 67 -74z" />
    <glyph glyph-name="ampersand" unicode="&#x26;" horiz-adv-x="692" 
d="M570 369c20 2 101 -63 110 -81c-45 -58 -103 -124 -103 -124l92 -87c-22 -45 -89 -102 -108 -103l-92 96c-16 -14 -78 -82 -207 -82c-136 0 -215 82 -215 186c0 117 88 173 140 208c-41 39 -85 99 -85 156c0 93 75 176 209 176c110 0 202 -69 202 -176
c0 -108 -128 -170 -128 -170l93 -94s61 57 92 95zM295 448c15 6 72 37 72 78c0 36 -22 60 -65 60c-36 0 -62 -29 -62 -54c0 -27 32 -65 55 -84zM209 195c0 -35 33 -64 70 -64c58 0 97 46 97 46l-101 118c-9 -9 -66 -45 -66 -100z" />
    <glyph glyph-name="quotesingle" unicode="'" horiz-adv-x="203" 
d="M59 430c0 1 -25 287 -21 292c1 1 127 9 127 3s-15 -292 -20 -292c-6 0 -86 -4 -86 -3z" />
    <glyph glyph-name="parenleft" unicode="(" horiz-adv-x="377" 
d="M332 -129c-2 0 -303 47 -303 437c0 387 312 422 313 420c9 -14 15 -94 15 -101c0 -10 -206 -12 -206 -322c0 -305 217 -328 217 -331c-3 -35 -32 -103 -36 -103z" />
    <glyph glyph-name="parenright" unicode=")" horiz-adv-x="376" 
d="M43 730c3 0 303 -47 303 -437c0 -387 -312 -422 -313 -420c-8 14 -23 94 -23 101c0 10 214 12 214 322c0 305 -208 328 -208 331c4 34 23 103 27 103z" />
    <glyph glyph-name="asterisk" unicode="*" horiz-adv-x="417" 
d="M169 414c-5 3 5 116 5 119c0 2 -95 -65 -98 -65c-2 0 -42 65 -42 69c0 5 100 62 100 65s-98 66 -98 71c0 4 43 53 48 55c4 1 87 -65 90 -66s14 100 14 100c-1 0 64 2 66 -3c2 -4 -8 -115 -5 -115c2 0 102 49 105 46c4 -4 32 -82 31 -82s-110 -28 -109 -29
c2 -1 93 -55 93 -55c0 -1 -46 -68 -51 -70c-4 -3 -77 69 -79 70c-2 2 7 -93 7 -100s-72 -12 -77 -10z" />
    <glyph glyph-name="plus" unicode="+" horiz-adv-x="537" 
d="M228 44c-3 11 -7 205 -10 207c-2 2 -176 -7 -181 -2c-5 4 -12 86 -10 86l195 3v196c33 6 62 4 93 -1v-187h193s1 -81 -4 -85c-5 -5 -176 -12 -181 -15s-4 -199 -6 -202c-3 -3 -87 -11 -89 0z" />
    <glyph glyph-name="comma" unicode="," horiz-adv-x="279" 
d="M245 92c0 -85 -72 -225 -108 -287c-3 -4 -75 15 -90 38c-2 3 50 103 71 147c-44 5 -86 42 -86 100c0 69 42 110 118 106c46 -3 95 -28 95 -104z" />
    <glyph glyph-name="hyphen" unicode="-" horiz-adv-x="398" 
d="M346 348c7 -22 -1 -120 -4 -121c-2 0 -261 -8 -280 -4c-15 12 -16 116 -12 118s292 13 296 7z" />
    <glyph glyph-name="period" unicode="." horiz-adv-x="279" 
d="M247 95c0 -69 -43 -110 -121 -108c-46 2 -94 43 -94 105c0 70 42 113 120 108c47 -2 95 -28 95 -105z" />
    <glyph glyph-name="slash" unicode="/" horiz-adv-x="478" 
d="M19 -41c0 3 337 809 339 811c0 0 101 -17 102 -22c0 -5 -330 -826 -344 -823s-98 21 -97 34z" />
    <glyph glyph-name="zero" unicode="0" horiz-adv-x="611" 
d="M308 -17c-181 0 -270 112 -270 360c0 255 103 366 264 366c158 0 272 -105 272 -369c0 -232 -92 -357 -266 -357zM301 135c72 0 100 64 100 196c0 141 -26 220 -99 220c-72 0 -102 -76 -102 -213c0 -136 28 -203 101 -203z" />
    <glyph glyph-name="one" unicode="1" horiz-adv-x="414" 
d="M346 4c-7 -3 -163 -11 -169 -1c-4 33 4 355 6 514c0 0 -126 -66 -139 -64c-8 1 -42 127 -39 131c18 20 226 117 249 124c18 -2 86 -14 97 -26c0 0 0 -638 -5 -678z" />
    <glyph glyph-name="two" unicode="2" horiz-adv-x="520" 
d="M260 157l2 -4l209 5c11 -10 6 -158 -3 -157c-20 -3 -414 -5 -420 -1c-5 3 -23 106 -19 127c131 148 272 258 272 347c0 40 -21 76 -77 76c-63 0 -94 -43 -106 -57c-19 12 -90 97 -88 112s72 107 226 107c132 0 225 -74 225 -207c0 -118 -93 -217 -221 -348z" />
    <glyph glyph-name="three" unicode="3" horiz-adv-x="533" 
d="M392 359v-6c31 -6 107 -50 107 -154c0 -140 -116 -211 -248 -211c-122 0 -203 51 -232 83c-2 13 55 103 81 114c22 -20 67 -47 130 -47c65 0 95 37 95 76c0 46 -36 75 -103 75c-16 0 -72 -1 -88 -1c-12 15 -13 129 0 138c21 0 71 -2 98 -2c33 0 82 14 82 67
c0 48 -39 72 -86 72c-46 0 -85 -24 -104 -44c-15 1 -79 84 -93 102c36 42 103 91 221 91c132 0 228 -74 228 -194c0 -91 -58 -143 -88 -159z" />
    <glyph glyph-name="four" unicode="4" horiz-adv-x="589" 
d="M475 0c-46 -8 -110 -8 -158 5l1 125c-32 -2 -241 -4 -291 -1c-6 26 -17 104 -15 132c31 70 236 386 289 449c39 -1 142 -8 178 -22l-1 -421s70 -1 88 -3c4 -11 0 -130 0 -130c0 -2 -92 -2 -93 -2s2 -130 2 -132zM328 503l-5 1c-20 -28 -131 -199 -150 -240l147 1z" />
    <glyph glyph-name="five" unicode="5" horiz-adv-x="541" 
d="M15 78c4 25 59 127 67 127s71 -66 159 -66c54 0 93 29 93 93c0 48 -27 82 -83 85c-45 1 -80 -20 -98 -29l-85 50c0 77 14 308 30 361c10 3 348 13 382 5c0 0 2 -141 -3 -143c-5 -1 -254 -7 -254 -7l-6 -122c7 5 47 18 94 18c118 0 201 -77 201 -215
c0 -166 -112 -247 -262 -247c-123 0 -221 67 -235 90z" />
    <glyph glyph-name="six" unicode="6" horiz-adv-x="564" 
d="M232 420l3 -4c26 20 61 36 106 36c98 0 205 -64 205 -222c0 -164 -115 -241 -257 -241c-120 0 -255 87 -255 297c0 257 202 404 284 429c16 0 109 -73 118 -103c-97 -35 -189 -116 -204 -192zM204 232c0 -57 28 -105 92 -105c65 0 98 44 98 99c0 54 -28 105 -93 105
c-69 0 -97 -51 -97 -99z" />
    <glyph glyph-name="seven" unicode="7" horiz-adv-x="482" 
d="M57 26l236 518l-262 -3c-9 22 -13 144 -7 154c64 8 430 6 432 5c4 -1 16 -133 16 -133s-234 -579 -235 -579c-2 0 -148 11 -180 38z" />
    <glyph glyph-name="eight" unicode="8" horiz-adv-x="591" 
d="M34 197c0 86 62 145 117 169c-48 23 -98 77 -98 149c0 134 106 196 237 196c138 0 242 -64 242 -198c0 -69 -40 -122 -86 -144c53 -25 112 -86 112 -175c0 -136 -115 -208 -256 -208c-157 0 -268 63 -268 211zM291 435c57 0 84 24 84 67s-24 77 -81 77
c-61 0 -87 -34 -87 -73c0 -41 26 -71 84 -71zM202 211c0 -53 29 -88 94 -88c67 0 98 35 98 82c0 51 -28 91 -95 91c-70 0 -97 -40 -97 -85z" />
    <glyph glyph-name="nine" unicode="9" horiz-adv-x="563" 
d="M331 284l-3 4c-26 -20 -61 -36 -113 -36c-91 0 -197 65 -197 223c0 163 114 240 257 240c119 0 254 -87 254 -297c0 -257 -201 -404 -283 -429c-17 0 -109 73 -118 103c96 35 187 117 203 192zM359 472c0 57 -28 105 -91 105c-65 0 -98 -44 -98 -98
c0 -55 28 -106 92 -106c69 0 97 51 97 99z" />
    <glyph glyph-name="colon" unicode=":" horiz-adv-x="291" 
d="M248 89c0 -65 -41 -104 -115 -102c-43 2 -89 40 -89 99c0 67 40 107 114 103c44 -2 90 -27 90 -100zM247 390c0 -66 -41 -105 -116 -103c-44 1 -90 41 -90 100c0 67 40 109 115 104c45 -2 91 -27 91 -101z" />
    <glyph glyph-name="semicolon" unicode=";" horiz-adv-x="295" 
d="M251 79c0 -81 -69 -215 -103 -274c-3 -4 -72 14 -86 36c-2 3 48 98 68 140c-42 5 -82 41 -82 96c0 66 40 105 112 101c44 -3 91 -27 91 -99zM248 390c0 -66 -41 -105 -116 -103c-44 1 -90 41 -90 100c0 67 40 109 115 104c45 -2 91 -27 91 -101z" />
    <glyph glyph-name="less" unicode="&#x3c;" horiz-adv-x="480" 
d="M36 255c-7 0 -9 77 -9 83c0 5 381 161 387 156s32 -74 29 -79s-270 -120 -272 -122s255 -128 259 -128c5 0 -25 -81 -29 -86s-358 176 -365 176z" />
    <glyph glyph-name="equal" unicode="=" horiz-adv-x="516" 
d="M58 347c-6 1 -7 85 -5 82c0 0 398 2 408 -15c11 -16 -7 -74 -9 -75s-388 8 -394 8zM76 144c-4 4 -18 74 -9 80c2 2 382 16 382 11c0 -4 -9 -100 -10 -100s-358 4 -363 9z" />
    <glyph glyph-name="greater" unicode="&#x3e;" horiz-adv-x="488" 
d="M76 46c-4 5 -31 85 -27 85s290 151 288 153s-295 124 -299 129c-3 6 23 73 29 78s390 -148 390 -154c0 -5 7 -83 -1 -83s-376 -213 -380 -208z" />
    <glyph glyph-name="question" unicode="?" horiz-adv-x="461" 
d="M129 268c-10 10 -10 162 -10 162c90 0 152 24 152 77c0 27 -22 65 -83 65c-63 0 -110 -29 -110 -29s-54 97 -50 121c24 26 87 53 186 53c118 0 219 -67 219 -193c0 -120 -83 -183 -182 -196l-5 -58c-32 -5 -82 -6 -117 -2zM288 103c0 -64 -21 -109 -106 -109
c-61 0 -105 43 -105 114c0 54 44 95 109 95c60 -1 102 -34 102 -100z" />
    <glyph glyph-name="at" unicode="@" horiz-adv-x="1012" 
d="M497 349c-64 0 -89 -66 -89 -129c0 -60 30 -85 64 -85c42 0 85 42 85 121c0 54 -25 93 -60 93zM580 91h-7c-29 -37 -67 -69 -130 -69c-102 0 -159 83 -159 192c0 170 115 247 199 247c63 0 92 -40 105 -68c3 21 10 51 12 59c32 0 98 -10 110 -26l-29 -175
c-4 -30 -8 -68 -8 -85c0 -41 15 -57 42 -57c67 0 139 80 139 245c0 102 -65 262 -299 262c-291 0 -401 -241 -401 -398c0 -216 133 -344 312 -344c65 0 138 19 182 42c17 -10 38 -63 38 -82c0 -24 -99 -72 -244 -72c-232 0 -412 199 -412 451c0 243 169 520 533 520
c234 0 410 -146 410 -380c0 -245 -143 -357 -263 -357c-71 0 -117 45 -130 95z" />
    <glyph glyph-name="A" unicode="A" horiz-adv-x="710" 
d="M513 -9c-8 18 -41 113 -53 150c-24 -1 -177 0 -213 0c-12 -39 -41 -139 -47 -148c-5 -4 -174 8 -186 17c19 72 213 682 222 688s204 12 229 7c3 -1 212 -583 233 -696c-21 -13 -182 -20 -185 -18zM360 542c-2 0 -4 -1 -6 -1c-14 -50 -57 -198 -80 -263c34 1 125 2 166 2
c-25 69 -67 214 -80 262z" />
    <glyph glyph-name="B" unicode="B" horiz-adv-x="638" 
d="M245 289c-2 -19 -2 -151 -2 -151c23 -3 44 -4 68 -4c80 0 114 33 114 78c0 52 -43 80 -120 80c-24 0 -42 -2 -60 -3zM237 561c-1 -21 -1 -142 -1 -142c11 -1 23 -1 43 -1c73 0 110 26 110 73c0 55 -62 73 -106 73c-20 0 -36 -2 -46 -3zM484 366v-6
c63 -13 129 -71 129 -172c0 -135 -104 -194 -280 -194c-95 0 -256 8 -261 12s-11 674 -8 682s186 12 201 12c160 0 301 -44 301 -190c0 -81 -34 -119 -82 -144z" />
    <glyph glyph-name="C" unicode="C" horiz-adv-x="649" 
d="M220 348c0 -143 88 -200 173 -200c81 0 136 43 158 59c23 -16 67 -97 83 -131c-43 -49 -144 -97 -259 -97c-234 0 -343 167 -343 376c0 201 142 356 369 356c115 0 198 -36 229 -66c0 -20 -42 -128 -67 -149c-36 21 -97 48 -160 48c-103 0 -183 -82 -183 -196z" />
    <glyph glyph-name="D" unicode="D" horiz-adv-x="701" 
d="M66 3c-5 60 -1 619 7 693c23 6 140 8 219 8c234 0 377 -152 377 -355c0 -209 -112 -360 -386 -360c-85 0 -195 7 -217 14zM484 340c0 119 -81 198 -190 198c-23 0 -40 -1 -53 -2c1 -115 -2 -265 -4 -380c18 -3 39 -4 64 -4c78 0 183 25 183 188z" />
    <glyph glyph-name="E" unicode="E" horiz-adv-x="582" 
d="M534 147c8 -33 6 -133 1 -150c8 -5 -390 -7 -470 1c-5 79 0 565 6 700c93 6 464 8 475 3c7 -18 7 -119 2 -152c-28 -3 -228 -4 -310 -1l2 -122c88 1 227 -1 233 -6c11 -9 3 -140 3 -144c0 -5 -141 -5 -236 -2c0 -45 0 -93 -1 -128c90 2 267 3 295 1z" />
    <glyph glyph-name="F" unicode="F" horiz-adv-x="573" 
d="M249 3c-5 -9 -169 -13 -176 -6c-3 33 -13 624 -8 701c42 6 472 8 482 1c8 -17 7 -120 2 -152c-28 -4 -228 -2 -309 1l4 -176c87 1 239 -2 245 -7c11 -9 4 -131 4 -135c0 -5 -151 -5 -246 -3c2 -84 3 -193 2 -224z" />
    <glyph glyph-name="G" unicode="G" horiz-adv-x="688" 
d="M218 348c0 -143 75 -209 175 -209c34 0 68 10 90 18c-1 25 -2 95 -2 95s-96 -3 -116 -4c-5 6 -7 118 -1 128c31 7 274 16 281 8c7 -11 4 -304 0 -327c-44 -35 -155 -77 -270 -77c-234 0 -343 166 -343 375c0 201 135 356 361 356c116 0 198 -39 230 -68
c0 -20 -57 -124 -75 -143c-37 21 -89 43 -152 43c-103 0 -178 -81 -178 -195z" />
    <glyph glyph-name="H" unicode="H" horiz-adv-x="755" 
d="M682 -1c-5 -21 -178 -12 -178 -4c-1 37 -2 144 -3 263c-68 -1 -185 -2 -247 -1c0 -107 -1 -209 -3 -261c-33 -9 -179 -12 -180 -2c-5 57 -12 637 -4 705c2 21 176 11 179 4c2 -33 5 -150 6 -283c62 1 182 2 249 2c1 121 2 232 5 269c34 9 172 8 178 2
c7 -6 8 -626 -2 -694z" />
    <glyph glyph-name="I" unicode="I" horiz-adv-x="317" 
d="M70 694c32 12 172 8 178 2c7 -42 6 -632 -1 -696c-6 -18 -177 -11 -178 -4c-4 71 -7 602 1 698z" />
    <glyph glyph-name="J" unicode="J" horiz-adv-x="482" 
d="M3 49c-2 12 46 128 63 143c24 -16 53 -38 98 -38c41 0 79 23 79 97c0 134 -7 342 -7 443c35 9 172 15 178 9c7 -36 9 -303 9 -466c0 -165 -87 -249 -228 -249c-98 0 -161 30 -192 61z" />
    <glyph glyph-name="K" unicode="K" horiz-adv-x="658" 
d="M68 696c12 13 173 7 179 4s-5 -299 -5 -299s244 302 252 302c9 0 148 -41 149 -53c1 -11 -194 -262 -194 -262c49 -68 196 -335 201 -354c-1 -8 -134 -57 -166 -49c-14 12 -141 247 -162 282l-75 -84l1 -186c-18 -5 -165 -9 -172 -3s-22 687 -8 702z" />
    <glyph glyph-name="L" unicode="L" horiz-adv-x="539" 
d="M518 156c8 -33 9 -138 4 -156c-1 -5 -421 -5 -455 1c-5 77 -3 661 4 697c5 6 173 11 175 5c2 -33 -1 -484 -4 -548c87 3 246 5 276 1z" />
    <glyph glyph-name="M" unicode="M" horiz-adv-x="879" 
d="M439 237h5c38 160 116 445 134 461c10 10 152 11 172 6c7 -4 105 -653 105 -690c-12 -19 -166 -32 -168 -24c-5 25 -39 307 -53 436h-4c-29 -116 -95 -359 -119 -428c-16 -6 -138 -6 -144 2c-12 27 -88 325 -112 428h-4c-16 -113 -48 -376 -62 -434
c-32 -3 -166 12 -167 23c4 52 105 639 118 680c6 17 144 14 166 9c18 -28 101 -325 133 -469z" />
    <glyph glyph-name="N" unicode="N" horiz-adv-x="739" 
d="M664 7c-4 -18 -153 -21 -165 -13c-19 24 -163 259 -260 409c0 -144 6 -324 3 -399c-34 -9 -173 -10 -174 0c-5 57 -8 620 0 688c4 18 160 18 165 11c11 -17 181 -278 265 -432c2 161 -4 367 0 419c34 9 167 7 173 1s3 -616 -7 -684z" />
    <glyph glyph-name="O" unicode="O" horiz-adv-x="753" 
d="M374 713c210 0 347 -141 347 -374c0 -177 -105 -358 -344 -358c-213 0 -346 151 -346 374c0 181 114 358 343 358zM530 352c0 134 -64 198 -153 198c-103 0 -161 -81 -161 -205c0 -112 61 -200 157 -200c107 0 157 82 157 207z" />
    <glyph glyph-name="P" unicode="P" horiz-adv-x="629" 
d="M255 358c18 -1 48 -2 70 -2c63 0 111 26 111 88c0 77 -60 95 -130 95c-14 0 -36 -1 -51 -3c1 -29 0 -141 0 -178zM255 0c-4 -7 -185 -9 -186 -3c-5 47 -7 626 2 695c51 6 165 11 243 11c192 0 296 -91 296 -248c0 -180 -106 -254 -296 -254c-17 0 -42 1 -54 1
c-1 -69 1 -184 -5 -202z" />
    <glyph glyph-name="Q" unicode="Q" horiz-adv-x="754" 
d="M376 713c211 0 346 -141 346 -374c0 -126 -54 -253 -169 -315c34 -51 97 -91 143 -114c-15 -40 -94 -114 -116 -125c-84 29 -168 119 -208 198c-29 0 -58 4 -86 10c-159 34 -254 174 -254 362c0 179 109 358 344 358zM536 353c0 117 -61 199 -155 199
c-105 0 -159 -81 -159 -205c0 -130 64 -200 154 -200c106 0 160 82 160 206z" />
    <glyph glyph-name="R" unicode="R" horiz-adv-x="658" 
d="M237 0c-10 -4 -170 -9 -171 -3c-5 47 -1 626 8 695c51 6 159 11 237 11c192 0 302 -76 302 -243c0 -104 -49 -165 -127 -197c76 -92 154 -214 151 -218c-11 -15 -126 -63 -156 -62c-3 0 -90 141 -173 250c-4 -1 -9 -1 -13 -1c-17 0 -41 1 -53 2c-1 -69 -1 -205 -5 -234z
M252 373c19 -2 49 -3 72 -3c65 0 110 26 110 86c0 56 -29 92 -116 92c-19 0 -46 -1 -66 -3c1 -27 0 -137 0 -172z" />
    <glyph glyph-name="S" unicode="S" horiz-adv-x="581" 
d="M277 -5c-112 0 -210 44 -246 71c-4 20 45 148 56 143c23 -14 98 -68 183 -68c59 0 97 18 97 61c0 32 -24 56 -127 77c-131 27 -204 88 -204 219c0 114 93 213 262 213c106 0 195 -28 234 -59c13 -10 -47 -140 -57 -139c-15 7 -88 44 -173 44c-60 0 -88 -24 -88 -57
c0 -31 17 -47 114 -69c129 -30 229 -82 229 -219c0 -106 -85 -217 -280 -217z" />
    <glyph glyph-name="T" unicode="T" horiz-adv-x="570" 
d="M22 545c-9 30 -9 141 -4 147c13 7 481 18 528 11c14 -4 13 -152 6 -153c-21 -3 -93 -5 -177 -8c1 -193 3 -498 -1 -538c-6 -7 -174 -13 -175 -4c-4 55 -5 364 -3 544c-65 -1 -148 -2 -174 1z" />
    <glyph glyph-name="U" unicode="U" horiz-adv-x="716" 
d="M71 690c3 17 174 10 177 3c5 -18 -9 -284 -9 -386c0 -109 38 -150 115 -150c89 0 116 64 116 146c0 127 -7 349 -7 398c13 9 186 16 188 6c4 -18 8 -294 8 -415c0 -164 -61 -311 -302 -311c-188 0 -301 89 -301 305c0 97 6 350 15 404z" />
    <glyph glyph-name="V" unicode="V" horiz-adv-x="666" 
d="M328 211c2 0 4 1 6 1c17 81 109 418 133 493c5 4 181 -2 185 -17c-18 -84 -201 -682 -210 -688c-10 -6 -185 -12 -211 -7c-3 1 -199 584 -219 696c7 17 179 25 184 18c8 -17 117 -414 132 -496z" />
    <glyph glyph-name="W" unicode="W" horiz-adv-x="956" 
d="M482 434h-6c-40 -160 -108 -412 -122 -434c-9 -12 -166 -9 -186 -4c-9 4 -142 650 -142 688c12 19 167 31 169 24c6 -25 72 -343 85 -462h4c26 116 98 385 123 454c18 5 145 6 152 -2c12 -27 92 -351 113 -454h4c13 102 76 401 91 459c33 4 169 -11 170 -23
c-5 -51 -138 -637 -151 -678c-7 -16 -160 -14 -181 -8c-16 35 -90 296 -123 440z" />
    <glyph glyph-name="X" unicode="X" horiz-adv-x="626" 
d="M313 226h-6c-41 -82 -122 -232 -127 -232c-34 -6 -170 33 -172 41c-2 7 134 256 175 323c-6 9 -160 286 -159 299c0 12 150 56 162 52c5 -3 87 -150 122 -232h6c43 80 125 231 132 232c11 1 159 -39 160 -51c1 -13 -156 -290 -163 -300c38 -63 177 -309 176 -316
c-3 -8 -143 -55 -176 -50c-6 2 -88 152 -130 234z" />
    <glyph glyph-name="Y" unicode="Y" horiz-adv-x="629" 
d="M629 658c0 -13 -196 -341 -225 -390c1 -105 2 -232 -3 -268c-6 -18 -181 -9 -181 -1c-4 46 0 162 2 271c-31 55 -212 375 -211 387s151 56 163 52c5 -3 104 -189 139 -270h6c43 79 143 269 150 270c11 1 159 -39 160 -51z" />
    <glyph glyph-name="Z" unicode="Z" horiz-adv-x="573" 
d="M265 157v-3c29 1 257 1 271 -3c5 -2 3 -146 -3 -150c-8 -5 -488 -7 -490 -2c-10 27 -10 143 -9 146c2 4 246 359 275 397l1 4c-24 0 -260 -1 -266 0c-3 1 -15 151 -4 154c13 4 480 5 485 4c3 -2 17 -141 14 -152c-1 -3 -247 -363 -274 -395z" />
    <glyph glyph-name="bracketleft" unicode="[" horiz-adv-x="368" 
d="M192 -40c0 -1 154 -3 154 -3s1 -107 -2 -108c-4 -2 -280 6 -281 6s-6 857 -6 857l290 4c1 0 3 -102 1 -104c-3 -3 -144 -7 -157 -6c-6 -5 1 -645 1 -646z" />
    <glyph glyph-name="backslash" unicode="\" horiz-adv-x="435" 
d="M325 -27c-16 -4 -306 728 -306 733s95 40 95 40c2 -2 302 -719 302 -722s-75 -47 -91 -51z" />
    <glyph glyph-name="bracketright" unicode="]" horiz-adv-x="363" 
d="M22 -34c0 0 154 -6 154 -5c0 0 10 646 3 646s-155 1 -158 4c-3 2 0 103 1 103l293 -3s-24 -855 -25 -855s-261 0 -265 2c-4 1 -3 108 -3 108z" />
    <glyph glyph-name="asciicircum" unicode="^" horiz-adv-x="470" 
d="M191 722c6 6 96 9 102 8c7 0 154 -268 148 -274c-7 -6 -75 -31 -82 -28c-6 3 -115 198 -118 200c-4 2 -123 -202 -124 -206c-3 -4 -83 28 -88 32c-6 4 150 258 162 268z" />
    <glyph glyph-name="underscore" unicode="_" horiz-adv-x="423" 
d="M58 -35c0 0 315 -4 315 -6c0 -3 0 -87 -1 -89c-1 -3 -313 -6 -319 -4c-6 1 2 97 5 99z" />
    <glyph glyph-name="grave" unicode="`" horiz-adv-x="400" 
d="M61 638c-3 1 43 89 53 90c5 2 224 -116 224 -116s-29 -70 -46 -76c-4 -1 -228 101 -231 102z" />
    <glyph glyph-name="a" unicode="a" 
d="M33 392c1 17 67 111 201 111c124 0 220 -73 220 -219c0 -107 -5 -273 -8 -279s-129 0 -129 0l-9 43c-7 -7 -49 -55 -128 -55c-109 0 -155 64 -155 151c0 90 79 147 179 147c46 0 74 -13 93 -27c1 43 3 102 -87 102c-62 0 -91 -44 -100 -45c-9 0 -78 60 -77 71zM159 147
c0 -33 28 -56 65 -56c44 0 66 26 66 56c0 35 -29 57 -66 57c-39 0 -65 -25 -65 -57z" />
    <glyph glyph-name="b" unicode="b" horiz-adv-x="594" 
d="M352 -10c-80 0 -141 51 -149 62c0 -6 2 -52 0 -59c-15 -5 -131 -7 -134 -3c-4 12 -43 730 -18 756c24 24 162 5 168 0c5 -5 8 -282 7 -304c9 14 62 57 138 57c105 -1 202 -81 202 -241c0 -184 -102 -268 -214 -268zM414 247c0 64 -44 108 -102 108
c-61 0 -98 -40 -98 -107c0 -61 36 -108 97 -108c63 0 103 38 103 107z" />
    <glyph glyph-name="c" unicode="c" horiz-adv-x="480" 
d="M184 240c0 -96 67 -113 110 -113c46 0 94 30 106 36c10 3 47 -69 60 -97c-26 -43 -95 -79 -172 -79c-188 0 -262 135 -262 261s97 250 259 250c106 0 171 -43 174 -53c3 -12 -25 -126 -43 -132c-7 -1 -59 44 -117 44c-71 0 -115 -40 -115 -117z" />
    <glyph glyph-name="d" unicode="d" horiz-adv-x="608" 
d="M248 -3c-113 0 -220 88 -220 254c0 156 115 242 232 243c66 0 121 -40 129 -53c0 33 -2 301 7 307c9 7 146 13 166 3c2 -1 -10 -741 -13 -752c-3 -3 -112 -13 -148 1c0 7 -2 48 -3 55c-8 -12 -66 -58 -150 -58zM200 245c0 -68 43 -104 98 -104c67 0 99 45 99 105
c0 66 -45 104 -99 104c-63 0 -98 -43 -98 -105z" />
    <glyph glyph-name="e" unicode="e" horiz-adv-x="504" 
d="M182 204c0 -53 38 -86 107 -86c54 0 91 19 117 35c10 -10 51 -93 52 -108c-27 -25 -96 -57 -177 -57c-181 0 -254 121 -254 249c0 135 84 261 241 261c133 0 214 -100 214 -212c0 -31 -3 -57 -9 -77c-50 -7 -231 -7 -291 -5zM181 296l157 3c2 49 -23 87 -71 87
c-52 0 -86 -39 -86 -90z" />
    <glyph glyph-name="f" unicode="f" horiz-adv-x="403" 
d="M261 499c8 -3 123 2 130 -12c0 0 7 -97 -2 -113c-4 -7 -124 -8 -126 -7s12 -362 7 -367s-156 -14 -163 -4c-7 12 -4 359 -4 368c-8 1 -79 -1 -83 1s-13 108 -8 114s93 12 93 13s-3 52 -3 95c0 84 62 166 175 166c85 0 140 -34 159 -50c-4 -26 -29 -116 -37 -117
c-13 -1 -42 23 -78 23c-43 0 -60 -34 -61 -70c0 -15 1 -37 1 -40z" />
    <glyph glyph-name="g" unicode="g" horiz-adv-x="606" 
d="M408 490c16 12 137 4 140 1c2 -11 8 -329 9 -390c3 -264 -130 -324 -255 -324c-119 0 -202 50 -214 72c9 32 34 85 50 107c5 5 58 -44 143 -44c86 0 117 63 115 150c-8 -14 -48 -59 -137 -59c-107 0 -231 81 -231 236c0 156 113 254 234 254c63 0 113 -25 144 -57
c0 6 2 48 2 54zM201 239c0 -63 34 -105 97 -105c54 0 100 38 100 104c0 60 -32 105 -100 105c-54 0 -97 -36 -97 -104z" />
    <glyph glyph-name="h" unicode="h" horiz-adv-x="588" 
d="M55 749c6 6 154 19 158 -3c3 -25 -2 -281 -5 -306c22 30 61 60 131 60c136 0 204 -86 204 -215c0 -67 -8 -263 -14 -282c-5 -9 -153 -8 -155 -6c-2 11 1 235 1 271c0 42 -23 91 -75 91c-55 0 -85 -43 -85 -82c0 -34 -1 -277 -4 -280c-3 -4 -152 -2 -155 4s-6 693 -1 748z
" />
    <glyph glyph-name="i" unicode="i" horiz-adv-x="266" 
d="M53 493c6 10 158 4 162 0c3 -4 -5 -484 -8 -491c-4 -7 -147 -4 -149 -1s-11 481 -5 492zM47 652c0 54 16 93 88 93c54 0 92 -37 92 -99c0 -44 -38 -78 -92 -78c-52 0 -88 29 -88 84z" />
    <glyph glyph-name="j" unicode="j" horiz-adv-x="268" 
d="M58 494c71 10 159 -4 163 -8c2 -3 -10 -296 -10 -485c0 -142 -70 -198 -144 -224c-7 -2 -77 46 -87 102c14 3 75 37 74 133c-1 186 -5 481 4 482zM233 660c0 -53 -15 -92 -88 -92c-54 0 -91 36 -91 98c0 44 37 79 91 79c53 0 88 -30 88 -85z" />
    <glyph glyph-name="k" unicode="k" horiz-adv-x="550" 
d="M52 749c13 12 151 7 158 3c6 -4 -6 -426 -6 -426s198 186 208 186c9 0 116 -63 117 -77s-153 -147 -153 -147s172 -254 170 -262c-2 -7 -117 -56 -151 -51c-8 1 -134 230 -142 229s-42 -35 -42 -35l5 -178s-145 -1 -152 5c-8 6 -25 740 -12 753z" />
    <glyph glyph-name="l" unicode="l" horiz-adv-x="262" 
d="M65 748c14 13 145 11 148 4c7 -12 -7 -683 -12 -760c0 0 -135 -1 -143 4c-8 6 -8 739 7 752z" />
    <glyph glyph-name="m" unicode="m" horiz-adv-x="856" 
d="M52 487c9 15 149 6 158 -3c-1 -21 -2 -48 -3 -54c22 33 60 68 141 68c56 0 101 -28 128 -72c34 60 110 72 151 72c126 0 182 -83 182 -211c0 -68 -4 -241 -7 -288c-1 -9 -153 -9 -156 -6c-3 2 2 231 2 278c0 49 -13 86 -66 86c-55 0 -71 -54 -71 -85
c0 -72 -3 -220 -6 -270c-1 -9 -152 -3 -154 -1c-4 2 1 236 1 270c0 49 -14 86 -66 86s-74 -44 -74 -76c0 -29 -2 -282 -5 -286s-149 -2 -152 4c-2 4 -6 276 -3 488z" />
    <glyph glyph-name="n" unicode="n" horiz-adv-x="582" 
d="M52 481c9 13 149 19 158 10c-1 -21 -2 -54 -3 -60c22 33 71 70 152 70c109 0 177 -87 177 -216c0 -67 -4 -236 -8 -285c-1 -10 -151 -8 -154 -6c-4 2 1 238 1 274c0 54 -24 92 -76 92c-55 0 -88 -43 -88 -82c0 -34 -1 -274 -4 -278s-149 -2 -152 4c-2 4 -6 265 -3 477z
" />
    <glyph glyph-name="o" unicode="o" horiz-adv-x="559" 
d="M379 238c0 80 -46 105 -93 107c-71 2 -106 -43 -106 -108c0 -70 45 -108 92 -109c70 -2 107 40 107 110zM278 497c142 0 255 -96 255 -261c0 -129 -93 -245 -253 -248c-142 0 -254 98 -254 261c0 125 96 248 252 248z" />
    <glyph glyph-name="p" unicode="p" horiz-adv-x="608" 
d="M361 498c118 0 219 -88 219 -254c0 -160 -108 -249 -231 -250c-66 0 -121 31 -129 44c0 -33 4 -245 -5 -251c-9 -7 -146 -13 -165 -3c-3 1 3 695 12 717c1 3 150 -5 150 -5c0 -6 -1 -48 -1 -54c7 12 60 56 150 56zM411 242c0 68 -41 104 -95 104
c-68 0 -100 -43 -100 -103c0 -66 46 -106 96 -106c63 0 99 43 99 105z" />
    <glyph glyph-name="q" unicode="q" horiz-adv-x="597" 
d="M242 501c87 0 148 -52 156 -61c1 7 6 46 8 53c3 1 130 7 134 3c5 -10 4 -669 -1 -712c-4 -20 -157 -5 -162 1c-5 4 -3 222 -3 255c-8 -15 -63 -47 -142 -47c-105 0 -204 81 -204 240c0 184 102 268 214 268zM187 243c0 -64 45 -108 103 -108c61 0 97 42 97 109
c0 61 -35 105 -96 105c-63 0 -104 -37 -104 -106z" />
    <glyph glyph-name="r" unicode="r" horiz-adv-x="401" 
d="M386 491c16 -9 -4 -147 -21 -167c-16 4 -49 11 -70 10c-46 -1 -70 -33 -76 -77c-2 -22 6 -255 2 -258c-2 -4 -164 -6 -167 0c-3 4 -3 462 1 481c9 16 147 21 156 12c1 -21 0 -63 0 -69c37 65 108 78 175 68z" />
    <glyph glyph-name="s" unicode="s" horiz-adv-x="455" 
d="M233 -17c-100 0 -191 40 -205 55c-8 10 38 119 46 115c16 -8 78 -53 142 -53c40 0 60 14 60 36s-16 34 -81 46c-112 19 -164 66 -164 150c0 107 73 169 196 169c92 0 173 -31 186 -44c9 -9 -37 -114 -44 -115c-5 0 -69 39 -127 39c-39 0 -56 -19 -56 -39
c0 -22 17 -32 75 -40c119 -17 172 -58 172 -151c0 -88 -60 -168 -200 -168z" />
    <glyph glyph-name="t" unicode="t" horiz-adv-x="406" 
d="M248 360c0 -5 -3 -119 -4 -177c0 -32 17 -53 49 -54c35 0 60 24 73 22c12 -3 34 -94 35 -115c0 0 -42 -50 -146 -49c-115 0 -171 62 -171 160c1 47 7 219 7 220s-64 0 -69 5s-6 121 0 122c4 1 71 -2 74 1c3 4 -3 108 6 117s147 18 152 13s-4 -134 -2 -134
c2 1 112 6 122 -7c10 -14 2 -115 2 -115c-7 -12 -128 -1 -128 -9z" />
    <glyph glyph-name="u" unicode="u" horiz-adv-x="576" 
d="M519 2c-9 -13 -139 -9 -149 0c1 21 0 50 1 57c-22 -32 -73 -74 -148 -74c-121 0 -179 74 -179 214c0 72 10 243 13 290c2 10 152 8 155 5c2 -11 -8 -239 -8 -278c0 -56 24 -90 76 -90c55 0 84 42 85 86c0 29 4 275 8 279c3 4 148 2 152 -4c1 -4 -2 -272 -6 -485z" />
    <glyph glyph-name="v" unicode="v" horiz-adv-x="545" 
d="M17 474c0 8 132 30 145 30c9 0 101 -308 106 -324c6 16 121 324 127 325c5 1 152 -30 151 -36c-15 -63 -201 -471 -206 -476c-12 -11 -159 2 -160 4s-164 448 -163 477z" />
    <glyph glyph-name="w" unicode="w" horiz-adv-x="794" 
d="M19 475c0 7 132 29 145 29c12 0 84 -329 84 -329c25 78 77 197 88 235c-5 17 -23 65 -23 76c10 10 126 22 138 15c10 -6 87 -308 92 -324c6 16 96 328 101 329c6 1 146 -29 145 -35c-14 -63 -158 -473 -163 -478c-13 -11 -157 2 -158 5c-1 1 -36 105 -68 234
c-43 -126 -90 -236 -92 -239c-13 -11 -157 2 -158 4s-132 447 -131 478z" />
    <glyph glyph-name="x" unicode="x" horiz-adv-x="525" 
d="M7 16c7 23 87 148 144 230c-41 79 -134 221 -133 236c0 6 137 22 149 22c10 0 87 -149 94 -160c5 8 93 161 99 162c8 2 156 -20 155 -25c-8 -26 -84 -151 -136 -228c41 -81 127 -229 127 -242c-1 -7 -138 -24 -150 -24c-10 1 -83 146 -95 167c-14 -22 -93 -164 -98 -164
c-7 -1 -156 20 -156 26z" />
    <glyph glyph-name="y" unicode="y" horiz-adv-x="533" 
d="M532 470c-18 -68 -290 -679 -304 -695c-39 -2 -142 48 -151 59c1 6 88 187 99 221c-36 71 -164 393 -163 419c0 8 138 30 150 30c13 0 104 -283 104 -283s109 283 114 284c6 1 151 -29 151 -35z" />
    <glyph glyph-name="z" unicode="z" horiz-adv-x="449" 
d="M40 491c10 2 368 7 371 6c2 -1 11 -102 8 -111c-2 -4 -197 -258 -200 -264c10 2 184 10 194 1c3 -3 2 -123 -3 -127s-364 0 -367 1c-3 2 -14 86 -8 112c0 3 197 256 197 256s-183 -12 -197 1c-9 8 -4 122 5 125z" />
    <glyph glyph-name="braceleft" unicode="{" horiz-adv-x="324" 
d="M149 283v-3c31 -10 83 -41 83 -96c0 -64 -39 -119 -39 -173c0 -51 29 -66 99 -66c4 -17 3 -100 1 -100c-138 0 -217 37 -217 144c0 58 36 103 36 175c0 51 -56 58 -92 58c-10 0 -11 114 -5 114c78 0 112 8 112 57c0 26 -31 114 -31 166c0 119 86 166 202 166
c11 -26 8 -102 0 -102c-54 0 -100 -16 -100 -79c0 -44 34 -116 34 -164c0 -53 -51 -91 -83 -97z" />
    <glyph glyph-name="bar" unicode="|" horiz-adv-x="192" 
d="M66 -221c-2 10 -13 952 -9 958c8 12 78 7 78 6v-959s-66 -15 -69 -5z" />
    <glyph glyph-name="braceright" unicode="}" horiz-adv-x="324" 
d="M175 287v3c-30 10 -83 42 -83 96c0 64 39 119 39 172c0 52 -29 67 -99 67c-4 17 -3 100 -1 100c139 0 218 -38 218 -144c0 -58 -37 -102 -37 -175c0 -51 56 -58 93 -58c9 0 10 -114 4 -114c-78 0 -112 -7 -112 -57c0 -26 32 -114 32 -166c0 -119 -86 -166 -202 -166
c-10 26 -7 102 0 102c55 0 99 16 99 78c0 45 -34 117 -34 165c0 53 51 91 83 97z" />
    <glyph glyph-name="asciitilde" unicode="~" horiz-adv-x="557" 
d="M85 268c-4 -4 -50 68 -50 73s65 77 147 77c74 0 130 -86 192 -86c46 0 81 47 91 59c12 -6 60 -61 60 -63c0 -3 -68 -100 -159 -100c-92 0 -140 85 -196 85c-45 0 -81 -42 -85 -45z" />
    <glyph glyph-name="uni00A0" unicode="&#xa0;" horiz-adv-x="195" 
 />
    <glyph glyph-name="Agrave" unicode="&#xc0;" horiz-adv-x="710" 
d="M513 -9c-8 18 -41 113 -53 150c-24 -1 -177 0 -213 0c-12 -39 -41 -139 -47 -148c-5 -4 -174 8 -186 17c19 72 213 682 222 688s204 12 229 7c3 -1 212 -583 233 -696c-21 -13 -182 -20 -185 -18zM360 542c-2 0 -4 -1 -6 -1c-14 -50 -57 -198 -80 -263c34 1 125 2 166 2
c-25 69 -67 214 -80 262zM186 846c-3 1 43 89 53 90c5 2 224 -116 224 -116s-29 -70 -46 -76c-4 -1 -228 101 -231 102z" />
    <glyph glyph-name="Aacute" unicode="&#xc1;" horiz-adv-x="710" 
d="M513 -9c-8 18 -41 113 -53 150c-24 -1 -177 0 -213 0c-12 -39 -41 -139 -47 -148c-5 -4 -174 8 -186 17c19 72 213 682 222 688s204 12 229 7c3 -1 212 -583 233 -696c-21 -13 -182 -20 -185 -18zM360 542c-2 0 -4 -1 -6 -1c-14 -50 -57 -198 -80 -263c34 1 125 2 166 2
c-25 69 -67 214 -80 262zM517 846c-3 -1 -227 -103 -231 -102c-17 6 -45 76 -45 76s219 118 224 116c10 -1 55 -89 52 -90z" />
    <glyph glyph-name="Acircumflex" unicode="&#xc2;" horiz-adv-x="710" 
d="M513 -9c-8 18 -41 113 -53 150c-24 -1 -177 0 -213 0c-12 -39 -41 -139 -47 -148c-5 -4 -174 8 -186 17c19 72 213 682 222 688s204 12 229 7c3 -1 212 -583 233 -696c-21 -13 -182 -20 -185 -18zM360 542c-2 0 -4 -1 -6 -1c-14 -50 -57 -198 -80 -263c34 1 125 2 166 2
c-25 69 -67 214 -80 262zM171 818c0 0 155 105 174 113c8 -3 174 -112 174 -112s-28 -62 -42 -68c-3 -1 -79 36 -132 67c-55 -31 -127 -70 -129 -69c-14 6 -45 69 -45 69z" />
    <glyph glyph-name="Atilde" unicode="&#xc3;" horiz-adv-x="710" 
d="M513 -9c-8 18 -41 113 -53 150c-24 -1 -177 0 -213 0c-12 -39 -41 -139 -47 -148c-5 -4 -174 8 -186 17c19 72 213 682 222 688s204 12 229 7c3 -1 212 -583 233 -696c-21 -13 -182 -20 -185 -18zM360 542c-2 0 -4 -1 -6 -1c-14 -50 -57 -198 -80 -263c34 1 125 2 166 2
c-25 69 -67 214 -80 262zM173 864c19 25 55 52 102 52c58 0 102 -57 157 -57c33 0 52 21 68 37c8 -2 32 -61 34 -86c0 0 -31 -55 -103 -55c-59 0 -110 53 -164 53c-29 0 -54 -20 -67 -32c-6 -5 -27 78 -27 88z" />
    <glyph glyph-name="Adieresis" unicode="&#xc4;" horiz-adv-x="710" 
d="M513 -9c-8 18 -41 113 -53 150c-24 -1 -177 0 -213 0c-12 -39 -41 -139 -47 -148c-5 -4 -174 8 -186 17c19 72 213 682 222 688s204 12 229 7c3 -1 212 -583 233 -696c-21 -13 -182 -20 -185 -18zM360 542c-2 0 -4 -1 -6 -1c-14 -50 -57 -198 -80 -263c34 1 125 2 166 2
c-25 69 -67 214 -80 262zM470 766c-53 0 -80 30 -81 76c-1 48 32 79 72 79c41 0 78 -36 78 -75c0 -41 -18 -80 -69 -80zM248 766c-52 0 -79 30 -81 76c-1 48 32 79 72 79c41 0 78 -36 78 -75c0 -41 -18 -80 -69 -80z" />
    <glyph glyph-name="Amacron" unicode="&#x100;" horiz-adv-x="710" 
d="M513 -9c-8 18 -41 113 -53 150c-24 -1 -177 0 -213 0c-12 -39 -41 -139 -47 -148c-5 -4 -174 8 -186 17c19 72 213 682 222 688s204 12 229 7c3 -1 212 -583 233 -696c-21 -13 -182 -20 -185 -18zM360 542c-2 0 -4 -1 -6 -1c-14 -50 -57 -198 -80 -263c34 1 125 2 166 2
c-25 69 -67 214 -80 262zM193 777c-7 0 -4 92 0 94c3 2 318 11 320 4c1 -6 -3 -91 -6 -91s-308 -7 -314 -7z" />
    <glyph glyph-name="Abreve" unicode="&#x102;" horiz-adv-x="710" 
d="M513 -9c-8 18 -41 113 -53 150c-24 -1 -177 0 -213 0c-12 -39 -41 -139 -47 -148c-5 -4 -174 8 -186 17c19 72 213 682 222 688s204 12 229 7c3 -1 212 -583 233 -696c-21 -13 -182 -20 -185 -18zM360 542c-2 0 -4 -1 -6 -1c-14 -50 -57 -198 -80 -263c34 1 125 2 166 2
c-25 69 -67 214 -80 262zM358 759c-80 0 -143 38 -180 91c0 12 31 43 60 58c24 -23 66 -52 122 -52c47 0 87 28 110 49c16 -5 54 -47 57 -55c-25 -41 -93 -91 -169 -91z" />
    <glyph glyph-name="Aring" unicode="&#xc5;" horiz-adv-x="710" 
d="M513 -9c-8 18 -41 113 -53 150c-24 -1 -177 0 -213 0c-12 -39 -41 -139 -47 -148c-5 -4 -174 8 -186 17c19 72 213 682 222 688s204 12 229 7c3 -1 212 -583 233 -696c-21 -13 -182 -20 -185 -18zM360 542c-2 0 -4 -1 -6 -1c-14 -50 -57 -198 -80 -263c34 1 125 2 166 2
c-25 69 -67 214 -80 262zM356 730c-64 0 -107 32 -107 100s48 96 107 96c55 0 99 -36 99 -97c0 -50 -30 -99 -99 -99zM354 791c21 0 37 12 37 36c0 18 -12 38 -37 38c-31 0 -42 -19 -42 -38c0 -23 23 -36 42 -36z" />
    <glyph glyph-name="Aogonek" unicode="&#x104;" horiz-adv-x="710" 
d="M476 -116c0 49 31 84 65 108c-16 -1 -27 -1 -28 -1c-8 18 -41 113 -53 150c-24 -1 -177 0 -213 0c-12 -39 -41 -139 -47 -148c-5 -4 -174 8 -186 17c19 72 213 682 222 688s204 12 229 7c3 -1 212 -583 233 -696c-44 -22 -114 -59 -114 -91c0 -19 10 -30 29 -30
c23 0 49 20 49 20c6 0 52 -59 45 -67c-23 -25 -73 -61 -128 -61c-58 0 -103 44 -103 104zM360 542c-2 0 -4 -1 -6 -1c-14 -50 -57 -198 -80 -263c34 1 125 2 166 2c-25 69 -67 214 -80 262z" />
    <glyph glyph-name="AE" unicode="&#xc6;" horiz-adv-x="948" 
d="M900 147c7 -33 5 -133 0 -150c8 -5 -390 -7 -470 1c-1 29 -2 84 -2 143c-65 -1 -151 0 -174 0c-18 -39 -60 -139 -69 -148c-5 -4 -179 8 -190 17c29 72 307 687 319 688c47 9 587 12 597 3c15 -13 7 -119 2 -152c-28 -3 -228 -4 -309 -1l2 -122c87 1 226 -1 233 -6
c10 -9 2 -140 2 -144c0 -5 -140 -5 -236 -2v-128c90 2 267 3 295 1zM425 551l-126 -273c19 1 83 1 130 2c0 94 2 191 3 270z" />
    <glyph glyph-name="AEacute" unicode="&#x1fc;" horiz-adv-x="948" 
d="M900 147c7 -33 5 -133 0 -150c8 -5 -390 -7 -470 1c-1 29 -2 84 -2 143c-65 -1 -151 0 -174 0c-18 -39 -60 -139 -69 -148c-5 -4 -179 8 -190 17c29 72 307 687 319 688c47 9 587 12 597 3c15 -13 7 -119 2 -152c-28 -3 -228 -4 -309 -1l2 -122c87 1 226 -1 233 -6
c10 -9 2 -140 2 -144c0 -5 -140 -5 -236 -2v-128c90 2 267 3 295 1zM425 551l-126 -273c19 1 83 1 130 2c0 94 2 191 3 270zM794 846c-3 -1 -227 -103 -231 -102c-17 6 -45 76 -45 76s219 118 224 116c10 -1 55 -89 52 -90z" />
    <glyph glyph-name="Cacute" unicode="&#x106;" horiz-adv-x="649" 
d="M220 348c0 -143 88 -200 173 -200c81 0 136 43 158 59c23 -16 67 -97 83 -131c-43 -49 -144 -97 -259 -97c-234 0 -343 167 -343 376c0 201 142 356 369 356c115 0 198 -36 229 -66c0 -20 -42 -128 -67 -149c-36 21 -97 48 -160 48c-103 0 -183 -82 -183 -196zM548 846
c-3 -1 -227 -103 -231 -102c-17 6 -45 76 -45 76s219 118 224 116c10 -1 55 -89 52 -90z" />
    <glyph glyph-name="Ccircumflex" unicode="&#x108;" horiz-adv-x="649" 
d="M220 348c0 -143 88 -200 173 -200c81 0 136 43 158 59c23 -16 67 -97 83 -131c-43 -49 -144 -97 -259 -97c-234 0 -343 167 -343 376c0 201 142 356 369 356c115 0 198 -36 229 -66c0 -20 -42 -128 -67 -149c-36 21 -97 48 -160 48c-103 0 -183 -82 -183 -196zM221 818
c0 0 155 105 174 113c8 -3 174 -112 174 -112s-28 -62 -42 -68c-3 -1 -79 36 -132 67c-55 -31 -127 -70 -129 -69c-14 6 -45 69 -45 69z" />
    <glyph glyph-name="Ccaron" unicode="&#x10c;" horiz-adv-x="649" 
d="M220 348c0 -143 88 -200 173 -200c81 0 136 43 158 59c23 -16 67 -97 83 -131c-43 -49 -144 -97 -259 -97c-234 0 -343 167 -343 376c0 201 142 356 369 356c115 0 198 -36 229 -66c0 -20 -42 -128 -67 -149c-36 21 -97 48 -160 48c-103 0 -183 -82 -183 -196zM220 858
c0 0 31 64 45 70c2 1 75 -40 130 -71c53 31 131 69 134 68c14 -6 41 -67 41 -67s-167 -110 -175 -113c-19 8 -175 113 -175 113z" />
    <glyph glyph-name="Cdotaccent" unicode="&#x10a;" horiz-adv-x="649" 
d="M220 348c0 -143 88 -200 173 -200c81 0 136 43 158 59c23 -16 67 -97 83 -131c-43 -49 -144 -97 -259 -97c-234 0 -343 167 -343 376c0 201 142 356 369 356c115 0 198 -36 229 -66c0 -20 -42 -128 -67 -149c-36 21 -97 48 -160 48c-103 0 -183 -82 -183 -196zM304 852
c0 53 16 92 88 92c54 0 92 -36 92 -98c0 -44 -38 -79 -92 -79c-52 0 -88 30 -88 85z" />
    <glyph glyph-name="Ccedilla" unicode="&#xc7;" horiz-adv-x="649" 
d="M220 348c0 -143 88 -200 173 -200c81 0 136 43 158 59c23 -16 67 -97 83 -131c-39 -45 -128 -88 -230 -95c-15 -53 -40 -143 -43 -145c-8 -3 -127 25 -126 28c0 1 30 73 51 126c-172 35 -254 183 -254 365c0 201 142 356 369 356c115 0 198 -36 229 -66
c0 -20 -42 -128 -67 -149c-36 21 -97 48 -160 48c-103 0 -183 -82 -183 -196z" />
    <glyph glyph-name="Dcaron" unicode="&#x10e;" horiz-adv-x="701" 
d="M66 3c-5 60 -1 619 7 693c23 6 140 8 219 8c234 0 377 -152 377 -355c0 -209 -112 -360 -386 -360c-85 0 -195 7 -217 14zM484 340c0 119 -81 198 -190 198c-23 0 -40 -1 -53 -2c1 -115 -2 -265 -4 -380c18 -3 39 -4 64 -4c78 0 183 25 183 188zM139 858c0 0 31 64 45 70
c2 1 75 -40 130 -71c53 31 131 69 134 68c14 -6 41 -67 41 -67s-167 -110 -175 -113c-19 8 -175 113 -175 113z" />
    <glyph glyph-name="Dcroat" unicode="&#x110;" horiz-adv-x="706" 
d="M19 293c-6 0 -3 93 0 95c1 0 21 1 51 2c2 140 4 273 8 306c23 6 140 8 219 8c234 0 377 -152 377 -355c0 -209 -112 -360 -386 -360c-84 0 -195 7 -217 14c-2 26 -2 153 -2 291c-28 -1 -48 -1 -50 -1zM489 340c0 119 -80 198 -190 198c-23 0 -40 -1 -53 -2
c0 -45 0 -93 -1 -142c51 1 93 0 94 -2c2 -7 -2 -92 -5 -92c-1 0 -41 -1 -89 -2c-2 -50 -2 -99 -2 -142c17 -3 38 -4 63 -4c78 0 183 25 183 188z" />
    <glyph glyph-name="Eth" unicode="&#xd0;" horiz-adv-x="706" 
d="M19 293c-6 0 -3 93 0 95c1 0 21 1 51 2c2 140 4 273 8 306c23 6 140 8 219 8c234 0 377 -152 377 -355c0 -209 -112 -360 -386 -360c-84 0 -195 7 -217 14c-2 26 -2 153 -2 291c-28 -1 -48 -1 -50 -1zM489 340c0 119 -80 198 -190 198c-23 0 -40 -1 -53 -2
c0 -45 0 -93 -1 -142c51 1 93 0 94 -2c2 -7 -2 -92 -5 -92c-1 0 -41 -1 -89 -2c-2 -50 -2 -99 -2 -142c17 -3 38 -4 63 -4c78 0 183 25 183 188z" />
    <glyph glyph-name="Egrave" unicode="&#xc8;" horiz-adv-x="582" 
d="M534 147c8 -33 6 -133 1 -150c8 -5 -390 -7 -470 1c-5 79 0 565 6 700c93 6 464 8 475 3c7 -18 7 -119 2 -152c-28 -3 -228 -4 -310 -1l2 -122c88 1 227 -1 233 -6c11 -9 3 -140 3 -144c0 -5 -141 -5 -236 -2c0 -45 0 -93 -1 -128c90 2 267 3 295 1zM147 846
c-3 1 43 89 53 90c5 2 224 -116 224 -116s-29 -70 -46 -76c-4 -1 -228 101 -231 102z" />
    <glyph glyph-name="Eacute" unicode="&#xc9;" horiz-adv-x="582" 
d="M534 147c8 -33 6 -133 1 -150c8 -5 -390 -7 -470 1c-5 79 0 565 6 700c93 6 464 8 475 3c7 -18 7 -119 2 -152c-28 -3 -228 -4 -310 -1l2 -122c88 1 227 -1 233 -6c11 -9 3 -140 3 -144c0 -5 -141 -5 -236 -2c0 -45 0 -93 -1 -128c90 2 267 3 295 1zM450 846
c-3 -1 -227 -103 -231 -102c-17 6 -45 76 -45 76s219 118 224 116c10 -1 55 -89 52 -90z" />
    <glyph glyph-name="Ecircumflex" unicode="&#xca;" horiz-adv-x="582" 
d="M534 147c8 -33 6 -133 1 -150c8 -5 -390 -7 -470 1c-5 79 0 565 6 700c93 6 464 8 475 3c7 -18 7 -119 2 -152c-28 -3 -228 -4 -310 -1l2 -122c88 1 227 -1 233 -6c11 -9 3 -140 3 -144c0 -5 -141 -5 -236 -2c0 -45 0 -93 -1 -128c90 2 267 3 295 1zM132 818
c0 0 155 105 174 113c8 -3 174 -112 174 -112s-28 -62 -42 -68c-3 -1 -79 36 -132 67c-55 -31 -127 -70 -129 -69c-14 6 -45 69 -45 69z" />
    <glyph glyph-name="Ecaron" unicode="&#x11a;" horiz-adv-x="582" 
d="M534 147c8 -33 6 -133 1 -150c8 -5 -390 -7 -470 1c-5 79 0 565 6 700c93 6 464 8 475 3c7 -18 7 -119 2 -152c-28 -3 -228 -4 -310 -1l2 -122c88 1 227 -1 233 -6c11 -9 3 -140 3 -144c0 -5 -141 -5 -236 -2c0 -45 0 -93 -1 -128c90 2 267 3 295 1zM130 858
c0 0 31 64 45 70c2 1 75 -40 130 -71c53 31 131 69 134 68c14 -6 41 -67 41 -67s-167 -110 -175 -113c-19 8 -175 113 -175 113z" />
    <glyph glyph-name="Edieresis" unicode="&#xcb;" horiz-adv-x="582" 
d="M534 147c8 -33 6 -133 1 -150c8 -5 -390 -7 -470 1c-5 79 0 565 6 700c93 6 464 8 475 3c7 -18 7 -119 2 -152c-28 -3 -228 -4 -310 -1l2 -122c88 1 227 -1 233 -6c11 -9 3 -140 3 -144c0 -5 -141 -5 -236 -2c0 -45 0 -93 -1 -128c90 2 267 3 295 1zM425 766
c-53 0 -80 30 -81 76c-1 48 32 79 72 79c41 0 78 -36 78 -75c0 -41 -18 -80 -69 -80zM203 766c-52 0 -79 30 -81 76c-1 48 32 79 72 79c41 0 78 -36 78 -75c0 -41 -18 -80 -69 -80z" />
    <glyph glyph-name="Emacron" unicode="&#x112;" horiz-adv-x="582" 
d="M534 147c8 -33 6 -133 1 -150c8 -5 -390 -7 -470 1c-5 79 0 565 6 700c93 6 464 8 475 3c7 -18 7 -119 2 -152c-28 -3 -228 -4 -310 -1l2 -122c88 1 227 -1 233 -6c11 -9 3 -140 3 -144c0 -5 -141 -5 -236 -2c0 -45 0 -93 -1 -128c90 2 267 3 295 1zM149 777
c-7 0 -4 92 0 94c3 2 318 11 320 4c1 -6 -3 -91 -6 -91s-308 -7 -314 -7z" />
    <glyph glyph-name="Ebreve" unicode="&#x114;" horiz-adv-x="582" 
d="M534 147c8 -33 6 -133 1 -150c8 -5 -390 -7 -470 1c-5 79 0 565 6 700c93 6 464 8 475 3c7 -18 7 -119 2 -152c-28 -3 -228 -4 -310 -1l2 -122c88 1 227 -1 233 -6c11 -9 3 -140 3 -144c0 -5 -141 -5 -236 -2c0 -45 0 -93 -1 -128c90 2 267 3 295 1zM313 759
c-80 0 -143 38 -180 91c0 12 31 43 60 58c24 -23 66 -52 122 -52c47 0 87 28 110 49c16 -5 54 -47 57 -55c-25 -41 -93 -91 -169 -91z" />
    <glyph glyph-name="Edotaccent" unicode="&#x116;" horiz-adv-x="582" 
d="M534 147c8 -33 6 -133 1 -150c8 -5 -390 -7 -470 1c-5 79 0 565 6 700c93 6 464 8 475 3c7 -18 7 -119 2 -152c-28 -3 -228 -4 -310 -1l2 -122c88 1 227 -1 233 -6c11 -9 3 -140 3 -144c0 -5 -141 -5 -236 -2c0 -45 0 -93 -1 -128c90 2 267 3 295 1zM216 852
c0 53 16 92 88 92c54 0 92 -36 92 -98c0 -44 -38 -79 -92 -79c-52 0 -88 30 -88 85z" />
    <glyph glyph-name="Eogonek" unicode="&#x118;" horiz-adv-x="583" 
d="M328 -119c0 53 38 89 77 112c-121 -1 -293 0 -340 5c-4 79 1 565 7 700c92 6 463 8 475 3c7 -18 7 -119 1 -152c-27 -3 -227 -4 -309 -1l2 -122c87 1 226 -1 233 -6c10 -9 2 -140 2 -144c0 -5 -140 -5 -236 -2v-128c90 2 267 3 295 1c8 -33 6 -133 0 -150
c-43 -22 -99 -51 -99 -83c0 -18 10 -30 29 -30c24 0 50 20 50 20c5 1 51 -59 44 -67c-23 -25 -72 -61 -128 -61c-58 0 -103 44 -103 105z" />
    <glyph glyph-name="Gcircumflex" unicode="&#x11c;" horiz-adv-x="688" 
d="M218 348c0 -143 75 -209 175 -209c34 0 68 10 90 18c-1 25 -2 95 -2 95s-96 -3 -116 -4c-5 6 -7 118 -1 128c31 7 274 16 281 8c7 -11 4 -304 0 -327c-44 -35 -155 -77 -270 -77c-234 0 -343 166 -343 375c0 201 135 356 361 356c116 0 198 -39 230 -68
c0 -20 -57 -124 -75 -143c-37 21 -89 43 -152 43c-103 0 -178 -81 -178 -195zM206 818c0 0 155 105 174 113c8 -3 174 -112 174 -112s-28 -62 -42 -68c-3 -1 -79 36 -132 67c-55 -31 -127 -70 -129 -69c-14 6 -45 69 -45 69z" />
    <glyph glyph-name="Gbreve" unicode="&#x11e;" horiz-adv-x="688" 
d="M218 348c0 -143 75 -209 175 -209c34 0 68 10 90 18c-1 25 -2 95 -2 95s-96 -3 -116 -4c-5 6 -7 118 -1 128c31 7 274 16 281 8c7 -11 4 -304 0 -327c-44 -35 -155 -77 -270 -77c-234 0 -343 166 -343 375c0 201 135 356 361 356c116 0 198 -39 230 -68
c0 -20 -57 -124 -75 -143c-37 21 -89 43 -152 43c-103 0 -178 -81 -178 -195zM386 759c-80 0 -143 38 -180 91c0 12 31 43 60 58c24 -23 66 -52 122 -52c47 0 87 28 110 49c16 -5 54 -47 57 -55c-25 -41 -93 -91 -169 -91z" />
    <glyph glyph-name="Gdotaccent" unicode="&#x120;" horiz-adv-x="688" 
d="M218 348c0 -143 75 -209 175 -209c34 0 68 10 90 18c-1 25 -2 95 -2 95s-96 -3 -116 -4c-5 6 -7 118 -1 128c31 7 274 16 281 8c7 -11 4 -304 0 -327c-44 -35 -155 -77 -270 -77c-234 0 -343 166 -343 375c0 201 135 356 361 356c116 0 198 -39 230 -68
c0 -20 -57 -124 -75 -143c-37 21 -89 43 -152 43c-103 0 -178 -81 -178 -195zM290 852c0 53 16 92 88 92c54 0 92 -36 92 -98c0 -44 -38 -79 -92 -79c-52 0 -88 30 -88 85z" />
    <glyph glyph-name="Gcommaaccent" unicode="&#x122;" horiz-adv-x="688" 
d="M218 348c0 -143 75 -209 175 -209c34 0 68 10 90 18c-1 25 -2 95 -2 95s-96 -3 -116 -4c-5 6 -7 118 -1 128c31 7 274 16 281 8c7 -11 4 -304 0 -327c-44 -35 -155 -77 -270 -77c-234 0 -343 166 -343 375c0 201 135 356 361 356c116 0 198 -39 230 -68
c0 -20 -57 -124 -75 -143c-37 21 -89 43 -152 43c-103 0 -178 -81 -178 -195zM464 -139c0 -68 -32 -128 -64 -176c-2 -4 -62 11 -75 29c-2 3 22 42 34 66c-38 4 -73 34 -73 79c0 54 35 87 99 83c39 -2 79 -21 79 -81z" />
    <glyph glyph-name="Hcircumflex" unicode="&#x124;" horiz-adv-x="754" 
d="M682 -1c-5 -21 -178 -12 -178 -4c-1 37 -2 144 -3 263c-68 -1 -185 -2 -247 -1c0 -107 -1 -209 -3 -261c-33 -9 -179 -12 -180 -2c-5 57 -12 637 -4 705c2 21 176 11 179 4c2 -33 5 -150 6 -283c62 1 182 2 249 2c1 121 2 232 5 269c34 9 172 8 178 2
c7 -6 8 -626 -2 -694zM203 818c0 0 155 105 174 113c8 -3 174 -112 174 -112s-28 -62 -42 -68c-3 -1 -79 36 -132 67c-55 -31 -127 -70 -129 -69c-14 6 -45 69 -45 69z" />
    <glyph glyph-name="Hbar" unicode="&#x126;" horiz-adv-x="754" 
d="M681 -1c-4 -21 -177 -12 -178 -4c-1 37 -2 144 -3 263c-68 -1 -185 -2 -247 -1c0 -107 -1 -209 -2 -261c-34 -9 -180 -12 -180 -2c-6 57 -13 637 -5 705c2 21 176 11 179 4c1 -13 2 -52 3 -97c65 1 186 2 254 2l3 83c34 9 172 8 178 2c7 -6 8 -626 -2 -694zM500 422
c0 36 0 65 1 99l-251 -3l2 -98c61 1 181 2 248 2z" />
    <glyph glyph-name="Igrave" unicode="&#xcc;" horiz-adv-x="317" 
d="M69 694c32 12 172 8 178 2c7 -42 6 -632 -1 -696c-6 -18 -177 -11 -178 -4c-4 71 -7 602 1 698zM16 846c-3 1 43 89 53 90c5 2 224 -116 224 -116s-29 -70 -46 -76c-4 -1 -228 101 -231 102z" />
    <glyph glyph-name="Iacute" unicode="&#xcd;" horiz-adv-x="317" 
d="M69 694c32 12 172 8 178 2c7 -42 6 -632 -1 -696c-6 -18 -177 -11 -178 -4c-4 71 -7 602 1 698zM295 846c-3 -1 -227 -103 -231 -102c-17 6 -45 76 -45 76s219 118 224 116c10 -1 55 -89 52 -90z" />
    <glyph glyph-name="Ibreve" unicode="&#x12c;" horiz-adv-x="317" 
d="M69 694c32 12 172 8 178 2c7 -42 6 -632 -1 -696c-6 -18 -177 -11 -178 -4c-4 71 -7 602 1 698zM165 759c-80 0 -143 38 -180 91c0 12 31 43 60 58c24 -23 66 -52 122 -52c47 0 87 28 110 49c16 -5 54 -47 57 -55c-25 -41 -93 -91 -169 -91z" />
    <glyph glyph-name="Icircumflex" unicode="&#xce;" horiz-adv-x="317" 
d="M69 694c32 12 172 8 178 2c7 -42 6 -632 -1 -696c-6 -18 -177 -11 -178 -4c-4 71 -7 602 1 698zM-16 818c0 0 155 105 174 113c8 -3 174 -112 174 -112s-28 -62 -42 -68c-3 -1 -79 36 -132 67c-55 -31 -127 -70 -129 -69c-14 6 -45 69 -45 69z" />
    <glyph glyph-name="Itilde" unicode="&#x128;" horiz-adv-x="317" 
d="M69 694c32 12 172 8 178 2c7 -42 6 -632 -1 -696c-6 -18 -177 -11 -178 -4c-4 71 -7 602 1 698zM-19 864c19 25 55 52 102 52c58 0 102 -57 157 -57c33 0 52 21 68 37c8 -2 32 -61 34 -86c0 0 -31 -55 -103 -55c-59 0 -110 53 -164 53c-29 0 -54 -20 -67 -32
c-6 -5 -27 78 -27 88z" />
    <glyph glyph-name="Idieresis" unicode="&#xcf;" horiz-adv-x="317" 
d="M69 694c32 12 172 8 178 2c7 -42 6 -632 -1 -696c-6 -18 -177 -11 -178 -4c-4 71 -7 602 1 698zM275 766c-53 0 -80 30 -81 76c-1 48 32 79 72 79c41 0 78 -36 78 -75c0 -41 -18 -80 -69 -80zM53 766c-52 0 -79 30 -81 76c-1 48 32 79 72 79c41 0 78 -36 78 -75
c0 -41 -18 -80 -69 -80z" />
    <glyph glyph-name="Imacron" unicode="&#x12a;" horiz-adv-x="317" 
d="M69 694c32 12 172 8 178 2c7 -42 6 -632 -1 -696c-6 -18 -177 -11 -178 -4c-4 71 -7 602 1 698zM-2 777c-7 0 -4 92 0 94c3 2 318 11 320 4c1 -6 -3 -91 -6 -91s-308 -7 -314 -7z" />
    <glyph glyph-name="Idotaccent" unicode="&#x130;" horiz-adv-x="317" 
d="M70 694c32 12 172 8 178 2c7 -42 6 -632 -1 -696c-6 -18 -177 -11 -178 -4c-4 71 -7 602 1 698zM69 852c0 53 16 92 88 92c54 0 92 -36 92 -98c0 -44 -38 -79 -92 -79c-52 0 -88 30 -88 85z" />
    <glyph glyph-name="Iogonek" unicode="&#x12e;" horiz-adv-x="317" 
d="M20 -119c0 53 37 90 75 113c-14 0 -26 1 -26 2c-4 71 -7 602 1 698c32 12 171 8 177 2c7 -42 7 -632 -1 -696c-44 -23 -119 -54 -119 -86c0 -18 10 -30 30 -30c23 0 49 20 49 20c5 1 52 -59 45 -67c-23 -25 -73 -61 -128 -61c-58 0 -103 44 -103 105z" />
    <glyph glyph-name="Jcircumflex" unicode="&#x134;" horiz-adv-x="482" 
d="M3 49c-2 12 46 128 63 143c24 -16 53 -38 98 -38c41 0 79 23 79 97c0 134 -7 342 -7 443c35 9 172 15 178 9c7 -36 9 -303 9 -466c0 -165 -87 -249 -228 -249c-98 0 -161 30 -192 61zM146 818c0 0 155 105 174 113c8 -3 174 -112 174 -112s-28 -62 -42 -68
c-3 -1 -79 36 -132 67c-55 -31 -127 -70 -129 -69c-14 6 -45 69 -45 69z" />
    <glyph glyph-name="Kcommaaccent" unicode="&#x136;" horiz-adv-x="658" 
d="M68 696c12 13 173 7 179 4s-5 -299 -5 -299s244 302 252 302c9 0 148 -41 149 -53c1 -11 -194 -262 -194 -262c49 -68 196 -335 201 -354c-1 -8 -134 -57 -166 -49c-14 12 -141 247 -162 282l-75 -84l1 -186c-18 -5 -165 -9 -172 -3s-22 687 -8 702zM442 -139
c0 -68 -32 -128 -64 -176c-2 -4 -62 11 -75 29c-2 3 22 42 34 66c-38 4 -73 34 -73 79c0 54 35 87 99 83c39 -2 79 -21 79 -81z" />
    <glyph glyph-name="Lacute" unicode="&#x139;" horiz-adv-x="539" 
d="M518 156c8 -33 9 -138 4 -156c-1 -5 -421 -5 -455 1c-5 77 -3 661 4 697c5 6 173 11 175 5c2 -33 -1 -484 -4 -548c87 3 246 5 276 1zM326 846c-3 -1 -227 -103 -231 -102c-17 6 -45 76 -45 76s219 118 224 116c10 -1 55 -89 52 -90z" />
    <glyph glyph-name="Lcaron" unicode="&#x13d;" horiz-adv-x="545" 
d="M518 156c8 -33 9 -138 4 -156c-1 -5 -421 -5 -455 1c-5 77 -3 661 4 697c5 6 173 11 175 5c2 -33 -1 -484 -4 -548c87 3 246 5 276 1zM516 645c0 -68 -32 -128 -64 -176c-2 -4 -62 11 -75 29c-2 3 22 42 34 66c-38 4 -73 34 -73 79c0 54 35 87 99 83c39 -2 79 -21 79 -81
z" />
    <glyph glyph-name="Lcommaaccent" unicode="&#x13b;" horiz-adv-x="538" 
d="M518 156c8 -33 9 -138 4 -156c-1 -5 -421 -5 -455 1c-5 77 -3 661 4 697c5 6 173 11 175 5c2 -33 -1 -484 -4 -548c87 3 246 5 276 1zM393 -139c0 -68 -32 -128 -64 -176c-2 -4 -62 11 -75 29c-2 3 22 42 34 66c-38 4 -73 34 -73 79c0 54 35 87 99 83
c39 -2 79 -21 79 -81z" />
    <glyph glyph-name="Lslash" unicode="&#x141;" horiz-adv-x="550" 
d="M30 264c-6 -3 -29 98 -26 101c1 1 31 13 72 31c1 145 3 285 6 302c5 6 173 11 175 5c1 -14 1 -125 0 -232c62 24 106 35 108 33c5 -5 30 -92 28 -93c-1 -1 -66 -26 -136 -55c-1 -97 -3 -176 -4 -201c87 3 247 5 277 1c7 -33 9 -138 4 -156c-2 -5 -422 -5 -455 1
c-3 33 -3 148 -4 280c-26 -10 -44 -17 -45 -17z" />
    <glyph glyph-name="Ldot" unicode="&#x13f;" horiz-adv-x="541" 
d="M518 156c8 -33 9 -138 4 -156c-1 -5 -421 -5 -455 1c-5 77 -3 661 4 697c5 6 173 11 175 5c2 -33 -1 -484 -4 -548c87 3 246 5 276 1zM500 408c0 -61 -37 -97 -106 -95c-41 1 -83 37 -83 92c0 61 37 99 106 95c41 -2 83 -25 83 -92z" />
    <glyph glyph-name="Nacute" unicode="&#x143;" horiz-adv-x="739" 
d="M664 7c-4 -18 -153 -21 -165 -13c-19 24 -163 259 -260 409c0 -144 6 -324 3 -399c-34 -9 -173 -10 -174 0c-5 57 -8 620 0 688c4 18 160 18 165 11c11 -17 181 -278 265 -432c2 161 -4 367 0 419c34 9 167 7 173 1s3 -616 -7 -684zM551 846c-3 -1 -227 -103 -231 -102
c-17 6 -45 76 -45 76s219 118 224 116c10 -1 55 -89 52 -90z" />
    <glyph glyph-name="Ncaron" unicode="&#x147;" horiz-adv-x="739" 
d="M664 7c-4 -18 -153 -21 -165 -13c-19 24 -163 259 -260 409c0 -144 6 -324 3 -399c-34 -9 -173 -10 -174 0c-5 57 -8 620 0 688c4 18 160 18 165 11c11 -17 181 -278 265 -432c2 161 -4 367 0 419c34 9 167 7 173 1s3 -616 -7 -684zM202 858c0 0 31 64 45 70
c2 1 75 -40 130 -71c53 31 131 69 134 68c14 -6 41 -67 41 -67s-167 -110 -175 -113c-19 8 -175 113 -175 113z" />
    <glyph glyph-name="Ntilde" unicode="&#xd1;" horiz-adv-x="739" 
d="M664 7c-4 -18 -153 -21 -165 -13c-19 24 -163 259 -260 409c0 -144 6 -324 3 -399c-34 -9 -173 -10 -174 0c-5 57 -8 620 0 688c4 18 160 18 165 11c11 -17 181 -278 265 -432c2 161 -4 367 0 419c34 9 167 7 173 1s3 -616 -7 -684zM186 864c19 25 55 52 102 52
c58 0 102 -57 157 -57c33 0 52 21 68 37c8 -2 32 -61 34 -86c0 0 -31 -55 -103 -55c-59 0 -110 53 -164 53c-29 0 -54 -20 -67 -32c-6 -5 -27 78 -27 88z" />
    <glyph glyph-name="Ncommaaccent" unicode="&#x145;" horiz-adv-x="739" 
d="M664 7c-4 -18 -153 -21 -165 -13c-19 24 -163 259 -260 409c0 -144 6 -324 3 -399c-34 -9 -173 -10 -174 0c-5 57 -8 620 0 688c4 18 160 18 165 11c11 -17 181 -278 265 -432c2 161 -4 367 0 419c34 9 167 7 173 1s3 -616 -7 -684zM463 -139c0 -68 -32 -128 -64 -176
c-2 -4 -62 11 -75 29c-2 3 22 42 34 66c-38 4 -73 34 -73 79c0 54 35 87 99 83c39 -2 79 -21 79 -81z" />
    <glyph glyph-name="Ograve" unicode="&#xd2;" horiz-adv-x="753" 
d="M374 713c210 0 347 -141 347 -374c0 -177 -105 -358 -344 -358c-213 0 -346 151 -346 374c0 181 114 358 343 358zM530 352c0 134 -64 198 -153 198c-103 0 -161 -81 -161 -205c0 -112 61 -200 157 -200c107 0 157 82 157 207zM220 846c-3 1 43 89 53 90
c5 2 224 -116 224 -116s-29 -70 -46 -76c-4 -1 -228 101 -231 102z" />
    <glyph glyph-name="Oacute" unicode="&#xd3;" horiz-adv-x="753" 
d="M374 713c210 0 347 -141 347 -374c0 -177 -105 -358 -344 -358c-213 0 -346 151 -346 374c0 181 114 358 343 358zM530 352c0 134 -64 198 -153 198c-103 0 -161 -81 -161 -205c0 -112 61 -200 157 -200c107 0 157 82 157 207zM544 846c-3 -1 -227 -103 -231 -102
c-17 6 -45 76 -45 76s219 118 224 116c10 -1 55 -89 52 -90z" />
    <glyph glyph-name="Ocircumflex" unicode="&#xd4;" horiz-adv-x="753" 
d="M374 713c210 0 347 -141 347 -374c0 -177 -105 -358 -344 -358c-213 0 -346 151 -346 374c0 181 114 358 343 358zM530 352c0 134 -64 198 -153 198c-103 0 -161 -81 -161 -205c0 -112 61 -200 157 -200c107 0 157 82 157 207zM204 818c0 0 155 105 174 113
c8 -3 174 -112 174 -112s-28 -62 -42 -68c-3 -1 -79 36 -132 67c-55 -31 -127 -70 -129 -69c-14 6 -45 69 -45 69z" />
    <glyph glyph-name="Otilde" unicode="&#xd5;" horiz-adv-x="753" 
d="M374 713c210 0 347 -141 347 -374c0 -177 -105 -358 -344 -358c-213 0 -346 151 -346 374c0 181 114 358 343 358zM530 352c0 134 -64 198 -153 198c-103 0 -161 -81 -161 -205c0 -112 61 -200 157 -200c107 0 157 82 157 207zM197 864c19 25 55 52 102 52
c58 0 102 -57 157 -57c33 0 52 21 68 37c8 -2 32 -61 34 -86c0 0 -31 -55 -103 -55c-59 0 -110 53 -164 53c-29 0 -54 -20 -67 -32c-6 -5 -27 78 -27 88z" />
    <glyph glyph-name="Odieresis" unicode="&#xd6;" horiz-adv-x="753" 
d="M374 713c210 0 347 -141 347 -374c0 -177 -105 -358 -344 -358c-213 0 -346 151 -346 374c0 181 114 358 343 358zM530 352c0 134 -64 198 -153 198c-103 0 -161 -81 -161 -205c0 -112 61 -200 157 -200c107 0 157 82 157 207zM495 766c-53 0 -80 30 -81 76
c-1 48 32 79 72 79c41 0 78 -36 78 -75c0 -41 -18 -80 -69 -80zM273 766c-52 0 -79 30 -81 76c-1 48 32 79 72 79c41 0 78 -36 78 -75c0 -41 -18 -80 -69 -80z" />
    <glyph glyph-name="Omacron" unicode="&#x14c;" horiz-adv-x="753" 
d="M374 713c210 0 347 -141 347 -374c0 -177 -105 -358 -344 -358c-213 0 -346 151 -346 374c0 181 114 358 343 358zM530 352c0 134 -64 198 -153 198c-103 0 -161 -81 -161 -205c0 -112 61 -200 157 -200c107 0 157 82 157 207zM220 777c-7 0 -4 92 0 94c3 2 318 11 320 4
c1 -6 -3 -91 -6 -91s-308 -7 -314 -7z" />
    <glyph glyph-name="Obreve" unicode="&#x14e;" horiz-adv-x="753" 
d="M374 713c210 0 347 -141 347 -374c0 -177 -105 -358 -344 -358c-213 0 -346 151 -346 374c0 181 114 358 343 358zM530 352c0 134 -64 198 -153 198c-103 0 -161 -81 -161 -205c0 -112 61 -200 157 -200c107 0 157 82 157 207zM383 759c-80 0 -143 38 -180 91
c0 12 31 43 60 58c24 -23 66 -52 122 -52c47 0 87 28 110 49c16 -5 54 -47 57 -55c-25 -41 -93 -91 -169 -91z" />
    <glyph glyph-name="Ohungarumlaut" unicode="&#x150;" horiz-adv-x="753" 
d="M374 713c210 0 347 -141 347 -374c0 -177 -105 -358 -344 -358c-213 0 -346 151 -346 374c0 181 114 358 343 358zM530 352c0 134 -64 198 -153 198c-103 0 -161 -81 -161 -205c0 -112 61 -200 157 -200c107 0 157 82 157 207zM417 768c-2 3 69 163 72 164
c-4 2 115 -15 113 -16c-2 -2 -103 -161 -103 -161s-80 10 -82 13zM330 757c-2 0 -61 11 -65 15c-5 4 28 154 27 154c23 6 116 -11 116 -12s-76 -157 -78 -157z" />
    <glyph glyph-name="Oslash" unicode="&#xd8;" horiz-adv-x="752" 
d="M72 23l48 65c-58 66 -89 158 -89 267c0 181 114 358 343 358c67 0 126 -16 176 -44c27 37 44 60 45 60c0 0 95 -41 93 -46c0 -1 -22 -31 -55 -78c57 -63 88 -154 88 -266c0 -177 -105 -358 -344 -358c-65 0 -123 15 -171 41c-27 -35 -46 -57 -48 -56c-13 6 -90 45 -86 57
zM216 345c0 -36 7 -70 22 -97l209 283c-20 12 -43 19 -70 19c-103 0 -161 -81 -161 -205zM530 352c0 33 -6 63 -17 87l-202 -276c17 -11 38 -18 62 -18c107 0 157 82 157 207z" />
    <glyph glyph-name="Oslashacute" unicode="&#x1fe;" horiz-adv-x="752" 
d="M72 23l48 65c-58 66 -89 158 -89 267c0 181 114 358 343 358c67 0 126 -16 176 -44c27 37 44 60 45 60c0 0 95 -41 93 -46c0 -1 -22 -31 -55 -78c57 -63 88 -154 88 -266c0 -177 -105 -358 -344 -358c-65 0 -123 15 -171 41c-27 -35 -46 -57 -48 -56c-13 6 -90 45 -86 57
zM216 345c0 -36 7 -70 22 -97l209 283c-20 12 -43 19 -70 19c-103 0 -161 -81 -161 -205zM530 352c0 33 -6 63 -17 87l-202 -276c17 -11 38 -18 62 -18c107 0 157 82 157 207zM544 846c-3 -1 -227 -103 -231 -102c-17 6 -45 76 -45 76s219 118 224 116c10 -1 55 -89 52 -90z
" />
    <glyph glyph-name="OE" unicode="&#x152;" horiz-adv-x="1095" 
d="M1048 147c7 -33 5 -133 0 -150c8 -5 -390 -7 -470 1c-1 11 -1 30 -1 55c-47 -44 -112 -72 -200 -72c-213 0 -346 151 -346 374c0 181 114 358 343 358c87 0 158 -27 209 -76l2 61c92 6 463 8 474 3c8 -18 7 -119 2 -152c-28 -3 -228 -4 -309 -1l2 -122
c87 1 226 -1 233 -6c10 -9 2 -140 2 -144c0 -5 -140 -5 -236 -2v-128c90 2 267 3 295 1zM530 352c0 134 -64 198 -153 198c-103 0 -161 -81 -161 -205c0 -112 61 -200 157 -200c107 0 157 82 157 207z" />
    <glyph glyph-name="Racute" unicode="&#x154;" horiz-adv-x="658" 
d="M237 0c-10 -4 -170 -9 -171 -3c-5 47 -1 626 8 695c51 6 159 11 237 11c192 0 302 -76 302 -243c0 -104 -49 -165 -127 -197c76 -92 154 -214 151 -218c-11 -15 -126 -63 -156 -62c-3 0 -90 141 -173 250c-4 -1 -9 -1 -13 -1c-17 0 -41 1 -53 2c-1 -69 -1 -205 -5 -234z
M252 373c19 -2 49 -3 72 -3c65 0 110 26 110 86c0 56 -29 92 -116 92c-19 0 -46 -1 -66 -3c1 -27 0 -137 0 -172zM475 846c-3 -1 -227 -103 -231 -102c-17 6 -45 76 -45 76s219 118 224 116c10 -1 55 -89 52 -90z" />
    <glyph glyph-name="Rcaron" unicode="&#x158;" horiz-adv-x="658" 
d="M237 0c-10 -4 -170 -9 -171 -3c-5 47 -1 626 8 695c51 6 159 11 237 11c192 0 302 -76 302 -243c0 -104 -49 -165 -127 -197c76 -92 154 -214 151 -218c-11 -15 -126 -63 -156 -62c-3 0 -90 141 -173 250c-4 -1 -9 -1 -13 -1c-17 0 -41 1 -53 2c-1 -69 -1 -205 -5 -234z
M252 373c19 -2 49 -3 72 -3c65 0 110 26 110 86c0 56 -29 92 -116 92c-19 0 -46 -1 -66 -3c1 -27 0 -137 0 -172zM144 858c0 0 31 64 45 70c2 1 75 -40 130 -71c53 31 131 69 134 68c14 -6 41 -67 41 -67s-167 -110 -175 -113c-19 8 -175 113 -175 113z" />
    <glyph glyph-name="Rcommaaccent" unicode="&#x156;" horiz-adv-x="658" 
d="M237 0c-10 -4 -170 -9 -171 -3c-5 47 -1 626 8 695c51 6 159 11 237 11c192 0 302 -76 302 -243c0 -104 -49 -165 -127 -197c76 -92 154 -214 151 -218c-11 -15 -126 -63 -156 -62c-3 0 -90 141 -173 250c-4 -1 -9 -1 -13 -1c-17 0 -41 1 -53 2c-1 -69 -1 -205 -5 -234z
M252 373c19 -2 49 -3 72 -3c65 0 110 26 110 86c0 56 -29 92 -116 92c-19 0 -46 -1 -66 -3c1 -27 0 -137 0 -172zM414 -139c0 -68 -32 -128 -64 -176c-2 -4 -62 11 -75 29c-2 3 22 42 34 66c-38 4 -73 34 -73 79c0 54 35 87 99 83c39 -2 79 -21 79 -81z" />
    <glyph glyph-name="Sacute" unicode="&#x15a;" horiz-adv-x="581" 
d="M277 -5c-112 0 -210 44 -246 71c-4 20 45 148 56 143c23 -14 98 -68 183 -68c59 0 97 18 97 61c0 32 -24 56 -127 77c-131 27 -204 88 -204 219c0 114 93 213 262 213c106 0 195 -28 234 -59c13 -10 -47 -140 -57 -139c-15 7 -88 44 -173 44c-60 0 -88 -24 -88 -57
c0 -31 17 -47 114 -69c129 -30 229 -82 229 -219c0 -106 -85 -217 -280 -217zM460 846c-3 -1 -227 -103 -231 -102c-17 6 -45 76 -45 76s219 118 224 116c10 -1 55 -89 52 -90z" />
    <glyph glyph-name="Scircumflex" unicode="&#x15c;" horiz-adv-x="581" 
d="M277 -5c-112 0 -210 44 -246 71c-4 20 45 148 56 143c23 -14 98 -68 183 -68c59 0 97 18 97 61c0 32 -24 56 -127 77c-131 27 -204 88 -204 219c0 114 93 213 262 213c106 0 195 -28 234 -59c13 -10 -47 -140 -57 -139c-15 7 -88 44 -173 44c-60 0 -88 -24 -88 -57
c0 -31 17 -47 114 -69c129 -30 229 -82 229 -219c0 -106 -85 -217 -280 -217zM127 818c0 0 155 105 174 113c8 -3 174 -112 174 -112s-28 -62 -42 -68c-3 -1 -79 36 -132 67c-55 -31 -127 -70 -129 -69c-14 6 -45 69 -45 69z" />
    <glyph glyph-name="Scaron" unicode="&#x160;" horiz-adv-x="581" 
d="M277 -5c-112 0 -210 44 -246 71c-4 20 45 148 56 143c23 -14 98 -68 183 -68c59 0 97 18 97 61c0 32 -24 56 -127 77c-131 27 -204 88 -204 219c0 114 93 213 262 213c106 0 195 -28 234 -59c13 -10 -47 -140 -57 -139c-15 7 -88 44 -173 44c-60 0 -88 -24 -88 -57
c0 -31 17 -47 114 -69c129 -30 229 -82 229 -219c0 -106 -85 -217 -280 -217zM126 858c0 0 31 64 45 70c2 1 75 -40 130 -71c53 31 131 69 134 68c14 -6 41 -67 41 -67s-167 -110 -175 -113c-19 8 -175 113 -175 113z" />
    <glyph glyph-name="Scedilla" unicode="&#x15e;" horiz-adv-x="581" 
d="M557 212c0 -92 -65 -187 -207 -211c-13 -46 -44 -162 -48 -165c-8 -3 -127 25 -126 28l55 133c-93 8 -169 45 -200 69c-4 20 45 148 56 143c23 -14 98 -68 183 -68c59 0 97 18 97 61c0 32 -24 56 -127 77c-131 27 -204 88 -204 219c0 114 93 213 262 213
c106 0 195 -28 234 -59c13 -10 -47 -140 -57 -139c-15 7 -88 44 -173 44c-60 0 -88 -24 -88 -57c0 -31 17 -47 114 -69c129 -30 229 -82 229 -219z" />
    <glyph glyph-name="Scommaaccent" unicode="&#x218;" horiz-adv-x="581" 
d="M277 -5c-112 0 -210 44 -246 71c-4 20 45 148 56 143c23 -14 98 -68 183 -68c59 0 97 18 97 61c0 32 -24 56 -127 77c-131 27 -204 88 -204 219c0 114 93 213 262 213c106 0 195 -28 234 -59c13 -10 -47 -140 -57 -139c-15 7 -88 44 -173 44c-60 0 -88 -24 -88 -57
c0 -31 17 -47 114 -69c129 -30 229 -82 229 -219c0 -106 -85 -217 -280 -217zM372 -139c0 -68 -32 -128 -64 -176c-2 -4 -62 11 -75 29c-2 3 22 42 34 66c-38 4 -73 34 -73 79c0 54 35 87 99 83c39 -2 79 -21 79 -81z" />
    <glyph glyph-name="Tcaron" unicode="&#x164;" horiz-adv-x="570" 
d="M22 545c-9 30 -9 141 -4 147c13 7 481 18 528 11c14 -4 13 -152 6 -153c-21 -3 -93 -5 -177 -8c1 -193 3 -498 -1 -538c-6 -7 -174 -13 -175 -4c-4 55 -5 364 -3 544c-65 -1 -148 -2 -174 1zM111 858c0 0 31 64 45 70c2 1 75 -40 130 -71c53 31 131 69 134 68
c14 -6 41 -67 41 -67s-167 -110 -175 -113c-19 8 -175 113 -175 113z" />
    <glyph glyph-name="Tcommaaccent" unicode="&#x162;" horiz-adv-x="570" 
d="M21 545c-9 30 -9 141 -4 147c13 8 481 17 529 11c13 -5 13 -152 5 -153c-21 -2 -93 -5 -177 -7c2 -194 3 -499 -1 -539c-1 -2 -11 -2 -25 -4c-11 -37 -48 -171 -52 -174c-8 -3 -126 25 -125 28c0 2 37 91 59 142c-19 1 -33 2 -33 4c-3 55 -4 364 -2 544
c-65 -1 -147 -2 -174 1z" />
    <glyph glyph-name="uni021A" unicode="&#x21a;" horiz-adv-x="570" 
d="M21 545c-9 30 -9 141 -4 147c13 7 481 18 528 11c14 -4 13 -152 6 -153c-21 -3 -93 -5 -177 -8c1 -193 3 -498 -1 -538c-6 -7 -174 -13 -175 -4c-4 55 -5 364 -3 544c-65 -1 -148 -2 -174 1zM375 -139c0 -68 -32 -128 -64 -176c-2 -4 -62 11 -75 29c-2 3 22 42 34 66
c-38 4 -73 34 -73 79c0 54 35 87 99 83c39 -2 79 -21 79 -81z" />
    <glyph glyph-name="Tbar" unicode="&#x166;" horiz-adv-x="580" 
d="M94 265c-7 0 -4 93 0 95c1 0 47 1 105 2c0 67 0 132 1 182c-64 -1 -147 -2 -173 1c-10 30 -10 141 -5 147c14 8 482 17 529 11c13 -5 13 -152 6 -153c-21 -3 -94 -5 -177 -8c0 -56 1 -116 1 -176c62 1 111 0 112 -2c2 -7 -2 -92 -5 -92c-1 0 -48 -1 -107 -2
c1 -130 0 -246 -2 -266c-6 -7 -174 -13 -175 -4c-3 31 -4 142 -5 266c-57 -1 -103 -1 -105 -1z" />
    <glyph glyph-name="Thorn" unicode="&#xde;" horiz-adv-x="626" 
d="M255 260c18 -1 48 -2 70 -2c63 0 111 26 111 88c0 52 -27 88 -94 93c-12 1 -24 2 -36 2c-14 -1 -36 -1 -51 -3c1 -29 0 -141 0 -178zM255 0c-4 -7 -185 -9 -186 -3c-5 47 -7 627 2 697c20 2 154 3 185 4c3 0 -2 -96 1 -96c14 1 46 3 70 3c179 0 283 -91 283 -248
c0 -180 -106 -254 -296 -254c-17 0 -42 1 -54 1c-1 -69 0 -85 -5 -104z" />
    <glyph glyph-name="Ugrave" unicode="&#xd9;" horiz-adv-x="715" 
d="M71 690c3 17 174 10 177 3c5 -18 -9 -284 -9 -386c0 -109 38 -150 115 -150c89 0 116 64 116 146c0 127 -7 349 -7 398c13 9 186 16 188 6c4 -18 8 -294 8 -415c0 -164 -61 -311 -302 -311c-188 0 -301 89 -301 305c0 97 6 350 15 404zM179 846c-3 1 43 89 53 90
c5 2 224 -116 224 -116s-29 -70 -46 -76c-4 -1 -228 101 -231 102z" />
    <glyph glyph-name="Uacute" unicode="&#xda;" horiz-adv-x="715" 
d="M71 690c3 17 174 10 177 3c5 -18 -9 -284 -9 -386c0 -109 38 -150 115 -150c89 0 116 64 116 146c0 127 -7 349 -7 398c13 9 186 16 188 6c4 -18 8 -294 8 -415c0 -164 -61 -311 -302 -311c-188 0 -301 89 -301 305c0 97 6 350 15 404zM541 846
c-3 -1 -227 -103 -231 -102c-17 6 -45 76 -45 76s219 118 224 116c10 -1 55 -89 52 -90z" />
    <glyph glyph-name="Ucircumflex" unicode="&#xdb;" horiz-adv-x="715" 
d="M71 690c3 17 174 10 177 3c5 -18 -9 -284 -9 -386c0 -109 38 -150 115 -150c89 0 116 64 116 146c0 127 -7 349 -7 398c13 9 186 16 188 6c4 -18 8 -294 8 -415c0 -164 -61 -311 -302 -311c-188 0 -301 89 -301 305c0 97 6 350 15 404zM181 818c0 0 155 105 174 113
c8 -3 174 -112 174 -112s-28 -62 -42 -68c-3 -1 -79 36 -132 67c-55 -31 -127 -70 -129 -69c-14 6 -45 69 -45 69z" />
    <glyph glyph-name="Utilde" unicode="&#x168;" horiz-adv-x="715" 
d="M71 690c3 17 174 10 177 3c5 -18 -9 -284 -9 -386c0 -109 38 -150 115 -150c89 0 116 64 116 146c0 127 -7 349 -7 398c13 9 186 16 188 6c4 -18 8 -294 8 -415c0 -164 -61 -311 -302 -311c-188 0 -301 89 -301 305c0 97 6 350 15 404zM172 864c19 25 55 52 102 52
c58 0 102 -57 157 -57c33 0 52 21 68 37c8 -2 32 -61 34 -86c0 0 -31 -55 -103 -55c-59 0 -110 53 -164 53c-29 0 -54 -20 -67 -32c-6 -5 -27 78 -27 88z" />
    <glyph glyph-name="Udieresis" unicode="&#xdc;" horiz-adv-x="715" 
d="M71 690c3 17 174 10 177 3c5 -18 -9 -284 -9 -386c0 -109 38 -150 115 -150c89 0 116 64 116 146c0 127 -7 349 -7 398c13 9 186 16 188 6c4 -18 8 -294 8 -415c0 -164 -61 -311 -302 -311c-188 0 -301 89 -301 305c0 97 6 350 15 404zM470 766c-53 0 -80 30 -81 76
c-1 48 32 79 72 79c41 0 78 -36 78 -75c0 -41 -18 -80 -69 -80zM248 766c-52 0 -79 30 -81 76c-1 48 32 79 72 79c41 0 78 -36 78 -75c0 -41 -18 -80 -69 -80z" />
    <glyph glyph-name="Umacron" unicode="&#x16a;" horiz-adv-x="715" 
d="M71 690c3 17 174 10 177 3c5 -18 -9 -284 -9 -386c0 -109 38 -150 115 -150c89 0 116 64 116 146c0 127 -7 349 -7 398c13 9 186 16 188 6c4 -18 8 -294 8 -415c0 -164 -61 -311 -302 -311c-188 0 -301 89 -301 305c0 97 6 350 15 404zM196 777c-7 0 -4 92 0 94
c3 2 318 11 320 4c1 -6 -3 -91 -6 -91s-308 -7 -314 -7z" />
    <glyph glyph-name="Ubreve" unicode="&#x16c;" horiz-adv-x="715" 
d="M71 690c3 17 174 10 177 3c5 -18 -9 -284 -9 -386c0 -109 38 -150 115 -150c89 0 116 64 116 146c0 127 -7 349 -7 398c13 9 186 16 188 6c4 -18 8 -294 8 -415c0 -164 -61 -311 -302 -311c-188 0 -301 89 -301 305c0 97 6 350 15 404zM359 759c-80 0 -143 38 -180 91
c0 12 31 43 60 58c24 -23 66 -52 122 -52c47 0 87 28 110 49c16 -5 54 -47 57 -55c-25 -41 -93 -91 -169 -91z" />
    <glyph glyph-name="Uring" unicode="&#x16e;" horiz-adv-x="715" 
d="M71 690c3 17 174 10 177 3c5 -18 -9 -284 -9 -386c0 -109 38 -150 115 -150c89 0 116 64 116 146c0 127 -7 349 -7 398c13 9 186 16 188 6c4 -18 8 -294 8 -415c0 -164 -61 -311 -302 -311c-188 0 -301 89 -301 305c0 97 6 350 15 404zM356 730c-64 0 -107 32 -107 100
s48 96 107 96c55 0 99 -36 99 -97c0 -50 -30 -99 -99 -99zM354 791c21 0 37 12 37 36c0 18 -12 38 -37 38c-31 0 -42 -19 -42 -38c0 -23 23 -36 42 -36z" />
    <glyph glyph-name="Uhungarumlaut" unicode="&#x170;" horiz-adv-x="715" 
d="M71 690c3 17 174 10 177 3c5 -18 -9 -284 -9 -386c0 -109 38 -150 115 -150c89 0 116 64 116 146c0 127 -7 349 -7 398c13 9 186 16 188 6c4 -18 8 -294 8 -415c0 -164 -61 -311 -302 -311c-188 0 -301 89 -301 305c0 97 6 350 15 404zM392 768c-2 3 69 163 72 164
c-4 2 115 -15 113 -16c-2 -2 -103 -161 -103 -161s-80 10 -82 13zM305 757c-2 0 -61 11 -65 15c-5 4 28 154 27 154c23 6 116 -11 116 -12s-76 -157 -78 -157z" />
    <glyph glyph-name="Uogonek" unicode="&#x172;" horiz-adv-x="716" 
d="M254 -119c0 45 27 78 59 102c-162 13 -257 105 -257 303c0 97 6 350 15 404c3 17 174 10 177 3c5 -18 -9 -284 -9 -386c0 -109 38 -150 115 -150c89 0 116 64 116 146c0 127 -7 349 -7 398c13 9 186 16 188 6c4 -18 8 -294 8 -415c0 -145 -48 -279 -230 -306
c-35 -21 -67 -47 -67 -72c0 -18 10 -30 29 -30c24 0 50 20 50 20c5 1 51 -59 44 -67c-22 -25 -72 -61 -128 -61c-58 0 -103 44 -103 105z" />
    <glyph glyph-name="Wacute" unicode="&#x1e82;" horiz-adv-x="956" 
d="M482 434h-6c-40 -160 -108 -412 -122 -434c-9 -12 -166 -9 -186 -4c-9 4 -142 650 -142 688c12 19 167 31 169 24c6 -25 72 -343 85 -462h4c26 116 98 385 123 454c18 5 145 6 152 -2c12 -27 92 -351 113 -454h4c13 102 76 401 91 459c33 4 169 -11 170 -23
c-5 -51 -138 -637 -151 -678c-7 -16 -160 -14 -181 -8c-16 35 -90 296 -123 440zM665 846c-3 -1 -227 -103 -231 -102c-17 6 -45 76 -45 76s219 118 224 116c10 -1 55 -89 52 -90z" />
    <glyph glyph-name="Wcircumflex" unicode="&#x174;" horiz-adv-x="956" 
d="M482 434h-6c-40 -160 -108 -412 -122 -434c-9 -12 -166 -9 -186 -4c-9 4 -142 650 -142 688c12 19 167 31 169 24c6 -25 72 -343 85 -462h4c26 116 98 385 123 454c18 5 145 6 152 -2c12 -27 92 -351 113 -454h4c13 102 76 401 91 459c33 4 169 -11 170 -23
c-5 -51 -138 -637 -151 -678c-7 -16 -160 -14 -181 -8c-16 35 -90 296 -123 440zM306 818c0 0 155 105 174 113c8 -3 174 -112 174 -112s-28 -62 -42 -68c-3 -1 -79 36 -132 67c-55 -31 -127 -70 -129 -69c-14 6 -45 69 -45 69z" />
    <glyph glyph-name="Wdieresis" unicode="&#x1e84;" horiz-adv-x="956" 
d="M482 434h-6c-40 -160 -108 -412 -122 -434c-9 -12 -166 -9 -186 -4c-9 4 -142 650 -142 688c12 19 167 31 169 24c6 -25 72 -343 85 -462h4c26 116 98 385 123 454c18 5 145 6 152 -2c12 -27 92 -351 113 -454h4c13 102 76 401 91 459c33 4 169 -11 170 -23
c-5 -51 -138 -637 -151 -678c-7 -16 -160 -14 -181 -8c-16 35 -90 296 -123 440zM598 766c-53 0 -80 30 -81 76c-1 48 32 79 72 79c41 0 78 -36 78 -75c0 -41 -18 -80 -69 -80zM376 766c-52 0 -79 30 -81 76c-1 48 32 79 72 79c41 0 78 -36 78 -75c0 -41 -18 -80 -69 -80z
" />
    <glyph glyph-name="Wgrave" unicode="&#x1e80;" horiz-adv-x="956" 
d="M482 434h-6c-40 -160 -108 -412 -122 -434c-9 -12 -166 -9 -186 -4c-9 4 -142 650 -142 688c12 19 167 31 169 24c6 -25 72 -343 85 -462h4c26 116 98 385 123 454c18 5 145 6 152 -2c12 -27 92 -351 113 -454h4c13 102 76 401 91 459c33 4 169 -11 170 -23
c-5 -51 -138 -637 -151 -678c-7 -16 -160 -14 -181 -8c-16 35 -90 296 -123 440zM311 846c-3 1 43 89 53 90c5 2 224 -116 224 -116s-29 -70 -46 -76c-4 -1 -228 101 -231 102z" />
    <glyph glyph-name="Yacute" unicode="&#xdd;" horiz-adv-x="629" 
d="M629 658c0 -13 -196 -341 -225 -390c1 -105 2 -232 -3 -268c-6 -18 -181 -9 -181 -1c-4 46 0 162 2 271c-31 55 -212 375 -211 387s151 56 163 52c5 -3 104 -189 139 -270h6c43 79 143 269 150 270c11 1 159 -39 160 -51zM498 846c-3 -1 -227 -103 -231 -102
c-17 6 -45 76 -45 76s219 118 224 116c10 -1 55 -89 52 -90z" />
    <glyph glyph-name="Ycircumflex" unicode="&#x176;" horiz-adv-x="629" 
d="M629 658c0 -13 -196 -341 -225 -390c1 -105 2 -232 -3 -268c-6 -18 -181 -9 -181 -1c-4 46 0 162 2 271c-31 55 -212 375 -211 387s151 56 163 52c5 -3 104 -189 139 -270h6c43 79 143 269 150 270c11 1 159 -39 160 -51zM146 818c0 0 155 105 174 113
c8 -3 174 -112 174 -112s-28 -62 -42 -68c-3 -1 -79 36 -132 67c-55 -31 -127 -70 -129 -69c-14 6 -45 69 -45 69z" />
    <glyph glyph-name="Ydieresis" unicode="&#x178;" horiz-adv-x="629" 
d="M629 658c0 -13 -196 -341 -225 -390c1 -105 2 -232 -3 -268c-6 -18 -181 -9 -181 -1c-4 46 0 162 2 271c-31 55 -212 375 -211 387s151 56 163 52c5 -3 104 -189 139 -270h6c43 79 143 269 150 270c11 1 159 -39 160 -51zM435 766c-53 0 -80 30 -81 76c-1 48 32 79 72 79
c41 0 78 -36 78 -75c0 -41 -18 -80 -69 -80zM213 766c-52 0 -79 30 -81 76c-1 48 32 79 72 79c41 0 78 -36 78 -75c0 -41 -18 -80 -69 -80z" />
    <glyph glyph-name="Ygrave" unicode="&#x1ef2;" horiz-adv-x="629" 
d="M629 658c0 -13 -196 -341 -225 -390c1 -105 2 -232 -3 -268c-6 -18 -181 -9 -181 -1c-4 46 0 162 2 271c-31 55 -212 375 -211 387s151 56 163 52c5 -3 104 -189 139 -270h6c43 79 143 269 150 270c11 1 159 -39 160 -51zM142 846c-3 1 43 89 53 90
c5 2 224 -116 224 -116s-29 -70 -46 -76c-4 -1 -228 101 -231 102z" />
    <glyph glyph-name="Zacute" unicode="&#x179;" horiz-adv-x="573" 
d="M265 157v-3c29 1 257 1 271 -3c5 -2 3 -146 -3 -150c-8 -5 -488 -7 -490 -2c-10 27 -10 143 -9 146c2 4 246 359 275 397l1 4c-24 0 -260 -1 -266 0c-3 1 -15 151 -4 154c13 4 480 5 485 4c3 -2 17 -141 14 -152c-1 -3 -247 -363 -274 -395zM450 846
c-3 -1 -227 -103 -231 -102c-17 6 -45 76 -45 76s219 118 224 116c10 -1 55 -89 52 -90z" />
    <glyph glyph-name="Zcaron" unicode="&#x17d;" horiz-adv-x="573" 
d="M265 157v-3c29 1 257 1 271 -3c5 -2 3 -146 -3 -150c-8 -5 -488 -7 -490 -2c-10 27 -10 143 -9 146c2 4 246 359 275 397l1 4c-24 0 -260 -1 -266 0c-3 1 -15 151 -4 154c13 4 480 5 485 4c3 -2 17 -141 14 -152c-1 -3 -247 -363 -274 -395zM119 858c0 0 31 64 45 70
c2 1 75 -40 130 -71c53 31 131 69 134 68c14 -6 41 -67 41 -67s-167 -110 -175 -113c-19 8 -175 113 -175 113z" />
    <glyph glyph-name="Zdotaccent" unicode="&#x17b;" horiz-adv-x="573" 
d="M265 157v-3c29 1 257 1 271 -3c5 -2 3 -146 -3 -150c-8 -5 -488 -7 -490 -2c-10 27 -10 143 -9 146c2 4 246 359 275 397l1 4c-24 0 -260 -1 -266 0c-3 1 -15 151 -4 154c13 4 480 5 485 4c3 -2 17 -141 14 -152c-1 -3 -247 -363 -274 -395zM209 852c0 53 16 92 88 92
c54 0 92 -36 92 -98c0 -44 -38 -79 -92 -79c-52 0 -88 30 -88 85z" />
    <glyph glyph-name="agrave" unicode="&#xe0;" horiz-adv-x="499" 
d="M33 392c1 17 67 111 201 111c124 0 220 -73 220 -219c0 -107 -5 -273 -8 -279s-129 0 -129 0l-9 43c-7 -7 -49 -55 -128 -55c-109 0 -155 64 -155 151c0 90 79 147 179 147c46 0 74 -13 93 -27c1 43 3 102 -87 102c-62 0 -91 -44 -100 -45c-9 0 -78 60 -77 71zM159 147
c0 -33 28 -56 65 -56c44 0 66 26 66 56c0 35 -29 57 -66 57c-39 0 -65 -25 -65 -57zM106 638c-3 1 43 89 53 90c5 2 224 -116 224 -116s-29 -70 -46 -76c-4 -1 -228 101 -231 102z" />
    <glyph glyph-name="aacute" unicode="&#xe1;" horiz-adv-x="499" 
d="M33 392c1 17 67 111 201 111c124 0 220 -73 220 -219c0 -107 -5 -273 -8 -279s-129 0 -129 0l-9 43c-7 -7 -49 -55 -128 -55c-109 0 -155 64 -155 151c0 90 79 147 179 147c46 0 74 -13 93 -27c1 43 3 102 -87 102c-62 0 -91 -44 -100 -45c-9 0 -78 60 -77 71zM159 147
c0 -33 28 -56 65 -56c44 0 66 26 66 56c0 35 -29 57 -66 57c-39 0 -65 -25 -65 -57zM400 638c-3 -1 -227 -103 -231 -102c-17 6 -45 76 -45 76s219 118 224 116c10 -1 55 -89 52 -90z" />
    <glyph glyph-name="acircumflex" unicode="&#xe2;" horiz-adv-x="499" 
d="M33 392c1 17 67 111 201 111c124 0 220 -73 220 -219c0 -107 -5 -273 -8 -279s-129 0 -129 0l-9 43c-7 -7 -49 -55 -128 -55c-109 0 -155 64 -155 151c0 90 79 147 179 147c46 0 74 -13 93 -27c1 43 3 102 -87 102c-62 0 -91 -44 -100 -45c-9 0 -78 60 -77 71zM159 147
c0 -33 28 -56 65 -56c44 0 66 26 66 56c0 35 -29 57 -66 57c-39 0 -65 -25 -65 -57zM80 610c0 0 155 105 174 113c8 -3 174 -112 174 -112s-28 -62 -42 -68c-3 -1 -79 36 -132 67c-55 -31 -127 -70 -129 -69c-14 6 -45 69 -45 69z" />
    <glyph glyph-name="atilde" unicode="&#xe3;" horiz-adv-x="499" 
d="M33 392c1 17 67 111 201 111c124 0 220 -73 220 -219c0 -107 -5 -273 -8 -279s-129 0 -129 0l-9 43c-7 -7 -49 -55 -128 -55c-109 0 -155 64 -155 151c0 90 79 147 179 147c46 0 74 -13 93 -27c1 43 3 102 -87 102c-62 0 -91 -44 -100 -45c-9 0 -78 60 -77 71zM159 147
c0 -33 28 -56 65 -56c44 0 66 26 66 56c0 35 -29 57 -66 57c-39 0 -65 -25 -65 -57zM73 656c19 25 55 52 102 52c58 0 102 -57 157 -57c33 0 52 21 68 37c8 -2 32 -61 34 -86c0 0 -31 -55 -103 -55c-59 0 -110 53 -164 53c-29 0 -54 -20 -67 -32c-6 -5 -27 78 -27 88z" />
    <glyph glyph-name="adieresis" unicode="&#xe4;" horiz-adv-x="499" 
d="M33 392c1 17 67 111 201 111c124 0 220 -73 220 -219c0 -107 -5 -273 -8 -279s-129 0 -129 0l-9 43c-7 -7 -49 -55 -128 -55c-109 0 -155 64 -155 151c0 90 79 147 179 147c46 0 74 -13 93 -27c1 43 3 102 -87 102c-62 0 -91 -44 -100 -45c-9 0 -78 60 -77 71zM159 147
c0 -33 28 -56 65 -56c44 0 66 26 66 56c0 35 -29 57 -66 57c-39 0 -65 -25 -65 -57zM371 558c-53 0 -80 30 -81 76c-1 48 32 79 72 79c41 0 78 -36 78 -75c0 -41 -18 -80 -69 -80zM149 558c-52 0 -79 30 -81 76c-1 48 32 79 72 79c41 0 78 -36 78 -75c0 -41 -18 -80 -69 -80
z" />
    <glyph glyph-name="amacron" unicode="&#x101;" horiz-adv-x="499" 
d="M33 392c1 17 67 111 201 111c124 0 220 -73 220 -219c0 -107 -5 -273 -8 -279s-129 0 -129 0l-9 43c-7 -7 -49 -55 -128 -55c-109 0 -155 64 -155 151c0 90 79 147 179 147c46 0 74 -13 93 -27c1 43 3 102 -87 102c-62 0 -91 -44 -100 -45c-9 0 -78 60 -77 71zM159 147
c0 -33 28 -56 65 -56c44 0 66 26 66 56c0 35 -29 57 -66 57c-39 0 -65 -25 -65 -57zM96 569c-7 0 -4 92 0 94c3 2 318 11 320 4c1 -6 -3 -91 -6 -91s-308 -7 -314 -7z" />
    <glyph glyph-name="abreve" unicode="&#x103;" horiz-adv-x="499" 
d="M33 392c1 17 67 111 201 111c124 0 220 -73 220 -219c0 -107 -5 -273 -8 -279s-129 0 -129 0l-9 43c-7 -7 -49 -55 -128 -55c-109 0 -155 64 -155 151c0 90 79 147 179 147c46 0 74 -13 93 -27c1 43 3 102 -87 102c-62 0 -91 -44 -100 -45c-9 0 -78 60 -77 71zM159 147
c0 -33 28 -56 65 -56c44 0 66 26 66 56c0 35 -29 57 -66 57c-39 0 -65 -25 -65 -57zM259 551c-80 0 -143 38 -180 91c0 12 31 43 60 58c24 -23 66 -52 122 -52c47 0 87 28 110 49c16 -5 54 -47 57 -55c-25 -41 -93 -91 -169 -91z" />
    <glyph glyph-name="aring" unicode="&#xe5;" horiz-adv-x="499" 
d="M33 392c1 17 67 111 201 111c124 0 220 -73 220 -219c0 -107 -5 -273 -8 -279s-129 0 -129 0l-9 43c-7 -7 -49 -55 -128 -55c-109 0 -155 64 -155 151c0 90 79 147 179 147c46 0 74 -13 93 -27c1 43 3 102 -87 102c-62 0 -91 -44 -100 -45c-9 0 -78 60 -77 71zM159 147
c0 -33 28 -56 65 -56c44 0 66 26 66 56c0 35 -29 57 -66 57c-39 0 -65 -25 -65 -57zM259 544c-64 0 -107 32 -107 100s48 96 107 96c55 0 99 -36 99 -97c0 -50 -30 -99 -99 -99zM257 605c21 0 37 12 37 36c0 18 -12 38 -37 38c-31 0 -42 -19 -42 -38c0 -23 23 -36 42 -36z
" />
    <glyph glyph-name="aogonek" unicode="&#x105;" horiz-adv-x="499" 
d="M218 -119c0 64 56 107 98 128l-8 39c-7 -7 -49 -55 -128 -55c-109 0 -155 64 -155 151c0 90 79 147 179 147c46 0 74 -13 93 -27c1 43 3 102 -87 102c-62 0 -91 -44 -100 -45c-9 0 -78 60 -77 71c1 17 67 111 201 111c124 0 220 -73 220 -219c0 -107 -5 -273 -8 -279
c-44 -23 -120 -59 -120 -91c0 -18 10 -30 29 -30c23 0 49 20 49 20c6 1 52 -59 45 -67c-23 -25 -73 -61 -128 -61c-58 0 -103 44 -103 105zM159 147c0 -33 28 -56 65 -56c44 0 66 26 66 56c0 35 -29 57 -66 57c-39 0 -65 -25 -65 -57z" />
    <glyph glyph-name="ae" unicode="&#xe6;" horiz-adv-x="849" 
d="M527 204c0 -53 38 -86 107 -86c54 0 91 19 117 35c10 -10 51 -93 52 -108c-27 -25 -96 -57 -177 -57c-78 0 -136 23 -177 60c-1 -25 -2 -42 -3 -43c-3 -6 -129 0 -129 0l-9 43c-7 -7 -49 -55 -128 -55c-109 0 -155 64 -155 151c0 90 79 147 179 147c46 0 74 -13 93 -27
c1 43 3 102 -87 102c-62 0 -91 -44 -100 -45c-9 0 -78 60 -77 71c1 17 67 111 201 111c83 0 153 -33 190 -98c40 56 104 93 189 93c133 0 214 -100 214 -212c0 -31 -3 -57 -9 -77c-50 -7 -231 -7 -291 -5zM526 296l157 3c2 49 -23 87 -71 87c-52 0 -86 -39 -86 -90zM159 147
c0 -33 28 -56 65 -56c44 0 66 26 66 56c0 35 -29 57 -66 57c-39 0 -65 -25 -65 -57z" />
    <glyph glyph-name="aeacute" unicode="&#x1fd;" horiz-adv-x="849" 
d="M527 204c0 -53 38 -86 107 -86c54 0 91 19 117 35c10 -10 51 -93 52 -108c-27 -25 -96 -57 -177 -57c-78 0 -136 23 -177 60c-1 -25 -2 -42 -3 -43c-3 -6 -129 0 -129 0l-9 43c-7 -7 -49 -55 -128 -55c-109 0 -155 64 -155 151c0 90 79 147 179 147c46 0 74 -13 93 -27
c1 43 3 102 -87 102c-62 0 -91 -44 -100 -45c-9 0 -78 60 -77 71c1 17 67 111 201 111c83 0 153 -33 190 -98c40 56 104 93 189 93c133 0 214 -100 214 -212c0 -31 -3 -57 -9 -77c-50 -7 -231 -7 -291 -5zM526 296l157 3c2 49 -23 87 -71 87c-52 0 -86 -39 -86 -90zM159 147
c0 -33 28 -56 65 -56c44 0 66 26 66 56c0 35 -29 57 -66 57c-39 0 -65 -25 -65 -57zM588 638c-3 -1 -227 -103 -231 -102c-17 6 -45 76 -45 76s219 118 224 116c10 -1 55 -89 52 -90z" />
    <glyph glyph-name="cacute" unicode="&#x107;" horiz-adv-x="480" 
d="M184 240c0 -96 67 -113 110 -113c46 0 94 30 106 36c10 3 47 -69 60 -97c-26 -43 -95 -79 -172 -79c-188 0 -262 135 -262 261s97 250 259 250c106 0 171 -43 174 -53c3 -12 -25 -126 -43 -132c-7 -1 -59 44 -117 44c-71 0 -115 -40 -115 -117zM422 638
c-3 -1 -227 -103 -231 -102c-17 6 -45 76 -45 76s219 118 224 116c10 -1 55 -89 52 -90z" />
    <glyph glyph-name="ccircumflex" unicode="&#x109;" horiz-adv-x="480" 
d="M184 240c0 -96 67 -113 110 -113c46 0 94 30 106 36c10 3 47 -69 60 -97c-26 -43 -95 -79 -172 -79c-188 0 -262 135 -262 261s97 250 259 250c106 0 171 -43 174 -53c3 -12 -25 -126 -43 -132c-7 -1 -59 44 -117 44c-71 0 -115 -40 -115 -117zM106 610
c0 0 155 105 174 113c8 -3 174 -112 174 -112s-28 -62 -42 -68c-3 -1 -79 36 -132 67c-55 -31 -127 -70 -129 -69c-14 6 -45 69 -45 69z" />
    <glyph glyph-name="ccaron" unicode="&#x10d;" horiz-adv-x="480" 
d="M184 240c0 -96 67 -113 110 -113c46 0 94 30 106 36c10 3 47 -69 60 -97c-26 -43 -95 -79 -172 -79c-188 0 -262 135 -262 261s97 250 259 250c106 0 171 -43 174 -53c3 -12 -25 -126 -43 -132c-7 -1 -59 44 -117 44c-71 0 -115 -40 -115 -117zM102 650c0 0 31 64 45 70
c2 1 75 -40 130 -71c53 31 131 69 134 68c14 -6 41 -67 41 -67s-167 -110 -175 -113c-19 8 -175 113 -175 113z" />
    <glyph glyph-name="cdotaccent" unicode="&#x10b;" horiz-adv-x="480" 
d="M184 240c0 -96 67 -113 110 -113c46 0 94 30 106 36c10 3 47 -69 60 -97c-26 -43 -95 -79 -172 -79c-188 0 -262 135 -262 261s97 250 259 250c106 0 171 -43 174 -53c3 -12 -25 -126 -43 -132c-7 -1 -59 44 -117 44c-71 0 -115 -40 -115 -117zM188 652c0 53 16 92 88 92
c54 0 92 -36 92 -98c0 -44 -38 -79 -92 -79c-52 0 -88 30 -88 85z" />
    <glyph glyph-name="ccedilla" unicode="&#xe7;" horiz-adv-x="480" 
d="M184 240c0 -96 67 -113 110 -113c46 0 94 30 106 36c10 3 47 -69 60 -97c-22 -35 -71 -65 -130 -75c-13 -48 -44 -159 -48 -162c-8 -3 -126 24 -125 27c0 2 35 87 57 139c-134 30 -188 145 -188 253c0 126 97 250 259 250c106 0 171 -43 174 -53c3 -12 -25 -126 -43 -132
c-7 -1 -59 44 -117 44c-71 0 -115 -40 -115 -117z" />
    <glyph glyph-name="dcaron" unicode="&#x10f;" horiz-adv-x="715" 
d="M248 -3c-113 0 -220 88 -220 254c0 156 115 242 232 243c66 0 121 -40 129 -53c0 33 -2 301 7 307c9 7 146 13 166 3c2 -1 -10 -741 -13 -752c-3 -3 -112 -13 -148 1c0 7 -2 48 -3 55c-8 -12 -66 -58 -150 -58zM200 245c0 -68 43 -104 98 -104c67 0 99 45 99 105
c0 66 -45 104 -99 104c-63 0 -98 -43 -98 -105zM762 632c0 -68 -32 -128 -64 -176c-2 -4 -62 11 -75 29c-2 3 22 42 34 66c-38 4 -73 34 -73 79c0 54 35 87 99 83c39 -2 79 -21 79 -81z" />
    <glyph glyph-name="dcroat" unicode="&#x111;" horiz-adv-x="608" 
d="M627 662c8 -20 -1 -107 -4 -107c-1 -1 -39 -2 -63 -2c-3 -220 -9 -546 -11 -554c-3 -3 -112 -13 -148 1l-3 55c-8 -12 -46 -41 -105 -52c-18 -4 -37 -5 -57 -5c-91 4 -208 92 -208 253c0 156 125 242 232 243c66 0 121 -40 129 -53c0 14 -1 61 -1 109
c-50 -1 -92 -1 -102 0c-16 11 -17 103 -13 105c1 0 55 2 116 4c1 49 3 86 7 89c9 7 146 13 166 3c0 -19 0 -50 -1 -88c24 0 64 -1 66 -1zM200 245c0 -68 43 -104 98 -104c67 0 99 45 99 105c0 66 -45 104 -99 104c-63 0 -98 -43 -98 -105z" />
    <glyph glyph-name="eth" unicode="&#xf0;" horiz-adv-x="565" 
d="M393 714c14 -10 41 -74 39 -76c0 0 -18 -15 -34 -26c71 -72 135 -181 135 -326c0 -210 -134 -297 -254 -297c-142 0 -256 77 -256 241c0 158 106 222 197 222c51 0 87 -15 113 -36l3 4c-6 42 -35 82 -75 113c-35 -22 -66 -40 -71 -44c-18 0 -56 64 -53 67l47 33
c-16 9 -34 17 -52 23c9 30 102 103 119 103c20 -7 48 -20 78 -41c31 19 63 41 64 40zM363 232c0 48 -28 99 -96 99c-65 0 -93 -51 -93 -105c0 -55 33 -99 98 -99c63 0 91 48 91 105z" />
    <glyph glyph-name="egrave" unicode="&#xe8;" horiz-adv-x="504" 
d="M182 204c0 -53 38 -86 107 -86c54 0 91 19 117 35c10 -10 51 -93 52 -108c-27 -25 -96 -57 -177 -57c-181 0 -254 121 -254 249c0 135 84 261 241 261c133 0 214 -100 214 -212c0 -31 -3 -57 -9 -77c-50 -7 -231 -7 -291 -5zM181 296l157 3c2 49 -23 87 -71 87
c-52 0 -86 -39 -86 -90zM121 638c-3 1 43 89 53 90c5 2 224 -116 224 -116s-29 -70 -46 -76c-4 -1 -228 101 -231 102z" />
    <glyph glyph-name="eacute" unicode="&#xe9;" horiz-adv-x="504" 
d="M182 204c0 -53 38 -86 107 -86c54 0 91 19 117 35c10 -10 51 -93 52 -108c-27 -25 -96 -57 -177 -57c-181 0 -254 121 -254 249c0 135 84 261 241 261c133 0 214 -100 214 -212c0 -31 -3 -57 -9 -77c-50 -7 -231 -7 -291 -5zM181 296l157 3c2 49 -23 87 -71 87
c-52 0 -86 -39 -86 -90zM409 638c-3 -1 -227 -103 -231 -102c-17 6 -45 76 -45 76s219 118 224 116c10 -1 55 -89 52 -90z" />
    <glyph glyph-name="ecircumflex" unicode="&#xea;" horiz-adv-x="504" 
d="M182 204c0 -53 38 -86 107 -86c54 0 91 19 117 35c10 -10 51 -93 52 -108c-27 -25 -96 -57 -177 -57c-181 0 -254 121 -254 249c0 135 84 261 241 261c133 0 214 -100 214 -212c0 -31 -3 -57 -9 -77c-50 -7 -231 -7 -291 -5zM181 296l157 3c2 49 -23 87 -71 87
c-52 0 -86 -39 -86 -90zM96 610c0 0 155 105 174 113c8 -3 174 -112 174 -112s-28 -62 -42 -68c-3 -1 -79 36 -132 67c-55 -31 -127 -70 -129 -69c-14 6 -45 69 -45 69z" />
    <glyph glyph-name="ecaron" unicode="&#x11b;" horiz-adv-x="504" 
d="M182 204c0 -53 38 -86 107 -86c54 0 91 19 117 35c10 -10 51 -93 52 -108c-27 -25 -96 -57 -177 -57c-181 0 -254 121 -254 249c0 135 84 261 241 261c133 0 214 -100 214 -212c0 -31 -3 -57 -9 -77c-50 -7 -231 -7 -291 -5zM181 296l157 3c2 49 -23 87 -71 87
c-52 0 -86 -39 -86 -90zM95 650c0 0 31 64 45 70c2 1 75 -40 130 -71c53 31 131 69 134 68c14 -6 41 -67 41 -67s-167 -110 -175 -113c-19 8 -175 113 -175 113z" />
    <glyph glyph-name="edieresis" unicode="&#xeb;" horiz-adv-x="504" 
d="M182 204c0 -53 38 -86 107 -86c54 0 91 19 117 35c10 -10 51 -93 52 -108c-27 -25 -96 -57 -177 -57c-181 0 -254 121 -254 249c0 135 84 261 241 261c133 0 214 -100 214 -212c0 -31 -3 -57 -9 -77c-50 -7 -231 -7 -291 -5zM181 296l157 3c2 49 -23 87 -71 87
c-52 0 -86 -39 -86 -90zM386 558c-53 0 -80 30 -81 76c-1 48 32 79 72 79c41 0 78 -36 78 -75c0 -41 -18 -80 -69 -80zM164 558c-52 0 -79 30 -81 76c-1 48 32 79 72 79c41 0 78 -36 78 -75c0 -41 -18 -80 -69 -80z" />
    <glyph glyph-name="emacron" unicode="&#x113;" horiz-adv-x="504" 
d="M182 204c0 -53 38 -86 107 -86c54 0 91 19 117 35c10 -10 51 -93 52 -108c-27 -25 -96 -57 -177 -57c-181 0 -254 121 -254 249c0 135 84 261 241 261c133 0 214 -100 214 -212c0 -31 -3 -57 -9 -77c-50 -7 -231 -7 -291 -5zM181 296l157 3c2 49 -23 87 -71 87
c-52 0 -86 -39 -86 -90zM112 569c-7 0 -4 92 0 94c3 2 318 11 320 4c1 -6 -3 -91 -6 -91s-308 -7 -314 -7z" />
    <glyph glyph-name="ebreve" unicode="&#x115;" horiz-adv-x="504" 
d="M182 204c0 -53 38 -86 107 -86c54 0 91 19 117 35c10 -10 51 -93 52 -108c-27 -25 -96 -57 -177 -57c-181 0 -254 121 -254 249c0 135 84 261 241 261c133 0 214 -100 214 -212c0 -31 -3 -57 -9 -77c-50 -7 -231 -7 -291 -5zM181 296l157 3c2 49 -23 87 -71 87
c-52 0 -86 -39 -86 -90zM275 551c-80 0 -143 38 -180 91c0 12 31 43 60 58c24 -23 66 -52 122 -52c47 0 87 28 110 49c16 -5 54 -47 57 -55c-25 -41 -93 -91 -169 -91z" />
    <glyph glyph-name="edotaccent" unicode="&#x117;" horiz-adv-x="504" 
d="M182 204c0 -53 38 -86 107 -86c54 0 91 19 117 35c10 -10 51 -93 52 -108c-27 -25 -96 -57 -177 -57c-181 0 -254 121 -254 249c0 135 84 261 241 261c133 0 214 -100 214 -212c0 -31 -3 -57 -9 -77c-50 -7 -231 -7 -291 -5zM181 296l157 3c2 49 -23 87 -71 87
c-52 0 -86 -39 -86 -90zM179 652c0 53 16 92 88 92c54 0 92 -36 92 -98c0 -44 -38 -79 -92 -79c-52 0 -88 30 -88 85z" />
    <glyph glyph-name="eogonek" unicode="&#x119;" horiz-adv-x="504" 
d="M191 -109c0 43 25 76 55 99c-155 14 -219 127 -219 247c0 135 84 261 241 261c133 0 214 -100 214 -212c0 -31 -3 -57 -9 -77c-50 -7 -231 -7 -291 -5c0 -53 38 -86 107 -86c54 0 91 19 117 35c10 -10 51 -93 52 -108c-15 -14 -44 -27 -79 -42c-42 -18 -80 -51 -80 -79
c0 -18 10 -30 29 -30c24 0 50 20 50 20c5 1 51 -59 44 -67c-22 -25 -72 -61 -128 -61c-58 0 -103 44 -103 105zM181 296l157 3c2 49 -23 87 -71 87c-52 0 -86 -39 -86 -90z" />
    <glyph glyph-name="gcircumflex" unicode="&#x11d;" horiz-adv-x="606" 
d="M408 490c16 12 137 4 140 1c2 -11 8 -329 9 -390c3 -264 -130 -324 -255 -324c-119 0 -202 50 -214 72c9 32 34 85 50 107c5 5 58 -44 143 -44c86 0 117 63 115 150c-8 -14 -48 -59 -137 -59c-107 0 -231 81 -231 236c0 156 113 254 234 254c63 0 113 -25 144 -57
c0 6 2 48 2 54zM201 239c0 -63 34 -105 97 -105c54 0 100 38 100 104c0 60 -32 105 -100 105c-54 0 -97 -36 -97 -104zM135 610c0 0 155 105 174 113c8 -3 174 -112 174 -112s-28 -62 -42 -68c-3 -1 -79 36 -132 67c-55 -31 -127 -70 -129 -69c-14 6 -45 69 -45 69z" />
    <glyph glyph-name="gbreve" unicode="&#x11f;" horiz-adv-x="606" 
d="M408 490c16 12 137 4 140 1c2 -11 8 -329 9 -390c3 -264 -130 -324 -255 -324c-119 0 -202 50 -214 72c9 32 34 85 50 107c5 5 58 -44 143 -44c86 0 117 63 115 150c-8 -14 -48 -59 -137 -59c-107 0 -231 81 -231 236c0 156 113 254 234 254c63 0 113 -25 144 -57
c0 6 2 48 2 54zM201 239c0 -63 34 -105 97 -105c54 0 100 38 100 104c0 60 -32 105 -100 105c-54 0 -97 -36 -97 -104zM314 551c-80 0 -143 38 -180 91c0 12 31 43 60 58c24 -23 66 -52 122 -52c47 0 87 28 110 49c16 -5 54 -47 57 -55c-25 -41 -93 -91 -169 -91z" />
    <glyph glyph-name="gdotaccent" unicode="&#x121;" horiz-adv-x="606" 
d="M408 490c16 12 137 4 140 1c2 -11 8 -329 9 -390c3 -264 -130 -324 -255 -324c-119 0 -202 50 -214 72c9 32 34 85 50 107c5 5 58 -44 143 -44c86 0 117 63 115 150c-8 -14 -48 -59 -137 -59c-107 0 -231 81 -231 236c0 156 113 254 234 254c63 0 113 -25 144 -57
c0 6 2 48 2 54zM201 239c0 -63 34 -105 97 -105c54 0 100 38 100 104c0 60 -32 105 -100 105c-54 0 -97 -36 -97 -104zM219 652c0 53 16 92 88 92c54 0 92 -36 92 -98c0 -44 -38 -79 -92 -79c-52 0 -88 30 -88 85z" />
    <glyph glyph-name="gcommaaccent" unicode="&#x123;" horiz-adv-x="606" 
d="M408 490c16 12 137 4 140 1c2 -11 8 -329 9 -390c3 -264 -130 -324 -255 -324c-119 0 -202 50 -214 72c9 32 34 85 50 107c5 5 58 -44 143 -44c86 0 117 63 115 150c-8 -14 -48 -59 -137 -59c-107 0 -231 81 -231 236c0 156 113 254 234 254c63 0 113 -25 144 -57
c0 6 2 48 2 54zM201 239c0 -63 34 -105 97 -105c54 0 100 38 100 104c0 60 -32 105 -100 105c-54 0 -97 -36 -97 -104zM220 643c0 67 33 128 64 176c2 3 63 -11 76 -30c1 -2 -23 -41 -35 -65c39 -5 73 -34 73 -79c0 -55 -34 -87 -99 -84c-38 2 -79 22 -79 82z" />
    <glyph glyph-name="hcircumflex" unicode="&#x125;" horiz-adv-x="588" 
d="M55 749c6 6 154 19 158 -3c3 -25 -2 -281 -5 -306c22 30 61 60 131 60c136 0 204 -86 204 -215c0 -67 -8 -263 -14 -282c-5 -9 -153 -8 -155 -6c-2 11 1 235 1 271c0 42 -23 91 -75 91c-55 0 -85 -43 -85 -82c0 -34 -1 -277 -4 -280c-3 -4 -152 -2 -155 4s-6 693 -1 748z
M117 862c0 0 155 105 174 113c8 -3 174 -112 174 -112s-28 -62 -42 -68c-3 -1 -79 36 -132 67c-55 -31 -127 -70 -129 -69c-14 6 -45 69 -45 69z" />
    <glyph glyph-name="hbar" unicode="&#x127;" horiz-adv-x="588" 
d="M8 566c-8 0 -5 87 0 89c1 0 18 1 45 2c0 48 1 83 3 92c6 6 154 19 158 -3c0 -17 1 -48 0 -86c66 1 125 1 126 -1c2 -7 -3 -86 -6 -86c-1 0 -58 -1 -121 -3l-4 -130c21 30 61 60 131 60c136 0 203 -86 203 -215c0 -67 -7 -263 -13 -282c-5 -9 -153 -8 -156 -6
c-1 11 2 235 2 271c0 43 -24 91 -76 91c-54 0 -84 -43 -84 -82c0 -34 -1 -277 -5 -280c-2 -4 -151 -2 -155 4c-2 4 -4 340 -3 566c-23 -1 -40 -1 -45 -1z" />
    <glyph glyph-name="dotlessi" unicode="&#x131;" horiz-adv-x="266" 
d="M53 493c6 10 158 4 162 0c3 -4 -5 -484 -8 -491c-4 -7 -147 -4 -149 -1s-11 481 -5 492z" />
    <glyph glyph-name="igrave" unicode="&#xec;" horiz-adv-x="266" 
d="M-17 638c-3 1 43 89 53 90c5 2 224 -116 224 -116s-29 -70 -46 -76c-4 -1 -228 101 -231 102zM53 493c6 10 158 4 162 0c3 -4 -5 -484 -8 -491c-4 -7 -147 -4 -149 -1s-11 481 -5 492z" />
    <glyph glyph-name="iacute" unicode="&#xed;" horiz-adv-x="266" 
d="M282 638c-3 -1 -227 -103 -231 -102c-17 6 -45 76 -45 76s219 118 224 116c10 -1 55 -89 52 -90zM53 493c6 10 158 4 162 0c3 -4 -5 -484 -8 -491c-4 -7 -147 -4 -149 -1s-11 481 -5 492z" />
    <glyph glyph-name="ibreve" unicode="&#x12d;" horiz-adv-x="266" 
d="M139 551c-80 0 -143 38 -180 91c0 12 31 43 60 58c24 -23 66 -52 122 -52c47 0 87 28 110 49c16 -5 54 -47 57 -55c-25 -41 -93 -91 -169 -91zM53 493c6 10 158 4 162 0c3 -4 -5 -484 -8 -491c-4 -7 -147 -4 -149 -1s-11 481 -5 492z" />
    <glyph glyph-name="icircumflex" unicode="&#xee;" horiz-adv-x="266" 
d="M-40 610c0 0 155 105 174 113c8 -3 174 -112 174 -112s-28 -62 -42 -68c-3 -1 -79 36 -132 67c-55 -31 -127 -70 -129 -69c-14 6 -45 69 -45 69zM53 493c6 10 158 4 162 0c3 -4 -5 -484 -8 -491c-4 -7 -147 -4 -149 -1s-11 481 -5 492z" />
    <glyph glyph-name="itilde" unicode="&#x129;" horiz-adv-x="266" 
d="M-47 656c19 25 55 52 102 52c58 0 102 -57 157 -57c33 0 52 21 68 37c8 -2 32 -61 34 -86c0 0 -31 -55 -103 -55c-59 0 -110 53 -164 53c-29 0 -54 -20 -67 -32c-6 -5 -27 78 -27 88zM53 493c6 10 158 4 162 0c3 -4 -5 -484 -8 -491c-4 -7 -147 -4 -149 -1
s-11 481 -5 492z" />
    <glyph glyph-name="idieresis" unicode="&#xef;" horiz-adv-x="266" 
d="M251 558c-53 0 -80 30 -81 76c-1 48 32 79 72 79c41 0 78 -36 78 -75c0 -41 -18 -80 -69 -80zM29 558c-52 0 -79 30 -81 76c-1 48 32 79 72 79c41 0 78 -36 78 -75c0 -41 -18 -80 -69 -80zM53 493c6 10 158 4 162 0c3 -4 -5 -484 -8 -491c-4 -7 -147 -4 -149 -1
s-11 481 -5 492z" />
    <glyph glyph-name="imacron" unicode="&#x12b;" horiz-adv-x="266" 
d="M-24 569c-7 0 -4 92 0 94c3 2 318 11 320 4c1 -6 -3 -91 -6 -91s-308 -7 -314 -7zM53 493c6 10 158 4 162 0c3 -4 -5 -484 -8 -491c-4 -7 -147 -4 -149 -1s-11 481 -5 492z" />
    <glyph glyph-name="iogonek" unicode="&#x12f;" horiz-adv-x="267" 
d="M-4 -119c0 57 43 95 83 119c-12 0 -21 0 -21 1c-2 3 -11 481 -5 492c6 10 158 4 162 0c3 -4 -2 -488 -8 -491c-45 -23 -103 -56 -103 -88c0 -18 10 -30 29 -30c24 0 50 20 50 20c5 1 51 -59 44 -67c-22 -25 -72 -61 -128 -61c-58 0 -103 44 -103 105zM47 652
c0 54 16 93 88 93c54 0 92 -37 92 -99c0 -44 -38 -78 -92 -78c-52 0 -88 29 -88 84z" />
    <glyph glyph-name="dotlessj" unicode="&#x237;" horiz-adv-x="268" 
d="M58 494c71 10 159 -4 163 -8c2 -3 -10 -296 -10 -485c0 -142 -70 -198 -144 -224c-7 -2 -77 46 -87 102c14 3 75 37 74 133c-1 186 -5 481 4 482z" />
    <glyph glyph-name="jcircumflex" unicode="&#x135;" horiz-adv-x="268" 
d="M58 494c71 10 159 -4 163 -8c2 -3 -10 -296 -10 -485c0 -142 -70 -198 -144 -224c-7 -2 -77 46 -87 102c14 3 75 37 74 133c-1 186 -5 481 4 482zM-43 610c0 0 155 105 174 113c8 -3 174 -112 174 -112s-28 -62 -42 -68c-3 -1 -79 36 -132 67c-55 -31 -127 -70 -129 -69
c-14 6 -45 69 -45 69z" />
    <glyph glyph-name="kcommaaccent" unicode="&#x137;" horiz-adv-x="550" 
d="M52 749c13 12 151 7 158 3c6 -4 -6 -426 -6 -426s198 186 208 186c9 0 116 -63 117 -77s-153 -147 -153 -147s172 -254 170 -262c-2 -7 -117 -56 -151 -51c-8 1 -134 230 -142 229s-42 -35 -42 -35l5 -178s-145 -1 -152 5c-8 6 -25 740 -12 753zM370 -139
c0 -68 -32 -128 -64 -176c-2 -4 -62 11 -75 29c-2 3 22 42 34 66c-38 4 -73 34 -73 79c0 54 35 87 99 83c39 -2 79 -21 79 -81z" />
    <glyph glyph-name="kgreenlandic" unicode="&#x138;" horiz-adv-x="551" 
d="M53 493c13 13 152 7 158 4c6 -4 -6 -191 -6 -191s198 206 208 206s116 -63 117 -77s-153 -167 -153 -167s172 -234 170 -242c-2 -7 -117 -56 -151 -51c-8 1 -134 210 -142 209s-41 -35 -41 -35l5 -158s-145 -1 -153 5s-25 485 -12 497z" />
    <glyph glyph-name="lacute" unicode="&#x13a;" horiz-adv-x="262" 
d="M65 748c14 13 145 11 148 4c7 -12 -7 -683 -12 -760c0 0 -135 -1 -143 4c-8 6 -8 739 7 752zM297 880c-3 -1 -227 -103 -231 -102c-17 6 -45 76 -45 76s219 118 224 116c10 -1 55 -89 52 -90z" />
    <glyph glyph-name="lcaron" unicode="&#x13e;" horiz-adv-x="367" 
d="M65 748c14 13 145 11 148 4c7 -12 -7 -683 -12 -760c0 0 -135 -1 -143 4c-8 6 -8 739 7 752zM418 632c0 -68 -32 -128 -64 -176c-2 -4 -62 11 -75 29c-2 3 22 42 34 66c-38 4 -73 34 -73 79c0 54 35 87 99 83c39 -2 79 -21 79 -81z" />
    <glyph glyph-name="lcommaaccent" unicode="&#x13c;" horiz-adv-x="262" 
d="M65 748c14 13 145 11 148 4c7 -12 -7 -683 -12 -760c0 0 -135 -1 -143 4c-8 6 -8 739 7 752zM217 -139c0 -68 -32 -128 -64 -176c-2 -4 -62 11 -75 29c-2 3 22 42 34 66c-38 4 -73 34 -73 79c0 54 35 87 99 83c39 -2 79 -21 79 -81z" />
    <glyph glyph-name="lslash" unicode="&#x142;" horiz-adv-x="330" 
d="M339 419l-104 -49c-4 -171 -9 -342 -11 -378c0 0 -134 -1 -142 4c-4 3 -6 146 -6 303c-25 -12 -44 -20 -45 -20c-17 6 -45 77 -45 77l90 46c1 174 6 340 13 346c14 13 144 11 148 4c3 -5 2 -126 -1 -268c31 15 53 25 54 25c10 -1 52 -89 49 -90z" />
    <glyph glyph-name="ldot" unicode="&#x140;" horiz-adv-x="410" 
d="M65 748c14 13 145 11 148 4c7 -12 -7 -683 -12 -760c0 0 -135 -1 -143 4c-8 6 -8 739 7 752zM430 390c0 -61 -37 -97 -106 -95c-41 1 -83 37 -83 92c0 61 37 99 106 95c41 -2 83 -25 83 -92z" />
    <glyph glyph-name="nacute" unicode="&#x144;" horiz-adv-x="582" 
d="M52 481c9 13 149 19 158 10c-1 -21 -2 -54 -3 -60c22 33 71 70 152 70c109 0 177 -87 177 -216c0 -67 -4 -236 -8 -285c-1 -10 -151 -8 -154 -6c-4 2 1 238 1 274c0 54 -24 92 -76 92c-55 0 -88 -43 -88 -82c0 -34 -1 -274 -4 -278s-149 -2 -152 4c-2 4 -6 265 -3 477z
M450 638c-3 -1 -227 -103 -231 -102c-17 6 -45 76 -45 76s219 118 224 116c10 -1 55 -89 52 -90z" />
    <glyph glyph-name="ncaron" unicode="&#x148;" horiz-adv-x="582" 
d="M52 481c9 13 149 19 158 10c-1 -21 -2 -54 -3 -60c22 33 71 70 152 70c109 0 177 -87 177 -216c0 -67 -4 -236 -8 -285c-1 -10 -151 -8 -154 -6c-4 2 1 238 1 274c0 54 -24 92 -76 92c-55 0 -88 -43 -88 -82c0 -34 -1 -274 -4 -278s-149 -2 -152 4c-2 4 -6 265 -3 477z
M120 650c0 0 31 64 45 70c2 1 75 -40 130 -71c53 31 131 69 134 68c14 -6 41 -67 41 -67s-167 -110 -175 -113c-19 8 -175 113 -175 113z" />
    <glyph glyph-name="ntilde" unicode="&#xf1;" horiz-adv-x="582" 
d="M52 481c9 13 149 19 158 10c-1 -21 -2 -54 -3 -60c22 33 71 70 152 70c109 0 177 -87 177 -216c0 -67 -4 -236 -8 -285c-1 -10 -151 -8 -154 -6c-4 2 1 238 1 274c0 54 -24 92 -76 92c-55 0 -88 -43 -88 -82c0 -34 -1 -274 -4 -278s-149 -2 -152 4c-2 4 -6 265 -3 477z
M114 656c19 25 55 52 102 52c58 0 102 -57 157 -57c33 0 52 21 68 37c8 -2 32 -61 34 -86c0 0 -31 -55 -103 -55c-59 0 -110 53 -164 53c-29 0 -54 -20 -67 -32c-6 -5 -27 78 -27 88z" />
    <glyph glyph-name="ncommaaccent" unicode="&#x146;" horiz-adv-x="582" 
d="M52 481c9 13 149 19 158 10c-1 -21 -2 -54 -3 -60c22 33 71 70 152 70c109 0 177 -87 177 -216c0 -67 -4 -236 -8 -285c-1 -10 -151 -8 -154 -6c-4 2 1 238 1 274c0 54 -24 92 -76 92c-55 0 -88 -43 -88 -82c0 -34 -1 -274 -4 -278s-149 -2 -152 4c-2 4 -6 265 -3 477z
M376 -139c0 -68 -32 -128 -64 -176c-2 -4 -62 11 -75 29c-2 3 22 42 34 66c-38 4 -73 34 -73 79c0 54 35 87 99 83c39 -2 79 -21 79 -81z" />
    <glyph glyph-name="napostrophe" unicode="&#x149;" horiz-adv-x="613" 
d="M84 481c9 13 149 19 158 10c-1 -21 -2 -54 -3 -60c22 33 71 70 152 70c109 0 177 -87 177 -216c0 -67 -4 -236 -8 -285c-1 -10 -151 -8 -154 -6c-4 2 1 238 1 274c0 54 -24 92 -76 92c-55 0 -88 -43 -88 -82c0 -34 -1 -274 -4 -278s-149 -2 -152 4c-2 4 -6 265 -3 477z
M167 684c0 -60 -29 -114 -57 -157c-2 -3 -56 10 -67 26c-2 3 19 38 30 59c-34 4 -65 30 -65 70c0 48 31 78 88 74c35 -1 71 -18 71 -72z" />
    <glyph glyph-name="ograve" unicode="&#xf2;" horiz-adv-x="559" 
d="M379 238c0 80 -46 105 -93 107c-71 2 -106 -43 -106 -108c0 -70 45 -108 92 -109c70 -2 107 40 107 110zM278 497c142 0 255 -96 255 -261c0 -129 -93 -245 -253 -248c-142 0 -254 98 -254 261c0 125 96 248 252 248zM133 638c-3 1 43 89 53 90c5 2 224 -116 224 -116
s-29 -70 -46 -76c-4 -1 -228 101 -231 102z" />
    <glyph glyph-name="oacute" unicode="&#xf3;" horiz-adv-x="559" 
d="M379 238c0 80 -46 105 -93 107c-71 2 -106 -43 -106 -108c0 -70 45 -108 92 -109c70 -2 107 40 107 110zM278 497c142 0 255 -96 255 -261c0 -129 -93 -245 -253 -248c-142 0 -254 98 -254 261c0 125 96 248 252 248zM430 638c-3 -1 -227 -103 -231 -102
c-17 6 -45 76 -45 76s219 118 224 116c10 -1 55 -89 52 -90z" />
    <glyph glyph-name="ocircumflex" unicode="&#xf4;" horiz-adv-x="559" 
d="M379 238c0 80 -46 105 -93 107c-71 2 -106 -43 -106 -108c0 -70 45 -108 92 -109c70 -2 107 40 107 110zM278 497c142 0 255 -96 255 -261c0 -129 -93 -245 -253 -248c-142 0 -254 98 -254 261c0 125 96 248 252 248zM110 610c0 0 155 105 174 113
c8 -3 174 -112 174 -112s-28 -62 -42 -68c-3 -1 -79 36 -132 67c-55 -31 -127 -70 -129 -69c-14 6 -45 69 -45 69z" />
    <glyph glyph-name="otilde" unicode="&#xf5;" horiz-adv-x="559" 
d="M379 238c0 80 -46 105 -93 107c-71 2 -106 -43 -106 -108c0 -70 45 -108 92 -109c70 -2 107 40 107 110zM278 497c142 0 255 -96 255 -261c0 -129 -93 -245 -253 -248c-142 0 -254 98 -254 261c0 125 96 248 252 248zM102 656c19 25 55 52 102 52c58 0 102 -57 157 -57
c33 0 52 21 68 37c8 -2 32 -61 34 -86c0 0 -31 -55 -103 -55c-59 0 -110 53 -164 53c-29 0 -54 -20 -67 -32c-6 -5 -27 78 -27 88z" />
    <glyph glyph-name="odieresis" unicode="&#xf6;" horiz-adv-x="559" 
d="M379 238c0 80 -46 105 -93 107c-71 2 -106 -43 -106 -108c0 -70 45 -108 92 -109c70 -2 107 40 107 110zM278 497c142 0 255 -96 255 -261c0 -129 -93 -245 -253 -248c-142 0 -254 98 -254 261c0 125 96 248 252 248zM402 558c-53 0 -80 30 -81 76c-1 48 32 79 72 79
c41 0 78 -36 78 -75c0 -41 -18 -80 -69 -80zM180 558c-52 0 -79 30 -81 76c-1 48 32 79 72 79c41 0 78 -36 78 -75c0 -41 -18 -80 -69 -80z" />
    <glyph glyph-name="omacron" unicode="&#x14d;" horiz-adv-x="559" 
d="M379 238c0 80 -46 105 -93 107c-71 2 -106 -43 -106 -108c0 -70 45 -108 92 -109c70 -2 107 40 107 110zM278 497c142 0 255 -96 255 -261c0 -129 -93 -245 -253 -248c-142 0 -254 98 -254 261c0 125 96 248 252 248zM126 569c-7 0 -4 92 0 94c3 2 318 11 320 4
c1 -6 -3 -91 -6 -91s-308 -7 -314 -7z" />
    <glyph glyph-name="obreve" unicode="&#x14f;" horiz-adv-x="559" 
d="M379 238c0 80 -46 105 -93 107c-71 2 -106 -43 -106 -108c0 -70 45 -108 92 -109c70 -2 107 40 107 110zM278 497c142 0 255 -96 255 -261c0 -129 -93 -245 -253 -248c-142 0 -254 98 -254 261c0 125 96 248 252 248zM290 551c-80 0 -143 38 -180 91c0 12 31 43 60 58
c24 -23 66 -52 122 -52c47 0 87 28 110 49c16 -5 54 -47 57 -55c-25 -41 -93 -91 -169 -91z" />
    <glyph glyph-name="ohungarumlaut" unicode="&#x151;" horiz-adv-x="559" 
d="M379 238c0 80 -46 105 -93 107c-71 2 -106 -43 -106 -108c0 -70 45 -108 92 -109c70 -2 107 40 107 110zM278 497c142 0 255 -96 255 -261c0 -129 -93 -245 -253 -248c-142 0 -254 98 -254 261c0 125 96 248 252 248zM321 566c-2 4 73 184 76 186c-4 1 121 -17 119 -19
s-109 -181 -109 -181s-84 11 -86 14zM229 555c-2 0 -64 12 -69 16s29 173 28 173c25 8 123 -12 123 -13s-80 -176 -82 -176z" />
    <glyph glyph-name="oslash" unicode="&#xf8;" horiz-adv-x="559" 
d="M44 22l42 49c-38 44 -60 105 -60 178c0 125 95 248 252 248c52 0 100 -13 140 -38c21 25 36 41 51 57c0 0 54 -34 52 -38c0 -1 -19 -21 -51 -62c38 -43 63 -105 63 -180c0 -129 -94 -245 -253 -248c-53 0 -101 14 -141 38c-27 -31 -46 -51 -47 -50c-8 5 -54 35 -48 46z
M385 238c0 26 -5 47 -13 62l-142 -169c12 -8 26 -11 41 -11c74 -1 114 43 114 118zM173 237c0 -21 4 -38 10 -52l136 160c-10 5 -21 7 -33 7c-75 3 -113 -45 -113 -115z" />
    <glyph glyph-name="oslashacute" unicode="&#x1ff;" horiz-adv-x="559" 
d="M44 22l42 49c-38 44 -60 105 -60 178c0 125 95 248 252 248c52 0 100 -13 140 -38c21 25 36 41 51 57c0 0 54 -34 52 -38c0 -1 -19 -21 -51 -62c38 -43 63 -105 63 -180c0 -129 -94 -245 -253 -248c-53 0 -101 14 -141 38c-27 -31 -46 -51 -47 -50c-8 5 -54 35 -48 46z
M385 238c0 26 -5 47 -13 62l-142 -169c12 -8 26 -11 41 -11c74 -1 114 43 114 118zM173 237c0 -21 4 -38 10 -52l136 160c-10 5 -21 7 -33 7c-75 3 -113 -45 -113 -115zM430 638c-3 -1 -227 -103 -231 -102c-17 6 -45 76 -45 76s219 118 224 116c10 -1 55 -89 52 -90z" />
    <glyph glyph-name="oe" unicode="&#x153;" horiz-adv-x="897" 
d="M575 204c0 -53 38 -86 108 -86c53 0 90 19 116 35c10 -10 51 -93 52 -108c-27 -25 -96 -57 -176 -57c-96 0 -163 35 -203 87c-42 -52 -107 -85 -192 -87c-142 0 -254 98 -254 261c0 125 96 248 252 248c81 0 151 -31 197 -90c40 54 102 91 187 91
c132 0 213 -100 213 -212c0 -31 -3 -57 -9 -77c-50 -7 -231 -7 -291 -5zM379 238c0 80 -46 105 -93 107c-71 2 -106 -43 -106 -108c0 -70 45 -108 92 -109c70 -2 107 40 107 110zM575 296l157 3c2 49 -24 87 -72 87c-51 0 -85 -39 -85 -90z" />
    <glyph glyph-name="racute" unicode="&#x155;" horiz-adv-x="401" 
d="M386 491c16 -9 -4 -147 -21 -167c-16 4 -49 11 -70 10c-46 -1 -70 -33 -76 -77c-2 -22 6 -255 2 -258c-2 -4 -164 -6 -167 0c-3 4 -3 462 1 481c9 16 147 21 156 12c1 -21 0 -63 0 -69c37 65 108 78 175 68zM349 638c-3 -1 -227 -103 -231 -102c-17 6 -45 76 -45 76
s219 118 224 116c10 -1 55 -89 52 -90z" />
    <glyph glyph-name="rcaron" unicode="&#x159;" horiz-adv-x="401" 
d="M386 491c16 -9 -4 -147 -21 -167c-16 4 -49 11 -70 10c-46 -1 -70 -33 -76 -77c-2 -22 6 -255 2 -258c-2 -4 -164 -6 -167 0c-3 4 -3 462 1 481c9 16 147 21 156 12c1 -21 0 -63 0 -69c37 65 108 78 175 68zM45 650c0 0 31 64 45 70c2 1 75 -40 130 -71
c53 31 131 69 134 68c14 -6 41 -67 41 -67s-167 -110 -175 -113c-19 8 -175 113 -175 113z" />
    <glyph glyph-name="rcommaaccent" unicode="&#x157;" horiz-adv-x="401" 
d="M386 491c16 -9 -4 -147 -21 -167c-16 4 -49 11 -70 10c-46 -1 -70 -33 -76 -77c-2 -22 6 -255 2 -258c-2 -4 -164 -6 -167 0c-3 4 -3 462 1 481c9 16 147 21 156 12c1 -21 0 -63 0 -69c37 65 108 78 175 68zM224 -139c0 -68 -32 -128 -64 -176c-2 -4 -62 11 -75 29
c-2 3 22 42 34 66c-38 4 -73 34 -73 79c0 54 35 87 99 83c39 -2 79 -21 79 -81z" />
    <glyph glyph-name="sacute" unicode="&#x15b;" horiz-adv-x="455" 
d="M233 -17c-100 0 -191 40 -205 55c-8 10 38 119 46 115c16 -8 78 -53 142 -53c40 0 60 14 60 36s-16 34 -81 46c-112 19 -164 66 -164 150c0 107 73 169 196 169c92 0 173 -31 186 -44c9 -9 -37 -114 -44 -115c-5 0 -69 39 -127 39c-39 0 -56 -19 -56 -39
c0 -22 17 -32 75 -40c119 -17 172 -58 172 -151c0 -88 -60 -168 -200 -168zM395 638c-3 -1 -227 -103 -231 -102c-17 6 -45 76 -45 76s219 118 224 116c10 -1 55 -89 52 -90z" />
    <glyph glyph-name="scircumflex" unicode="&#x15d;" horiz-adv-x="455" 
d="M233 -17c-100 0 -191 40 -205 55c-8 10 38 119 46 115c16 -8 78 -53 142 -53c40 0 60 14 60 36s-16 34 -81 46c-112 19 -164 66 -164 150c0 107 73 169 196 169c92 0 173 -31 186 -44c9 -9 -37 -114 -44 -115c-5 0 -69 39 -127 39c-39 0 -56 -19 -56 -39
c0 -22 17 -32 75 -40c119 -17 172 -58 172 -151c0 -88 -60 -168 -200 -168zM60 610c0 0 155 105 174 113c8 -3 174 -112 174 -112s-28 -62 -42 -68c-3 -1 -79 36 -132 67c-55 -31 -127 -70 -129 -69c-14 6 -45 69 -45 69z" />
    <glyph glyph-name="scaron" unicode="&#x161;" horiz-adv-x="456" 
d="M233 -17c-100 0 -191 40 -205 55c-8 10 38 119 46 115c16 -8 78 -53 142 -53c40 0 60 14 60 36s-16 34 -81 46c-112 19 -164 66 -164 150c0 107 73 169 196 169c92 0 173 -31 186 -44c9 -9 -37 -114 -44 -115c-5 0 -69 39 -127 39c-39 0 -56 -19 -56 -39
c0 -22 17 -32 75 -40c119 -17 172 -58 172 -151c0 -88 -60 -168 -200 -168zM58 650c0 0 31 64 45 70c2 1 75 -40 130 -71c53 31 131 69 134 68c14 -6 41 -67 41 -67s-167 -110 -175 -113c-19 8 -175 113 -175 113z" />
    <glyph glyph-name="scedilla" unicode="&#x15f;" horiz-adv-x="455" 
d="M433 151c0 -75 -45 -144 -144 -162c-13 -49 -43 -157 -47 -160c-8 -3 -126 24 -125 27c0 2 32 79 54 132c-74 10 -132 38 -143 50c-8 10 38 119 46 115c16 -8 78 -53 142 -53c40 0 60 14 60 36s-16 34 -81 46c-112 19 -164 66 -164 150c0 107 73 169 196 169
c92 0 173 -31 186 -44c9 -9 -37 -114 -44 -115c-5 0 -69 39 -127 39c-39 0 -56 -19 -56 -39c0 -22 17 -32 75 -40c119 -17 172 -58 172 -151z" />
    <glyph glyph-name="scommaaccent" unicode="&#x219;" horiz-adv-x="455" 
d="M233 -17c-100 0 -191 40 -205 55c-8 10 38 119 46 115c16 -8 78 -53 142 -53c40 0 60 14 60 36s-16 34 -81 46c-112 19 -164 66 -164 150c0 107 73 169 196 169c92 0 173 -31 186 -44c9 -9 -37 -114 -44 -115c-5 0 -69 39 -127 39c-39 0 -56 -19 -56 -39
c0 -22 17 -32 75 -40c119 -17 172 -58 172 -151c0 -88 -60 -168 -200 -168zM320 -139c0 -68 -32 -128 -64 -176c-2 -4 -62 11 -75 29c-2 3 22 42 34 66c-38 4 -73 34 -73 79c0 54 35 87 99 83c39 -2 79 -21 79 -81z" />
    <glyph glyph-name="germandbls" unicode="&#xdf;" horiz-adv-x="606" 
d="M214 5c0 0 -138 -13 -157 -3c-2 2 -6 390 -6 476c0 139 79 249 253 249c163 0 253 -95 253 -199c0 -95 -79 -137 -79 -172c0 -34 109 -63 109 -174c0 -155 -146 -195 -242 -207c0 0 -44 76 -55 131c69 9 109 25 109 81s-92 89 -92 162c0 76 80 108 80 164
c0 37 -34 69 -86 69c-51 0 -85 -33 -86 -101c-6 -136 2 -459 -1 -476z" />
    <glyph glyph-name="tcaron" unicode="&#x165;" horiz-adv-x="487" 
d="M248 360c0 -5 -3 -119 -4 -177c0 -32 17 -53 49 -54c35 0 60 24 73 22c12 -3 34 -94 35 -115c0 0 -42 -50 -146 -49c-115 0 -171 62 -171 160c1 47 7 219 7 220s-64 0 -69 5s-6 121 0 122c4 1 71 -2 74 1c3 4 -3 108 6 117s147 18 152 13s-4 -134 -2 -134
c2 1 112 6 122 -7c10 -14 2 -115 2 -115c-7 -12 -128 -1 -128 -9zM532 632c0 -68 -32 -128 -64 -176c-2 -4 -62 11 -75 29c-2 3 22 42 34 66c-38 4 -73 34 -73 79c0 54 35 87 99 83c39 -2 79 -21 79 -81z" />
    <glyph glyph-name="tcommaaccent" unicode="&#x163;" horiz-adv-x="406" 
d="M248 360c0 -5 -3 -119 -4 -177c0 -32 17 -53 49 -54c35 0 60 24 73 22c12 -3 34 -94 35 -115c0 0 -32 -39 -110 -47c-14 -49 -43 -157 -47 -160c-8 -3 -126 24 -125 27c0 2 36 91 59 143c-64 22 -94 75 -94 148c1 47 7 219 7 220s-64 0 -69 5s-6 121 0 122
c4 1 71 -2 74 1c3 4 -3 108 6 117s147 18 152 13s-4 -134 -2 -134c2 1 112 6 122 -7c10 -14 2 -115 2 -115c-7 -12 -128 -1 -128 -9z" />
    <glyph glyph-name="uni021B" unicode="&#x21b;" horiz-adv-x="406" 
d="M248 360c0 -5 -3 -119 -4 -177c0 -32 17 -53 49 -54c35 0 60 24 73 22c12 -3 34 -94 35 -115c0 0 -42 -50 -146 -49c-115 0 -171 62 -171 160c1 47 7 219 7 220s-64 0 -69 5s-6 121 0 122c4 1 71 -2 74 1c3 4 -3 108 6 117s147 18 152 13s-4 -134 -2 -134
c2 1 112 6 122 -7c10 -14 2 -115 2 -115c-7 -12 -128 -1 -128 -9zM322 -139c0 -68 -32 -128 -64 -176c-2 -4 -62 11 -75 29c-2 3 22 42 34 66c-38 4 -73 34 -73 79c0 54 35 87 99 83c39 -2 79 -21 79 -81z" />
    <glyph glyph-name="tbar" unicode="&#x167;" horiz-adv-x="406" 
d="M34 219c-7 0 -4 76 0 77c1 0 23 1 53 2c1 38 3 68 3 69s-64 0 -69 5s-5 121 0 122c4 1 71 -2 74 1c3 4 -3 108 6 117s147 18 152 13s-3 -134 -2 -134c2 1 113 6 122 -7c10 -14 2 -115 2 -115c-7 -12 -128 -1 -128 -9c0 -2 -1 -28 -2 -59c51 1 101 0 102 -2
c2 -5 -3 -75 -5 -75c-1 0 -49 -1 -97 -2c-1 -15 -1 -28 -1 -39c-1 -32 16 -53 48 -54c35 0 61 24 73 22c13 -3 35 -94 35 -115c0 0 -41 -50 -146 -49c-115 0 -171 62 -170 160c0 19 0 46 1 72h-51z" />
    <glyph glyph-name="thorn" unicode="&#xfe;" horiz-adv-x="598" 
d="M356 -10c-61 0 -111 31 -119 42c0 -6 2 -243 0 -250c-15 -4 -161 -6 -164 -2c-4 12 -44 940 -18 966c24 24 162 5 167 0s9 -282 8 -304c8 14 62 57 138 57c104 -1 202 -81 202 -241c0 -184 -102 -268 -214 -268zM418 247c0 64 -44 108 -103 108c-60 0 -97 -40 -97 -107
c0 -61 36 -108 97 -108c63 0 103 38 103 107z" />
    <glyph glyph-name="ugrave" unicode="&#xf9;" horiz-adv-x="576" 
d="M519 2c-9 -13 -139 -9 -149 0c1 21 0 50 1 57c-22 -32 -73 -74 -148 -74c-121 0 -179 74 -179 214c0 72 10 243 13 290c2 10 152 8 155 5c2 -11 -8 -239 -8 -278c0 -56 24 -90 76 -90c55 0 84 42 85 86c0 29 4 275 8 279c3 4 148 2 152 -4c1 -4 -2 -272 -6 -485zM139 638
c-3 1 43 89 53 90c5 2 224 -116 224 -116s-29 -70 -46 -76c-4 -1 -228 101 -231 102z" />
    <glyph glyph-name="uacute" unicode="&#xfa;" horiz-adv-x="576" 
d="M519 2c-9 -13 -139 -9 -149 0c1 21 0 50 1 57c-22 -32 -73 -74 -148 -74c-121 0 -179 74 -179 214c0 72 10 243 13 290c2 10 152 8 155 5c2 -11 -8 -239 -8 -278c0 -56 24 -90 76 -90c55 0 84 42 85 86c0 29 4 275 8 279c3 4 148 2 152 -4c1 -4 -2 -272 -6 -485zM449 638
c-3 -1 -227 -103 -231 -102c-17 6 -45 76 -45 76s219 118 224 116c10 -1 55 -89 52 -90z" />
    <glyph glyph-name="ucircumflex" unicode="&#xfb;" horiz-adv-x="576" 
d="M519 2c-9 -13 -139 -9 -149 0c1 21 0 50 1 57c-22 -32 -73 -74 -148 -74c-121 0 -179 74 -179 214c0 72 10 243 13 290c2 10 152 8 155 5c2 -11 -8 -239 -8 -278c0 -56 24 -90 76 -90c55 0 84 42 85 86c0 29 4 275 8 279c3 4 148 2 152 -4c1 -4 -2 -272 -6 -485zM118 610
c0 0 155 105 174 113c8 -3 174 -112 174 -112s-28 -62 -42 -68c-3 -1 -79 36 -132 67c-55 -31 -127 -70 -129 -69c-14 6 -45 69 -45 69z" />
    <glyph glyph-name="utilde" unicode="&#x169;" horiz-adv-x="576" 
d="M519 2c-9 -13 -139 -9 -149 0c1 21 0 50 1 57c-22 -32 -73 -74 -148 -74c-121 0 -179 74 -179 214c0 72 10 243 13 290c2 10 152 8 155 5c2 -11 -8 -239 -8 -278c0 -56 24 -90 76 -90c55 0 84 42 85 86c0 29 4 275 8 279c3 4 148 2 152 -4c1 -4 -2 -272 -6 -485zM111 656
c19 25 55 52 102 52c58 0 102 -57 157 -57c33 0 52 21 68 37c8 -2 32 -61 34 -86c0 0 -31 -55 -103 -55c-59 0 -110 53 -164 53c-29 0 -54 -20 -67 -32c-6 -5 -27 78 -27 88z" />
    <glyph glyph-name="udieresis" unicode="&#xfc;" horiz-adv-x="576" 
d="M519 2c-9 -13 -139 -9 -149 0c1 21 0 50 1 57c-22 -32 -73 -74 -148 -74c-121 0 -179 74 -179 214c0 72 10 243 13 290c2 10 152 8 155 5c2 -11 -8 -239 -8 -278c0 -56 24 -90 76 -90c55 0 84 42 85 86c0 29 4 275 8 279c3 4 148 2 152 -4c1 -4 -2 -272 -6 -485zM410 558
c-53 0 -80 30 -81 76c-1 48 32 79 72 79c41 0 78 -36 78 -75c0 -41 -18 -80 -69 -80zM188 558c-52 0 -79 30 -81 76c-1 48 32 79 72 79c41 0 78 -36 78 -75c0 -41 -18 -80 -69 -80z" />
    <glyph glyph-name="umacron" unicode="&#x16b;" horiz-adv-x="576" 
d="M519 2c-9 -13 -139 -9 -149 0c1 21 0 50 1 57c-22 -32 -73 -74 -148 -74c-121 0 -179 74 -179 214c0 72 10 243 13 290c2 10 152 8 155 5c2 -11 -8 -239 -8 -278c0 -56 24 -90 76 -90c55 0 84 42 85 86c0 29 4 275 8 279c3 4 148 2 152 -4c1 -4 -2 -272 -6 -485zM134 569
c-7 0 -4 92 0 94c3 2 318 11 320 4c1 -6 -3 -91 -6 -91s-308 -7 -314 -7z" />
    <glyph glyph-name="ubreve" unicode="&#x16d;" horiz-adv-x="576" 
d="M519 2c-9 -13 -139 -9 -149 0c1 21 0 50 1 57c-22 -32 -73 -74 -148 -74c-121 0 -179 74 -179 214c0 72 10 243 13 290c2 10 152 8 155 5c2 -11 -8 -239 -8 -278c0 -56 24 -90 76 -90c55 0 84 42 85 86c0 29 4 275 8 279c3 4 148 2 152 -4c1 -4 -2 -272 -6 -485zM297 551
c-80 0 -143 38 -180 91c0 12 31 43 60 58c24 -23 66 -52 122 -52c47 0 87 28 110 49c16 -5 54 -47 57 -55c-25 -41 -93 -91 -169 -91z" />
    <glyph glyph-name="uring" unicode="&#x16f;" horiz-adv-x="576" 
d="M519 2c-9 -13 -139 -9 -149 0c1 21 0 50 1 57c-22 -32 -73 -74 -148 -74c-121 0 -179 74 -179 214c0 72 10 243 13 290c2 10 152 8 155 5c2 -11 -8 -239 -8 -278c0 -56 24 -90 76 -90c55 0 84 42 85 86c0 29 4 275 8 279c3 4 148 2 152 -4c1 -4 -2 -272 -6 -485zM302 544
c-64 0 -107 32 -107 100s48 96 107 96c55 0 99 -36 99 -97c0 -50 -30 -99 -99 -99zM300 605c21 0 37 12 37 36c0 18 -12 38 -37 38c-31 0 -42 -19 -42 -38c0 -23 23 -36 42 -36z" />
    <glyph glyph-name="uhungarumlaut" unicode="&#x171;" horiz-adv-x="576" 
d="M519 2c-9 -13 -139 -9 -149 0c1 21 0 50 1 57c-22 -32 -73 -74 -148 -74c-121 0 -179 74 -179 214c0 72 10 243 13 290c2 10 152 8 155 5c2 -11 -8 -239 -8 -278c0 -56 24 -90 76 -90c55 0 84 42 85 86c0 29 4 275 8 279c3 4 148 2 152 -4c1 -4 -2 -272 -6 -485zM328 566
c-2 4 73 184 76 186c-4 1 121 -17 119 -19s-109 -181 -109 -181s-84 11 -86 14zM236 555c-2 0 -64 12 -69 16s29 173 28 173c25 8 123 -12 123 -13s-80 -176 -82 -176z" />
    <glyph glyph-name="uogonek" unicode="&#x173;" horiz-adv-x="576" 
d="M289 -119c0 58 44 97 85 119c-1 1 -3 1 -3 2c1 21 -1 50 0 57c-21 -32 -73 -74 -148 -74c-120 0 -179 74 -179 214c0 72 10 243 14 290c1 10 151 8 154 5c2 -11 -7 -239 -7 -278c0 -56 23 -90 76 -90c54 0 84 42 84 86c0 29 5 276 8 279c3 4 148 2 152 -3
c1 -4 -2 -273 -5 -486c-45 -22 -124 -56 -124 -88c0 -18 10 -30 30 -30c23 0 49 20 49 20c5 1 52 -59 45 -67c-23 -25 -73 -61 -128 -61c-58 0 -103 44 -103 105z" />
    <glyph glyph-name="wacute" unicode="&#x1e83;" horiz-adv-x="794" 
d="M19 475c0 7 132 29 145 29c12 0 84 -329 84 -329c25 78 77 197 88 235c-5 17 -23 65 -23 76c10 10 126 22 138 15c10 -6 87 -308 92 -324c6 16 96 328 101 329c6 1 146 -29 145 -35c-14 -63 -158 -473 -163 -478c-13 -11 -157 2 -158 5c-1 1 -36 105 -68 234
c-43 -126 -90 -236 -92 -239c-13 -11 -157 2 -158 4s-132 447 -131 478zM551 638c-3 -1 -227 -103 -231 -102c-17 6 -45 76 -45 76s219 118 224 116c10 -1 55 -89 52 -90z" />
    <glyph glyph-name="wcircumflex" unicode="&#x175;" horiz-adv-x="794" 
d="M19 475c0 7 132 29 145 29c12 0 84 -329 84 -329c25 78 77 197 88 235c-5 17 -23 65 -23 76c10 10 126 22 138 15c10 -6 87 -308 92 -324c6 16 96 328 101 329c6 1 146 -29 145 -35c-14 -63 -158 -473 -163 -478c-13 -11 -157 2 -158 5c-1 1 -36 105 -68 234
c-43 -126 -90 -236 -92 -239c-13 -11 -157 2 -158 4s-132 447 -131 478zM227 610c0 0 155 105 174 113c8 -3 174 -112 174 -112s-28 -62 -42 -68c-3 -1 -79 36 -132 67c-55 -31 -127 -70 -129 -69c-14 6 -45 69 -45 69z" />
    <glyph glyph-name="wdieresis" unicode="&#x1e85;" horiz-adv-x="794" 
d="M19 475c0 7 132 29 145 29c12 0 84 -329 84 -329c25 78 77 197 88 235c-5 17 -23 65 -23 76c10 10 126 22 138 15c10 -6 87 -308 92 -324c6 16 96 328 101 329c6 1 146 -29 145 -35c-14 -63 -158 -473 -163 -478c-13 -11 -157 2 -158 5c-1 1 -36 105 -68 234
c-43 -126 -90 -236 -92 -239c-13 -11 -157 2 -158 4s-132 447 -131 478zM516 558c-53 0 -80 30 -81 76c-1 48 32 79 72 79c41 0 78 -36 78 -75c0 -41 -18 -80 -69 -80zM294 558c-52 0 -79 30 -81 76c-1 48 32 79 72 79c41 0 78 -36 78 -75c0 -41 -18 -80 -69 -80z" />
    <glyph glyph-name="wgrave" unicode="&#x1e81;" horiz-adv-x="794" 
d="M19 475c0 7 132 29 145 29c12 0 84 -329 84 -329c25 78 77 197 88 235c-5 17 -23 65 -23 76c10 10 126 22 138 15c10 -6 87 -308 92 -324c6 16 96 328 101 329c6 1 146 -29 145 -35c-14 -63 -158 -473 -163 -478c-13 -11 -157 2 -158 5c-1 1 -36 105 -68 234
c-43 -126 -90 -236 -92 -239c-13 -11 -157 2 -158 4s-132 447 -131 478zM238 638c-3 1 43 89 53 90c5 2 224 -116 224 -116s-29 -70 -46 -76c-4 -1 -228 101 -231 102z" />
    <glyph glyph-name="yacute" unicode="&#xfd;" horiz-adv-x="533" 
d="M532 470c-18 -68 -290 -679 -304 -695c-39 -2 -142 48 -151 59c1 6 88 187 99 221c-36 71 -164 393 -163 419c0 8 138 30 150 30c13 0 104 -283 104 -283s109 283 114 284c6 1 151 -29 151 -35zM449 638c-3 -1 -227 -103 -231 -102c-17 6 -45 76 -45 76s219 118 224 116
c10 -1 55 -89 52 -90z" />
    <glyph glyph-name="ycircumflex" unicode="&#x177;" horiz-adv-x="533" 
d="M532 470c-18 -68 -290 -679 -304 -695c-39 -2 -142 48 -151 59c1 6 88 187 99 221c-36 71 -164 393 -163 419c0 8 138 30 150 30c13 0 104 -283 104 -283s109 283 114 284c6 1 151 -29 151 -35zM96 610c0 0 155 105 174 113c8 -3 174 -112 174 -112s-28 -62 -42 -68
c-3 -1 -79 36 -132 67c-55 -31 -127 -70 -129 -69c-14 6 -45 69 -45 69z" />
    <glyph glyph-name="ydieresis" unicode="&#xff;" horiz-adv-x="533" 
d="M532 470c-18 -68 -290 -679 -304 -695c-39 -2 -142 48 -151 59c1 6 88 187 99 221c-36 71 -164 393 -163 419c0 8 138 30 150 30c13 0 104 -283 104 -283s109 283 114 284c6 1 151 -29 151 -35zM389 558c-53 0 -80 30 -81 76c-1 48 32 79 72 79c41 0 78 -36 78 -75
c0 -41 -18 -80 -69 -80zM167 558c-52 0 -79 30 -81 76c-1 48 32 79 72 79c41 0 78 -36 78 -75c0 -41 -18 -80 -69 -80z" />
    <glyph glyph-name="ygrave" unicode="&#x1ef3;" horiz-adv-x="533" 
d="M532 470c-18 -68 -290 -679 -304 -695c-39 -2 -142 48 -151 59c1 6 88 187 99 221c-36 71 -164 393 -163 419c0 8 138 30 150 30c13 0 104 -283 104 -283s109 283 114 284c6 1 151 -29 151 -35zM110 638c-3 1 43 89 53 90c5 2 224 -116 224 -116s-29 -70 -46 -76
c-4 -1 -228 101 -231 102z" />
    <glyph glyph-name="zacute" unicode="&#x17a;" horiz-adv-x="449" 
d="M40 491c10 2 368 7 371 6c2 -1 11 -102 8 -111c-2 -4 -197 -258 -200 -264c10 2 184 10 194 1c3 -3 2 -123 -3 -127s-364 0 -367 1c-3 2 -14 86 -8 112c0 3 197 256 197 256s-183 -12 -197 1c-9 8 -4 122 5 125zM390 638c-3 -1 -227 -103 -231 -102c-17 6 -45 76 -45 76
s219 118 224 116c10 -1 55 -89 52 -90z" />
    <glyph glyph-name="zcaron" unicode="&#x17e;" horiz-adv-x="449" 
d="M40 491c10 2 368 7 371 6c2 -1 11 -102 8 -111c-2 -4 -197 -258 -200 -264c10 2 184 10 194 1c3 -3 2 -123 -3 -127s-364 0 -367 1c-3 2 -14 86 -8 112c0 3 197 256 197 256s-183 -12 -197 1c-9 8 -4 122 5 125zM57 650c0 0 31 64 45 70c2 1 75 -40 130 -71
c53 31 131 69 134 68c14 -6 41 -67 41 -67s-167 -110 -175 -113c-19 8 -175 113 -175 113z" />
    <glyph glyph-name="zdotaccent" unicode="&#x17c;" horiz-adv-x="449" 
d="M40 491c10 2 368 7 371 6c2 -1 11 -102 8 -111c-2 -4 -197 -258 -200 -264c10 2 184 10 194 1c3 -3 2 -123 -3 -127s-364 0 -367 1c-3 2 -14 86 -8 112c0 3 197 256 197 256s-183 -12 -197 1c-9 8 -4 122 5 125zM147 652c0 53 16 92 88 92c54 0 92 -36 92 -98
c0 -44 -38 -79 -92 -79c-52 0 -88 30 -88 85z" />
    <glyph glyph-name="IJ" unicode="&#x132;" horiz-adv-x="799" 
d="M70 694c32 12 172 8 178 2c7 -42 6 -632 -1 -696c-6 -18 -177 -11 -178 -4c-4 71 -7 602 1 698zM320 49c-2 12 46 128 63 143c24 -16 53 -38 98 -38c41 0 79 23 79 97c0 134 -7 342 -7 443c35 9 172 15 178 9c7 -36 9 -303 9 -466c0 -165 -87 -249 -228 -249
c-98 0 -161 30 -192 61z" />
    <glyph glyph-name="ij" unicode="&#x133;" horiz-adv-x="535" 
d="M53 493c6 10 158 4 162 0c3 -4 -5 -484 -8 -491c-4 -7 -147 -4 -149 -1s-11 481 -5 492zM47 652c0 54 16 93 88 93c54 0 92 -37 92 -99c0 -44 -38 -78 -92 -78c-52 0 -88 29 -88 84zM324 494c71 10 159 -4 163 -8c2 -3 -10 -296 -10 -485c0 -142 -70 -198 -144 -224
c-7 -2 -77 46 -87 102c14 3 75 37 74 133c-1 186 -5 481 4 482zM499 660c0 -53 -15 -92 -88 -92c-54 0 -91 36 -91 98c0 44 37 79 91 79c53 0 88 -30 88 -85z" />
    <glyph glyph-name="acute" unicode="&#xb4;" 
d="M387 638c-3 -1 -227 -103 -231 -102c-17 6 -45 76 -45 76s219 118 224 116c10 -1 55 -89 52 -90z" />
    <glyph glyph-name="circumflex" unicode="&#x2c6;" 
d="M76 610c0 0 155 105 174 113c8 -3 174 -112 174 -112s-28 -62 -42 -68c-3 -1 -79 36 -132 67c-55 -31 -127 -70 -129 -69c-14 6 -45 69 -45 69z" />
    <glyph glyph-name="caron" unicode="&#x2c7;" 
d="M75 650c0 0 31 64 45 70c2 1 75 -40 130 -71c53 31 131 69 134 68c14 -6 41 -67 41 -67s-167 -110 -175 -113c-19 8 -175 113 -175 113z" />
    <glyph glyph-name="tilde" unicode="&#x2dc;" 
d="M69 656c19 25 55 52 102 52c58 0 102 -57 157 -57c33 0 52 21 68 37c8 -2 32 -61 34 -86c0 0 -31 -55 -103 -55c-59 0 -110 53 -164 53c-29 0 -54 -20 -67 -32c-6 -5 -27 78 -27 88z" />
    <glyph glyph-name="dieresis" unicode="&#xa8;" 
d="M367 558c-53 0 -80 30 -81 76c-1 48 32 79 72 79c41 0 78 -36 78 -75c0 -41 -18 -80 -69 -80zM145 558c-52 0 -79 30 -81 76c-1 48 32 79 72 79c41 0 78 -36 78 -75c0 -41 -18 -80 -69 -80z" />
    <glyph glyph-name="macron" unicode="&#xaf;" 
d="M92 569c-7 0 -4 92 0 94c3 2 318 11 320 4c1 -6 -3 -91 -6 -91s-308 -7 -314 -7z" />
    <glyph glyph-name="breve" unicode="&#x2d8;" 
d="M255 551c-80 0 -143 38 -180 91c0 12 31 43 60 58c24 -23 66 -52 122 -52c47 0 87 28 110 49c16 -5 54 -47 57 -55c-25 -41 -93 -91 -169 -91z" />
    <glyph glyph-name="ring" unicode="&#x2da;" 
d="M254 532c-64 0 -107 32 -107 100s48 96 107 96c55 0 99 -36 99 -97c0 -50 -30 -99 -99 -99zM252 593c21 0 37 12 37 36c0 18 -12 38 -37 38c-31 0 -42 -19 -42 -38c0 -23 23 -36 42 -36z" />
    <glyph glyph-name="hungarumlaut" unicode="&#x2dd;" 
d="M233 535c-2 4 71 224 74 226c-4 2 119 -21 117 -23s-107 -220 -107 -220s-82 13 -84 17zM143 521c-2 0 -63 15 -68 20s29 211 28 211c24 9 120 -15 120 -16s-78 -215 -80 -215z" />
    <glyph glyph-name="dotaccent" unicode="&#x2d9;" 
d="M160 652c0 53 16 92 88 92c54 0 92 -36 92 -98c0 -44 -38 -79 -92 -79c-52 0 -88 30 -88 85z" />
    <glyph glyph-name="cedilla" unicode="&#xb8;" 
d="M240 37c16 5 102 -24 102 -24s-49 -181 -54 -184c-8 -3 -126 24 -125 27c1 2 73 180 77 181z" />
    <glyph glyph-name="ogonek" unicode="&#x2db;" 
d="M134 -119c0 77 80 121 125 138l83 -16c-44 -22 -100 -57 -100 -89c0 -18 10 -30 29 -30c23 0 49 20 49 20c6 1 52 -59 45 -67c-23 -25 -73 -61 -128 -61c-58 0 -103 44 -103 105z" />
    <glyph glyph-name="commaaccent" unicode="&#xf6c3;" 
d="M338 -139c0 -68 -32 -128 -64 -176c-2 -4 -62 11 -75 29c-2 3 22 42 34 66c-38 4 -73 34 -73 79c0 54 35 87 99 83c39 -2 79 -21 79 -81z" />
    <glyph glyph-name="commaaccent.alt" 
d="M160 643c0 67 33 128 64 176c2 3 63 -11 76 -30c1 -2 -23 -41 -35 -65c39 -5 73 -34 73 -79c0 -55 -34 -87 -99 -84c-38 2 -79 22 -79 82z" />
    <glyph glyph-name="ellipsis" unicode="&#x2026;" horiz-adv-x="790" 
d="M223 82c0 -61 -39 -97 -108 -96c-41 2 -84 39 -84 94c0 62 38 100 107 96c42 -2 85 -25 85 -94zM490 82c0 -61 -39 -97 -108 -96c-41 2 -84 39 -84 94c0 62 38 100 107 96c42 -2 85 -25 85 -94zM756 82c0 -61 -39 -97 -108 -96c-41 2 -84 39 -84 94c0 62 38 100 107 96
c42 -2 85 -25 85 -94z" />
    <glyph glyph-name="uni00AD" unicode="&#xad;" horiz-adv-x="398" 
d="M346 348c7 -22 -1 -120 -4 -121c-2 0 -261 -8 -280 -4c-15 12 -16 116 -12 118s292 13 296 7z" />
    <glyph glyph-name="exclamdown" unicode="&#xa1;" horiz-adv-x="283" 
d="M34 393c0 64 22 109 106 109c61 -1 106 -43 106 -114c0 -54 -44 -95 -110 -95c-59 1 -102 34 -102 100zM244 -202c-20 -10 -177 -17 -199 -8c1 180 59 417 65 427s61 4 64 0s71 -273 70 -419z" />
    <glyph glyph-name="questiondown" unicode="&#xbf;" horiz-adv-x="455" 
d="M330 229c10 -10 10 -162 10 -162c-91 0 -152 -24 -152 -77c0 -27 22 -65 83 -65c63 0 109 29 109 29s54 -97 50 -121c-24 -26 -87 -53 -186 -53c-117 0 -219 67 -219 193c0 120 84 183 182 196l6 58c32 5 82 6 117 2zM170 394c0 64 22 109 106 109c61 0 106 -43 106 -114
c0 -54 -44 -95 -110 -95c-59 1 -102 34 -102 100z" />
    <glyph glyph-name="quoteleft" unicode="&#x2018;" horiz-adv-x="270" 
d="M27 422c0 85 71 225 108 287c3 4 75 -15 90 -38c2 -3 -51 -103 -72 -147c45 -5 87 -42 87 -100c0 -69 -42 -110 -119 -106c-46 3 -94 28 -94 104z" />
    <glyph glyph-name="quoteright" unicode="&#x2019;" horiz-adv-x="267" 
d="M244 604c0 -85 -72 -225 -108 -287c-3 -4 -75 15 -90 38c-2 3 50 103 71 147c-44 5 -86 42 -86 100c0 69 42 110 118 106c46 -3 95 -28 95 -104z" />
    <glyph glyph-name="quotedblleft" unicode="&#x201c;" horiz-adv-x="498" 
d="M26 442c0 79 66 209 100 267c3 4 70 -14 84 -35c2 -3 -47 -96 -67 -137c42 -5 81 -39 81 -93c0 -64 -39 -102 -111 -98c-42 2 -87 26 -87 96zM271 442c0 79 66 209 100 267c3 4 70 -14 84 -35c2 -3 -47 -96 -67 -137c42 -5 81 -39 81 -93c0 -64 -39 -102 -111 -98
c-42 2 -87 26 -87 96z" />
    <glyph glyph-name="quotedblright" unicode="&#x201d;" horiz-adv-x="497" 
d="M228 613c0 -79 -67 -208 -100 -266c-3 -3 -70 14 -83 36c-2 2 46 95 65 136c-40 4 -79 39 -79 92c0 64 39 102 109 99c43 -3 88 -26 88 -97zM474 614c0 -79 -67 -208 -100 -266c-3 -3 -70 14 -83 36c-2 2 46 95 65 136c-40 4 -79 39 -79 92c0 64 39 102 109 99
c43 -3 88 -26 88 -97z" />
    <glyph glyph-name="quotesinglbase" unicode="&#x201a;" horiz-adv-x="279" 
d="M245 92c0 -85 -72 -225 -108 -287c-3 -4 -75 15 -90 38c-2 3 50 103 71 147c-44 5 -86 42 -86 100c0 69 42 110 118 106c46 -3 95 -28 95 -104z" />
    <glyph glyph-name="quotedblbase" unicode="&#x201e;" horiz-adv-x="507" 
d="M228 90c0 -79 -67 -208 -100 -266c-3 -3 -70 14 -83 36c-2 2 46 95 65 136c-40 4 -79 39 -79 92c0 64 39 102 109 99c43 -3 88 -26 88 -97zM474 89c0 -79 -67 -208 -100 -266c-3 -3 -70 14 -83 36c-2 2 46 95 65 136c-40 4 -79 39 -79 92c0 64 39 102 109 99
c43 -3 88 -26 88 -97z" />
    <glyph glyph-name="guilsinglleft" unicode="&#x2039;" horiz-adv-x="288" 
d="M192 44c-2 1 -166 250 -166 257s165 233 169 236s52 -34 52 -37s-105 -189 -104 -193s110 -206 110 -211c0 -6 -59 -53 -61 -52z" />
    <glyph glyph-name="guilsinglright" unicode="&#x203a;" horiz-adv-x="288" 
d="M95 537c2 -1 166 -239 166 -246s-164 -241 -168 -244s-53 34 -53 37s105 201 104 205s-110 192 -110 197s59 52 61 51z" />
    <glyph glyph-name="guillemotleft" unicode="&#xab;" horiz-adv-x="509" 
d="M192 44c-2 1 -166 250 -166 257s165 233 169 236s52 -34 52 -37s-105 -189 -104 -193s110 -206 110 -211c0 -6 -59 -53 -61 -52zM413 44c-2 1 -166 250 -166 257s165 233 169 236s52 -34 52 -37s-105 -189 -104 -193s110 -206 110 -211c0 -6 -59 -53 -61 -52z" />
    <glyph glyph-name="guillemotright" unicode="&#xbb;" horiz-adv-x="502" 
d="M95 537c2 -1 166 -239 166 -246s-164 -241 -168 -244s-53 34 -53 37s105 201 104 205s-110 192 -110 197s59 52 61 51zM309 537c2 -1 166 -239 166 -246s-164 -241 -168 -244s-53 34 -53 37s105 201 104 205s-110 192 -110 197s59 52 61 51z" />
    <glyph glyph-name="endash" unicode="&#x2013;" horiz-adv-x="516" 
d="M54 216c-7 0 -4 117 0 119s409 13 411 7c2 -7 -3 -117 -6 -117c-2 0 -398 -9 -405 -9z" />
    <glyph glyph-name="emdash" unicode="&#x2014;" horiz-adv-x="724" 
d="M54 231c-7 0 -4 110 0 111c4 2 619 13 621 7c2 -7 -3 -108 -6 -108c-2 0 -608 -10 -615 -10z" />
    <glyph glyph-name="bullet" unicode="&#x2022;" horiz-adv-x="360" 
d="M184 171c-75 0 -127 35 -127 125c0 86 58 118 127 118c68 0 119 -44 119 -119c0 -63 -35 -124 -119 -124z" />
    <glyph glyph-name="periodcentered" unicode="&#xb7;" horiz-adv-x="285" 
d="M249 292c0 -69 -43 -110 -121 -108c-46 2 -94 43 -94 105c0 70 42 113 120 108c47 -2 95 -28 95 -105z" />
    <glyph glyph-name="uni2219" unicode="&#x2219;" horiz-adv-x="285" 
d="M249 292c0 -69 -43 -110 -121 -108c-46 2 -94 43 -94 105c0 70 42 113 120 108c47 -2 95 -28 95 -105z" />
    <glyph glyph-name="dagger" unicode="&#x2020;" horiz-adv-x="436" 
d="M410 409l-140 -1v-624s-66 -15 -69 -5c-1 6 -6 353 -9 628l-162 -1c-4 3 -11 60 -9 60l171 1c-1 151 -2 268 0 270c8 12 78 7 78 6v-275l144 1s1 -57 -4 -60z" />
    <glyph glyph-name="daggerdbl" unicode="&#x2021;" horiz-adv-x="456" 
d="M420 79l-138 -2v-293s-66 -15 -69 -5c-1 4 -3 134 -5 297l-161 -1c-4 3 -11 64 -9 64l169 1l-3 267l-160 -1c-5 3 -11 59 -9 59l169 1c-1 151 -2 269 0 271c8 12 78 7 78 6v-276l146 1s0 -56 -4 -59l-142 -1v-267l142 1s1 -60 -4 -63z" />
    <glyph glyph-name="section" unicode="&#xa7;" horiz-adv-x="614" 
d="M579 308c0 -58 -35 -108 -97 -136c56 -27 97 -65 97 -133c0 -89 -87 -183 -289 -183c-105 0 -213 32 -251 55c-4 17 42 127 54 125c59 -24 126 -53 191 -53c67 0 101 21 101 46c0 28 -26 46 -133 63c-137 22 -210 74 -210 165c0 61 30 108 86 135c-54 28 -86 74 -86 142
c0 97 95 180 270 180c108 0 200 -23 241 -48c13 -9 -46 -125 -56 -125c-16 5 -94 37 -181 37c-63 0 -93 -15 -93 -43c0 -27 17 -42 119 -59c135 -22 237 -64 237 -168zM197 294c0 -42 57 -66 164 -78c32 3 53 27 53 55c0 50 -76 73 -166 81c-30 -9 -51 -35 -51 -58z" />
    <glyph glyph-name="paragraph" unicode="&#xb6;" horiz-adv-x="628" 
d="M437 -134l12 827c57 -1 106 -2 109 -3c5 -2 -9 -708 -2 -822c0 0 -115 -8 -119 -2zM351 695l-19 -827s-114 -8 -119 -2c-4 99 5 480 5 480c-80 0 -187 40 -188 158c-3 163 115 191 232 191h89z" />
    <glyph glyph-name="brokenbar" unicode="&#xa6;" horiz-adv-x="194" 
d="M65 377c-9 2 -7 353 -3 359c8 12 72 7 72 6v-360s-46 -10 -69 -5zM61 146c9 12 70 4 70 3l3 -365s-66 -15 -69 -5s-8 361 -4 367z" />
    <glyph glyph-name="copyright" unicode="&#xa9;" horiz-adv-x="855" 
d="M34 336c0 283 182 405 413 405c213 0 373 -139 373 -399c0 -186 -114 -380 -380 -380c-238 0 -406 147 -406 374zM107 336c0 -200 157 -309 334 -309c160 0 307 97 307 311c0 167 -96 334 -300 334c-252 0 -341 -162 -341 -336zM349 352c0 -79 47 -108 96 -108
c46 0 77 24 89 32c15 -9 43 -65 52 -85c-26 -29 -84 -55 -152 -55c-140 0 -204 98 -204 220c0 118 84 209 219 209c68 0 117 -21 135 -38c1 -11 -25 -84 -41 -96c-21 13 -57 28 -92 28c-59 0 -102 -46 -102 -107z" />
    <glyph glyph-name="uni2117" unicode="&#x2117;" horiz-adv-x="855" 
d="M34 336c0 283 182 405 413 405c213 0 373 -139 373 -399c0 -186 -114 -380 -380 -380c-238 0 -406 147 -406 374zM107 336c0 -200 157 -309 334 -309c160 0 307 97 307 311c0 167 -96 334 -300 334c-252 0 -341 -162 -341 -336zM408 154c-3 -4 -117 -5 -118 -2
c-3 27 -4 357 2 397c31 3 100 6 148 6c116 0 181 -56 181 -141c0 -103 -65 -145 -181 -145h-29c-1 -39 1 -105 -3 -115zM408 362c10 -1 25 -1 38 -1c37 0 65 14 65 46c0 39 -38 49 -70 49c-9 0 -26 0 -33 -2c1 -16 0 -71 0 -92z" />
    <glyph glyph-name="registered" unicode="&#xae;" horiz-adv-x="542" 
d="M278 317c-144 0 -246 86 -246 231c0 160 111 242 245 242c135 0 233 -89 233 -238c0 -117 -72 -235 -232 -235zM281 373c90 0 162 56 162 171c0 93 -49 186 -162 186c-140 0 -185 -87 -185 -186c0 -106 88 -171 185 -171zM246 444c-3 -1 -61 -3 -62 -1c-1 15 0 203 3 225
c17 2 53 4 79 4c64 0 101 -27 101 -79c0 -32 -15 -53 -40 -64c24 -29 48 -67 47 -68c-3 -5 -45 -23 -55 -23c-1 0 -28 45 -56 80h-15c-1 -23 0 -64 -2 -74zM251 568c5 -1 13 -1 20 -1c18 0 31 8 31 24s-8 26 -34 26c-6 0 -11 0 -17 -1v-48z" />
    <glyph glyph-name="trademark" unicode="&#x2122;" horiz-adv-x="788" 
d="M549 499h3c18 71 51 192 59 199c6 4 80 5 90 3c3 -2 48 -291 47 -308c-5 -8 -84 -14 -84 -11c-3 11 -16 132 -23 190h-1c-14 -51 -42 -155 -53 -186c-8 -2 -72 -2 -75 1c-5 12 -38 140 -49 186h-2c-8 -50 -21 -163 -26 -189c-16 -1 -85 6 -85 10c2 24 48 285 54 304
c3 7 76 6 87 4c8 -13 44 -139 58 -203zM51 630c-4 14 -4 68 -1 71c6 3 250 8 274 5c8 -3 7 -73 3 -73c-10 -2 -46 -3 -89 -4c0 -88 1 -222 -1 -240c-3 -3 -95 -6 -95 -2c-2 25 -3 161 -2 243c-34 0 -75 -1 -89 0z" />
    <glyph glyph-name="currency" unicode="&#xa4;" horiz-adv-x="522" 
d="M103 71c-9 11 -55 61 -52 63l49 45c-23 31 -36 74 -36 127c0 32 7 64 18 87c-25 24 -51 52 -48 57c8 8 53 69 56 66l50 -57c32 21 77 31 121 31c41 0 83 -13 112 -33l65 62s51 -53 52 -61c1 -5 -37 -48 -59 -71c9 -24 16 -53 16 -82c0 -49 -15 -94 -39 -126
c24 -27 61 -64 60 -65s-52 -48 -63 -55c-8 -6 -53 42 -73 65c-20 -8 -46 -11 -71 -11c-31 0 -64 5 -89 14c-23 -25 -63 -63 -69 -56zM259 208c50 0 83 30 83 90c0 47 -24 95 -83 95c-65 0 -88 -44 -88 -95c0 -58 51 -90 88 -90z" />
    <glyph glyph-name="Euro" unicode="&#x20ac;" horiz-adv-x="667" 
d="M40 302h57c-1 18 -2 28 -2 41c0 10 0 23 1 27c-22 0 -43 0 -66 -1c-5 2 2 70 5 72c22 0 46 -1 68 -1c30 158 148 271 322 271c103 0 177 -36 206 -65c0 -20 -39 -128 -61 -149c-32 22 -86 49 -143 49c-66 0 -121 -44 -146 -109l178 -2c0 -3 -5 -59 -6 -61
c0 0 -66 1 -189 0c-1 -7 -1 -16 -1 -24c0 -17 1 -32 3 -47c66 0 133 1 199 1c2 -1 2 -57 1 -60c-1 -1 -56 -2 -180 -5c28 -60 78 -88 132 -88c73 0 122 42 142 58c20 -16 60 -96 73 -130c-37 -48 -129 -96 -231 -96c-165 0 -261 104 -294 250c-20 0 -42 -1 -64 -2
c-5 2 -7 69 -4 71z" />
    <glyph glyph-name="cent" unicode="&#xa2;" horiz-adv-x="506" 
d="M171 -65c4 16 11 40 20 68c-112 40 -158 145 -158 245c0 126 97 250 259 250c18 0 35 -2 51 -4l17 53c2 10 66 -15 66 -15l-18 -55c40 -15 64 -34 66 -40c3 -12 -33 -118 -51 -124c-5 -1 -28 16 -58 29l-69 -215h1c46 0 98 30 110 36c10 3 47 -69 60 -97
c-26 -43 -95 -79 -172 -79c-15 0 -30 1 -43 3l-24 -75s-59 12 -57 20zM187 240c0 -54 21 -83 47 -98l66 215c-70 -1 -113 -41 -113 -117z" />
    <glyph glyph-name="sterling" unicode="&#xa3;" horiz-adv-x="551" 
d="M38 375h61c-10 51 -20 103 -20 145c0 132 105 192 224 192c151 0 217 -96 219 -111c0 -13 -60 -93 -95 -111c0 0 -29 59 -100 59c-40 0 -71 -29 -71 -80c0 -28 6 -62 14 -96l132 -1c2 -1 2 -58 1 -60c-1 -1 -25 0 -121 -2c11 -61 14 -120 -29 -157c35 0 212 4 240 -2
c15 -44 10 -150 6 -152c-7 -4 -425 3 -449 2c-8 -2 0 91 1 105c80 21 77 107 60 200c-22 0 -43 -1 -69 -1c-5 1 -7 69 -4 70z" />
    <glyph glyph-name="florin" unicode="&#x192;" horiz-adv-x="593" 
d="M62 327l128 1c22 140 36 236 41 259c21 107 87 166 196 166c90 0 139 -34 155 -50c-7 -26 -47 -120 -54 -117c-17 8 -39 23 -75 23c-42 0 -66 -35 -71 -70c-12 -70 -22 -140 -32 -211l143 1c2 -1 2 -66 1 -69c-1 -1 -54 -1 -154 -2c-13 -92 -27 -183 -42 -273
c-22 -132 -74 -209 -203 -209c-90 0 -139 34 -155 50c7 26 47 120 54 117c17 -9 39 -24 74 -24c44 0 67 35 72 71l39 266h-113c-5 2 -7 69 -4 71z" />
    <glyph glyph-name="yen" unicode="&#xa5;" horiz-adv-x="665" 
d="M96 313l117 -2c-58 103 -188 335 -187 346c0 12 150 56 162 52c5 -3 104 -189 139 -270h6c43 79 143 269 150 270c11 1 159 -39 160 -51c1 -11 -140 -248 -201 -350l106 -1c0 -3 -5 -59 -6 -61c0 0 -43 -3 -123 -4v-67l135 1c2 -1 2 -57 1 -60c-1 -1 -45 -1 -136 -4
c0 -50 -1 -94 -3 -112c-6 -18 -181 -9 -182 -1c-2 22 -2 61 -1 108l-128 -4c-5 2 -7 69 -4 71l133 1l2 65c-45 0 -91 0 -145 1c-5 2 2 70 5 72z" />
    <glyph glyph-name="rupee" unicode="&#x20a8;" horiz-adv-x="593" 
d="M57 471l253 -1c-10 57 -53 89 -131 89c-51 0 -105 0 -124 -3c-7 8 -5 96 -4 143c46 3 98 4 140 4c182 0 290 -84 301 -235h73c2 -1 2 -59 1 -61c-1 -1 -30 -1 -76 -1c-8 -76 -49 -130 -108 -163c69 -89 138 -194 135 -198c-11 -15 -126 -63 -156 -62
c-3 0 -74 105 -149 206c-12 0 -25 -1 -37 -1c-40 0 -86 1 -124 2c-4 43 -2 118 5 138c18 -2 115 -1 134 -1c55 0 104 27 118 78c-74 -1 -158 -3 -247 -6c-5 2 -7 70 -4 72z" />
    <glyph glyph-name="ordfeminine" unicode="&#xaa;" horiz-adv-x="409" 
d="M36 572c1 13 53 85 159 85c99 0 173 -57 173 -169c0 -84 -4 -212 -6 -217c-2 -4 -99 0 -99 0l-7 33c-7 -5 -41 -42 -103 -42c-87 0 -124 50 -124 117c0 70 63 115 143 115c37 0 60 -11 75 -22c1 34 2 80 -70 80c-52 0 -75 -35 -82 -35c-6 0 -59 46 -59 55zM133 381
c0 -25 23 -44 54 -44c37 0 55 21 55 45c0 27 -24 45 -55 45c-32 0 -54 -21 -54 -46z" />
    <glyph glyph-name="ordmasculine" unicode="&#xba;" horiz-adv-x="459" 
d="M311 452c0 63 -38 83 -77 83c-58 2 -87 -33 -87 -84c0 -54 38 -84 76 -85c57 -1 88 31 88 86zM229 653c112 0 201 -75 201 -202c0 -101 -74 -192 -200 -192c-112 0 -201 75 -201 202c0 96 75 192 200 192z" />
    <glyph glyph-name="onesuperior" unicode="&#xb9;" horiz-adv-x="307" 
d="M254 320c-5 -2 -118 -7 -122 -1c-4 23 2 231 4 339c0 0 -88 -42 -97 -41c-6 1 -30 93 -28 96c13 13 161 78 177 82c13 -1 62 -9 70 -18c0 0 0 -430 -4 -457z" />
    <glyph glyph-name="twosuperior" unicode="&#xb2;" horiz-adv-x="380" 
d="M195 431l1 -2l141 3c8 -7 5 -115 -2 -114c-13 -1 -289 -3 -293 -1c-4 3 -17 77 -14 93c88 93 186 167 186 224c0 24 -14 47 -50 47c-43 0 -64 -27 -72 -37c-14 9 -65 71 -64 81c1 11 50 73 159 73c91 0 158 -51 158 -141c0 -77 -62 -142 -150 -226z" />
    <glyph glyph-name="threesuperior" unicode="&#xb3;" horiz-adv-x="389" 
d="M283 560v-4c21 -4 74 -34 74 -103c0 -96 -82 -143 -174 -143c-86 0 -141 35 -162 57c-2 9 40 74 58 82c15 -14 46 -31 89 -31c44 0 62 23 62 47c0 28 -25 44 -69 44h-59c-8 10 -10 93 0 99c15 0 49 -1 67 -1c22 0 54 8 54 40c0 29 -26 44 -56 44c-31 0 -58 -16 -71 -28
c-11 0 -57 60 -67 73c26 29 72 62 155 62c93 0 160 -50 160 -131c0 -61 -40 -96 -61 -107z" />
    <glyph glyph-name="fraction" unicode="&#x2044;" horiz-adv-x="240" 
d="M-94 33c2 2 342 680 350 680s79 -26 76 -38s-329 -690 -347 -690c-13 6 -81 46 -79 48z" />
    <glyph glyph-name="uni2215" unicode="&#x2215;" horiz-adv-x="403" 
d="M-13 33c2 2 342 680 350 680s79 -26 76 -38s-328 -690 -346 -690c-13 6 -82 46 -80 48z" />
    <glyph glyph-name="onehalf" unicode="&#xbd;" horiz-adv-x="910" 
d="M265 241c-5 -2 -118 -7 -122 -1c-4 23 2 231 4 339c0 0 -88 -42 -97 -41c-6 1 -30 93 -28 96c13 13 161 78 177 82c13 -1 62 -9 70 -18c0 0 0 -430 -4 -457zM720 111l1 -2l141 3c8 -7 5 -115 -2 -114c-13 -1 -289 -3 -293 -1c-4 3 -17 77 -14 93c88 93 186 167 186 224
c0 24 -14 47 -50 47c-43 0 -64 -27 -72 -37c-14 9 -65 71 -64 81c1 11 50 73 159 73c91 0 158 -51 158 -141c0 -77 -62 -142 -150 -226zM219 33c2 2 342 680 350 680s79 -26 76 -38s-329 -690 -347 -690c-13 6 -81 46 -79 48z" />
    <glyph glyph-name="onethird" unicode="&#x2153;" horiz-adv-x="928" 
d="M265 241c-5 -2 -118 -7 -122 -1c-4 23 2 231 4 339c0 0 -88 -42 -97 -41c-6 1 -30 93 -28 96c13 13 161 78 177 82c13 -1 62 -9 70 -18c0 0 0 -430 -4 -457zM219 33c2 2 342 680 350 680s79 -26 76 -38s-329 -690 -347 -690c-13 6 -81 46 -79 48zM819 237v-4
c21 -4 74 -34 74 -103c0 -96 -82 -143 -174 -143c-86 0 -141 35 -162 57c-2 9 40 74 58 82c15 -14 46 -31 89 -31c44 0 62 23 62 47c0 28 -25 44 -69 44h-59c-8 10 -10 93 0 99c15 0 49 -1 67 -1c22 0 54 8 54 40c0 29 -26 44 -56 44c-31 0 -58 -16 -71 -28
c-11 0 -57 60 -67 73c26 29 72 62 155 62c93 0 160 -50 160 -131c0 -61 -40 -96 -61 -107z" />
    <glyph glyph-name="onequarter" unicode="&#xbc;" horiz-adv-x="919" 
d="M265 241c-5 -2 -118 -7 -122 -1c-4 23 2 231 4 339c0 0 -88 -42 -97 -41c-6 1 -30 93 -28 96c13 13 161 78 177 82c13 -1 62 -9 70 -18c0 0 0 -430 -4 -457zM219 33c2 2 342 680 350 680s79 -26 76 -38s-329 -690 -347 -690c-13 6 -81 46 -79 48zM823 0
c-33 -5 -79 -5 -113 4v82c-23 -1 -164 -3 -200 -1c-5 19 -13 76 -10 96c21 51 161 257 198 299c28 0 103 -6 129 -15l-1 -281s47 0 60 -1c3 -8 0 -94 0 -94c0 -1 -63 -2 -64 -2c0 0 1 -86 1 -87zM718 332h-4c-14 -19 -86 -121 -99 -149l97 1z" />
    <glyph glyph-name="oneeighth" unicode="&#x215b;" horiz-adv-x="940" 
d="M265 241c-5 -2 -118 -7 -122 -1c-4 23 2 231 4 339c0 0 -88 -42 -97 -41c-6 1 -30 93 -28 96c13 13 161 78 177 82c13 -1 62 -9 70 -18c0 0 0 -430 -4 -457zM219 33c2 2 342 680 350 680s79 -26 76 -38s-329 -690 -347 -690c-13 6 -81 46 -79 48zM540 129
c0 57 43 97 81 114c-32 16 -67 52 -67 100c0 90 74 132 166 132c96 0 169 -43 169 -133c0 -47 -28 -82 -59 -97c37 -18 77 -59 77 -119c0 -91 -80 -140 -179 -140c-110 0 -188 42 -188 143zM720 293c38 0 55 15 55 41s-15 46 -52 46c-41 0 -57 -20 -57 -44
c0 -25 16 -43 54 -43zM662 139c0 -33 19 -54 62 -54c44 0 65 21 65 50c0 32 -19 57 -63 57c-46 0 -64 -25 -64 -53z" />
    <glyph glyph-name="twothirds" unicode="&#x2154;" horiz-adv-x="992" 
d="M288 33c2 2 342 680 350 680s79 -26 76 -38s-329 -690 -347 -690c-13 6 -81 46 -79 48zM888 237v-4c21 -4 74 -34 74 -103c0 -96 -82 -143 -174 -143c-86 0 -141 35 -162 57c-2 9 40 74 58 82c15 -14 46 -31 89 -31c44 0 62 23 62 47c0 28 -25 44 -69 44h-59
c-8 10 -10 93 0 99c15 0 49 -1 67 -1c22 0 54 8 54 40c0 29 -26 44 -56 44c-31 0 -58 -16 -71 -28c-11 0 -57 60 -67 73c26 29 72 62 155 62c93 0 160 -50 160 -131c0 -61 -40 -96 -61 -107zM200 352l1 -2l141 3c8 -7 5 -115 -2 -114c-13 -1 -289 -3 -293 -1
c-4 3 -17 77 -14 93c88 93 186 167 186 224c0 24 -14 47 -50 47c-43 0 -64 -27 -72 -37c-14 9 -65 71 -64 81c1 11 50 73 159 73c91 0 158 -51 158 -141c0 -77 -62 -142 -150 -226z" />
    <glyph glyph-name="threequarters" unicode="&#xbe;" horiz-adv-x="985" 
d="M288 33c2 2 342 680 350 680s79 -26 76 -38s-329 -690 -347 -690c-13 6 -81 46 -79 48zM893 0c-33 -5 -79 -5 -113 4v82c-23 -1 -164 -3 -200 -1c-5 19 -13 76 -10 96c21 51 161 257 198 299c28 0 103 -6 129 -15l-1 -281s47 0 60 -1c3 -8 0 -94 0 -94
c0 -1 -63 -2 -64 -2c0 0 1 -86 1 -87zM788 332h-4c-14 -19 -86 -121 -99 -149l97 1zM291 484v-4c21 -4 74 -34 74 -103c0 -96 -82 -143 -174 -143c-86 0 -141 35 -162 57c-2 9 40 74 58 82c15 -14 46 -31 89 -31c44 0 62 23 62 47c0 28 -25 44 -69 44h-59c-8 10 -10 93 0 99
c15 0 49 -1 67 -1c22 0 54 8 54 40c0 29 -26 44 -56 44c-31 0 -58 -16 -71 -28c-11 0 -57 60 -67 73c26 29 72 62 155 62c93 0 160 -50 160 -131c0 -61 -40 -96 -61 -107z" />
    <glyph glyph-name="threeeighths" unicode="&#x215c;" horiz-adv-x="1006" 
d="M288 33c2 2 342 680 350 680s79 -26 76 -38s-329 -690 -347 -690c-13 6 -81 46 -79 48zM291 484v-4c21 -4 74 -34 74 -103c0 -96 -82 -143 -174 -143c-86 0 -141 35 -162 57c-2 9 40 74 58 82c15 -14 46 -31 89 -31c44 0 62 23 62 47c0 28 -25 44 -69 44h-59
c-8 10 -10 93 0 99c15 0 49 -1 67 -1c22 0 54 8 54 40c0 29 -26 44 -56 44c-31 0 -58 -16 -71 -28c-11 0 -57 60 -67 73c26 29 72 62 155 62c93 0 160 -50 160 -131c0 -61 -40 -96 -61 -107zM609 129c0 57 43 97 81 114c-32 16 -67 52 -67 100c0 90 74 132 166 132
c96 0 169 -43 169 -133c0 -47 -28 -82 -59 -97c37 -18 77 -59 77 -119c0 -91 -80 -140 -179 -140c-110 0 -188 42 -188 143zM789 293c38 0 55 15 55 41s-15 46 -52 46c-41 0 -57 -20 -57 -44c0 -25 16 -43 54 -43zM731 139c0 -33 19 -54 62 -54c44 0 65 21 65 50
c0 32 -19 57 -63 57c-46 0 -64 -25 -64 -53z" />
    <glyph glyph-name="fiveeighths" unicode="&#x215d;" horiz-adv-x="1014" 
d="M295 33c2 2 342 680 350 680s79 -26 76 -38s-329 -690 -347 -690c-13 6 -81 46 -79 48zM616 129c0 57 43 97 81 114c-32 16 -67 52 -67 100c0 90 74 132 166 132c96 0 169 -43 169 -133c0 -47 -28 -82 -59 -97c37 -18 77 -59 77 -119c0 -91 -80 -140 -179 -140
c-110 0 -188 42 -188 143zM796 293c38 0 55 15 55 41s-15 46 -52 46c-41 0 -57 -20 -57 -44c0 -25 16 -43 54 -43zM738 139c0 -33 19 -54 62 -54c44 0 65 21 65 50c0 32 -19 57 -63 57c-46 0 -64 -25 -64 -53zM26 290c3 17 43 93 48 93c6 0 50 -44 110 -44c36 0 61 18 61 55
c0 31 -19 50 -55 52c-29 1 -53 -12 -65 -18l-62 36c0 52 10 207 21 245c8 3 243 10 268 4c0 0 1 -102 -3 -103s-174 -5 -174 -5l-4 -73c4 2 31 11 64 11c81 0 139 -53 139 -147c0 -111 -78 -166 -183 -166c-86 0 -155 44 -165 60z" />
    <glyph glyph-name="seveneighths" unicode="&#x215e;" horiz-adv-x="915" 
d="M198 33c2 2 342 680 350 680s79 -26 76 -38s-329 -690 -347 -690c-13 6 -81 46 -79 48zM518 129c0 57 43 97 81 114c-32 16 -67 52 -67 100c0 90 74 132 166 132c96 0 169 -43 169 -133c0 -47 -28 -82 -59 -97c37 -18 77 -59 77 -119c0 -91 -80 -140 -179 -140
c-110 0 -188 42 -188 143zM698 293c38 0 55 15 55 41s-15 46 -52 46c-41 0 -57 -20 -57 -44c0 -25 16 -43 54 -43zM640 139c0 -33 19 -54 62 -54c44 0 65 21 65 50c0 32 -19 57 -63 57c-46 0 -64 -25 -64 -53zM53 258l161 342l-179 -3c-6 16 -9 104 -5 111c45 6 301 4 303 4
c2 -1 11 -97 11 -97s-160 -384 -161 -384c-2 0 -107 9 -130 27z" />
    <glyph glyph-name="perthousand" unicode="&#x2030;" horiz-adv-x="1207" 
d="M173 -3c-2 3 363 713 372 718c7 3 96 -5 95 -17c-1 -13 -348 -715 -367 -720c-23 -6 -95 12 -100 19zM197 341c-100 0 -171 54 -171 179c0 122 78 174 170 174c94 0 162 -62 162 -176c0 -90 -49 -177 -161 -177zM190 447c35 0 65 19 65 68c0 41 -18 80 -59 80
c-50 0 -67 -36 -67 -80c0 -49 31 -68 61 -68zM648 -10c-103 0 -175 55 -175 184c0 126 80 178 174 178c96 0 165 -64 165 -180c0 -93 -50 -182 -164 -182zM640 95c38 0 72 21 72 74c0 44 -20 85 -65 85c-54 0 -74 -39 -74 -85c0 -53 34 -74 67 -74zM1017 -10
c-103 0 -175 55 -175 184c0 126 80 178 174 178c96 0 165 -64 165 -180c0 -93 -50 -182 -164 -182zM1009 95c38 0 72 21 72 74c0 44 -20 85 -66 85c-54 0 -73 -39 -73 -85c0 -53 34 -74 67 -74z" />
    <glyph glyph-name="minus" unicode="&#x2212;" horiz-adv-x="516" 
d="M459 254l-397 -5c-5 4 -12 86 -10 86l411 4s1 -81 -4 -85z" />
    <glyph glyph-name="plusminus" unicode="&#xb1;" horiz-adv-x="555" 
d="M326 215c-34 -6 -65 -14 -94 -3c-3 61 -5 130 -6 131c-3 2 -177 -7 -182 -2c-5 4 -11 86 -9 86l194 3v196c33 6 62 4 93 -1v-187h194s1 -81 -4 -85c-5 -5 -177 -12 -182 -15c-3 -2 -3 -64 -4 -123zM494 61l-425 -6c-5 5 -12 87 -10 87c0 0 355 11 439 4c0 0 1 -81 -4 -85
z" />
    <glyph glyph-name="multiply" unicode="&#xd7;" horiz-adv-x="485" 
d="M390 87c-9 6 -150 140 -152 140c-4 -1 -129 -144 -135 -145c-7 0 -70 53 -68 55l144 154l-139 138c19 28 41 47 67 65l132 -132l136 137s58 -57 58 -63c-1 -7 -116 -133 -118 -139c-1 -5 139 -143 139 -147s-54 -68 -64 -63z" />
    <glyph glyph-name="divide" unicode="&#xf7;" horiz-adv-x="481" 
d="M441 254l-397 -5c-5 4 -12 86 -10 86l411 4s1 -81 -4 -85zM163 481c0 50 15 87 83 87c50 0 86 -34 86 -92c0 -42 -36 -75 -86 -75c-49 0 -83 29 -83 80zM163 97c0 50 15 87 83 87c52 0 87 -34 87 -93c0 -41 -35 -74 -87 -74c-49 0 -83 28 -83 80z" />
    <glyph glyph-name="notequal" unicode="&#x2260;" horiz-adv-x="489" 
d="M39 347c-6 1 -7 85 -5 82c0 0 144 0 261 -2c24 42 45 76 56 90c7 8 59 -28 59 -28l-37 -66c39 -1 66 -5 69 -9c10 -16 -8 -74 -10 -75c-1 -1 -47 0 -107 1l-60 -107c85 2 164 4 164 2c0 -4 -8 -100 -9 -100s-110 1 -209 2l-55 -97s-52 17 -51 24c2 6 16 35 35 75
c-47 2 -82 3 -83 5c-5 4 -18 74 -10 80c1 1 66 3 141 6l59 112c-101 2 -206 5 -208 5z" />
    <glyph glyph-name="approxequal" unicode="&#x2248;" horiz-adv-x="517" 
d="M84 321c-3 -4 -45 59 -45 64s58 58 132 58c65 0 115 -58 170 -58c41 0 72 31 81 42c10 -6 52 -54 52 -56s-60 -76 -140 -76c-83 0 -126 56 -175 56c-39 0 -71 -27 -75 -30zM88 144c-4 -3 -45 60 -45 64c0 5 58 58 131 58c65 0 115 -57 170 -57c41 0 72 30 81 41
c10 -5 53 -52 53 -54c0 -3 -60 -77 -141 -77c-83 0 -125 56 -174 56c-39 0 -72 -28 -75 -31z" />
    <glyph glyph-name="lessequal" unicode="&#x2264;" horiz-adv-x="505" 
d="M51 335c-7 0 -9 77 -9 83c0 5 381 161 387 156s32 -74 29 -79s-270 -120 -272 -122s255 -98 259 -98c5 0 -25 -81 -29 -86s-358 146 -365 146zM455 54l-404 -6c-5 4 -12 87 -10 87l418 4s1 -81 -4 -85z" />
    <glyph glyph-name="greaterequal" unicode="&#x2265;" horiz-adv-x="514" 
d="M459 54l-405 -6c-5 4 -12 87 -10 87l419 4s1 -81 -4 -85zM91 173c-4 5 -32 86 -28 86c5 0 290 113 288 115s-295 124 -298 129c-3 6 22 73 28 78s391 -148 391 -154c0 -5 7 -83 -1 -83s-376 -176 -380 -171z" />
    <glyph glyph-name="logicalnot" unicode="&#xac;" horiz-adv-x="515" 
d="M44 263c-7 1 -4 86 -2 86c12 3 322 8 417 10c0 0 3 -179 2 -250c0 -6 -87 -17 -88 -10c-5 34 -5 108 -5 161c-104 -5 -268 -4 -324 3z" />
    <glyph glyph-name="Delta" unicode="&#x2206;" horiz-adv-x="665" 
d="M16 5c0 2 269 698 271 698s99 2 99 2c2 -11 273 -679 260 -705c-8 -15 -630 -19 -630 5zM207 122c8 -2 242 -2 242 3s-113 323 -118 340c2 0 -128 -338 -124 -343z" />
    <glyph glyph-name="Omega" unicode="&#x2126;" horiz-adv-x="747" 
d="M338 -1l-265 -2c-17 15 -15 136 -15 136l99 7s-119 87 -119 246c0 215 162 325 335 325c230 0 338 -136 338 -311c0 -162 -132 -263 -132 -263l101 2s6 -133 2 -139c-4 -8 -270 1 -274 2c-4 2 -4 121 -1 122c66 38 136 132 136 234c0 127 -58 194 -168 194
c-100 0 -163 -62 -163 -195c0 -115 61 -199 129 -233z" />
    <glyph glyph-name="mu" unicode="&#xb5;" horiz-adv-x="581" 
d="M525 2c-10 -13 -140 -9 -149 0c1 21 -1 50 0 57c-16 -24 -58 -73 -129 -73c-17 0 -31 3 -40 9c-2 -81 -5 -151 -7 -208c0 0 -143 -5 -144 4c-6 77 -6 285 -6 408c0 72 9 243 13 290c1 10 151 8 155 5c2 -11 -8 -239 -8 -278c0 -56 23 -90 76 -90c54 0 84 42 84 86
c1 29 5 272 8 275c3 4 148 2 152 -4c2 -4 -1 -268 -5 -481z" />
    <glyph glyph-name="pi" unicode="&#x3c0;" horiz-adv-x="608" 
d="M586 351c-19 0 -38 -1 -58 -1c-1 -110 -4 -314 -6 -350c-1 -10 -152 -8 -154 -6c-3 2 -1 234 0 353c-33 0 -67 -1 -100 -1c-1 -121 -2 -343 -5 -346c-3 -4 -149 -2 -152 4c-1 3 -3 196 -3 340c-22 0 -51 -1 -73 -1c-29 48 -23 128 -23 128s15 19 130 25
c79 4 432 -1 441 -8c5 -15 10 -82 3 -137z" />
    <glyph glyph-name="degree" unicode="&#xb0;" horiz-adv-x="385" 
d="M198 387c-102 0 -171 51 -171 168c0 111 74 161 171 161c93 0 161 -63 161 -163c0 -84 -48 -166 -161 -166zM196 469c43 0 72 28 72 79c0 41 -21 85 -72 85c-57 0 -77 -42 -77 -85c0 -50 42 -79 77 -79z" />
    <glyph glyph-name="afii61289" unicode="&#x2113;" horiz-adv-x="357" 
d="M278 125l58 -25s-22 -121 -155 -121c-83 0 -135 51 -135 134c0 99 41 249 107 478c10 37 5 64 -20 64c-33 0 -53 -52 -53 -107c0 -22 2 -57 10 -84l-38 -21c-19 40 -23 77 -23 115c0 116 70 175 163 175c76 0 123 -53 123 -138c0 -122 -110 -400 -110 -484
c0 -16 7 -37 31 -37c31 0 42 51 42 51z" />
    <glyph glyph-name="estimated" unicode="&#x212e;" horiz-adv-x="775" 
d="M234 132c0 0 65 -63 181 -63c140 0 229 117 229 117s35 -17 61 -49c0 0 -84 -146 -292 -146c-202 0 -377 109 -377 358c0 225 170 369 371 368c235 -1 382 -178 325 -392c-52 -18 -501 -2 -501 -2c-5 -92 3 -191 3 -191zM231 402c119 -9 324 0 324 0c7 36 0 170 0 170
c-13 32 -84 63 -152 63s-143 -29 -169 -62c0 0 -7 -99 -3 -171z" />
    <glyph glyph-name="eng" unicode="&#x14b;" horiz-adv-x="583" 
d="M373 12c0 13 2 220 2 256c0 54 -24 92 -76 92c-55 0 -88 -43 -88 -82c0 -34 -1 -274 -4 -278s-149 -2 -152 4c-2 4 -6 265 -3 477c9 13 149 19 158 10c-1 -21 -2 -54 -3 -60c22 33 71 70 152 70c109 0 177 -87 177 -216c0 -67 -6 -242 -6 -284c0 -142 -66 -202 -145 -224
c-6 -1 -76 46 -86 102c14 3 75 37 74 133z" />
    <glyph glyph-name="Eng" unicode="&#x14a;" horiz-adv-x="737" 
d="M665 4c-2 -143 -61 -208 -148 -227c-6 -1 -76 46 -86 102c14 3 73 25 74 121c-19 24 -169 253 -266 403c0 -144 6 -324 3 -399c-34 -9 -173 -10 -174 0c-5 57 -8 620 0 688c4 18 160 18 165 11c11 -17 188 -286 272 -429c2 160 -11 364 -7 416c34 9 167 7 173 1
s-4 -618 -6 -687z" />
    <glyph glyph-name="infinity" unicode="&#x221e;" horiz-adv-x="685" 
d="M480 115c-60 0 -110 19 -139 62c-26 -37 -68 -62 -127 -62c-100 0 -171 54 -171 179c0 123 78 174 170 174c55 0 100 -21 129 -61c31 41 81 61 137 61c95 0 163 -62 163 -175c0 -91 -50 -178 -162 -178zM207 221c34 0 65 19 65 68c0 41 -18 80 -60 80
c-49 0 -66 -36 -66 -80c0 -49 31 -68 61 -68zM473 221c35 0 65 19 65 68c0 41 -17 80 -59 80c-50 0 -66 -36 -66 -80c0 -49 30 -68 60 -68z" />
    <glyph glyph-name="partialdiff" unicode="&#x2202;" horiz-adv-x="564" 
d="M332 416l3 4c-16 76 -108 157 -205 192c9 30 102 103 119 103c82 -25 283 -172 283 -429c0 -210 -135 -297 -255 -297c-142 0 -256 77 -256 241c0 158 106 222 204 222c45 0 80 -16 107 -36zM362 232c0 48 -28 99 -97 99c-65 0 -93 -51 -93 -105c0 -55 33 -99 98 -99
c64 0 92 48 92 105z" />
    <glyph glyph-name="integral" unicode="&#x222b;" horiz-adv-x="621" 
d="M189 -10c48 315 84 559 92 597c20 107 86 166 195 166c90 0 140 -34 156 -50c-7 -26 -48 -120 -55 -117c-17 8 -38 23 -74 23c-43 0 -66 -35 -72 -70c-29 -184 -52 -371 -84 -554c-22 -132 -73 -209 -202 -209c-90 0 -140 34 -156 50c7 26 48 120 55 117
c17 -9 38 -24 74 -24c43 0 66 35 71 71z" />
    <glyph glyph-name="radical" unicode="&#x221a;" horiz-adv-x="594" 
d="M238 -55l-152 358s-70 2 -76 3c-6 2 0 110 0 109c0 0 103 5 148 0l120 -276s219 661 223 665c3 4 88 -16 97 -21s-270 -840 -270 -840z" />
    <glyph glyph-name="summation" unicode="&#x2211;" horiz-adv-x="547" 
d="M423 284l-2 -36l-191 -315c90 2 242 3 270 1c8 -33 6 -133 0 -150c9 -5 -389 -7 -470 1v115c0 30 167 280 220 361c-34 49 -214 317 -215 341c-1 15 1 85 2 96c92 6 463 8 475 3c7 -18 7 -119 1 -152c-27 -3 -195 -4 -276 -1z" />
    <glyph glyph-name="product" unicode="&#x220f;" horiz-adv-x="749" 
d="M678 -212c-4 -21 -177 -12 -178 -4c0 38 0 634 -1 752c-68 -1 -185 -1 -247 0c0 -107 -2 -699 -4 -751c-34 -9 -179 -12 -180 -2c-5 57 -13 848 -4 916c2 12 525 12 618 -1c7 -5 7 -841 -4 -910z" />
    <glyph glyph-name="lozenge" unicode="&#x25ca;" horiz-adv-x="649" 
d="M301 -37c0 5 -281 376 -281 376c17 56 244 395 253 404s70 1 73 -4s282 -366 282 -405c5 -14 -259 -368 -259 -368s-68 -8 -68 -3zM331 160c0 -3 124 185 128 188c3 0 -143 200 -146 200c-5 0 -125 -192 -122 -198c4 -5 140 -187 140 -190z" />
    <glyph glyph-name="uniF8FF" unicode="&#xf8ff;" horiz-adv-x="612" 
d="M50 720h512v-720h-512v720zM266 283h48c0 95 136 100 136 197c0 65 -48 119 -138 119c-111 0 -133 -91 -133 -136h47c0 49 24 93 86 93c56 0 87 -34 87 -76c0 -71 -133 -85 -133 -197zM255 194v-71h68v71h-68z" />
    <glyph glyph-name="zerosuperior" unicode="&#x2070;" horiz-adv-x="444" 
d="M223 306c-125 0 -188 74 -188 243c0 172 72 247 184 247c111 0 190 -70 190 -249c0 -158 -64 -241 -186 -241zM219 416c47 0 66 38 66 125c0 90 -18 140 -65 140c-48 0 -68 -48 -68 -135c0 -89 18 -130 67 -130z" />
    <glyph glyph-name="foursuperior" unicode="&#x2074;" horiz-adv-x="429" 
d="M342 317c-33 -5 -79 -5 -113 4v82c-23 -1 -164 -3 -200 -1c-5 19 -13 76 -10 96c21 51 161 257 198 299c28 0 103 -6 129 -15l-1 -281s47 0 60 -1c3 -8 0 -94 0 -94c0 -1 -63 -2 -64 -2c0 0 1 -86 1 -87zM237 649h-4c-14 -19 -86 -121 -99 -149l97 1z" />
    <glyph glyph-name="fivesuperior" unicode="&#x2075;" horiz-adv-x="395" 
d="M18 370c3 17 43 93 48 93c6 0 50 -44 110 -44c36 0 61 18 61 55c0 31 -19 50 -55 52c-29 1 -53 -12 -65 -18l-62 36c0 52 10 207 21 245c8 3 243 10 268 4c0 0 1 -102 -3 -103s-174 -5 -174 -5l-4 -73c4 2 31 11 64 11c81 0 139 -53 139 -147c0 -111 -78 -166 -183 -166
c-86 0 -155 44 -165 60z" />
    <glyph glyph-name="sixsuperior" unicode="&#x2076;" horiz-adv-x="411" 
d="M175 607l2 -2c18 11 42 19 70 19c69 0 143 -44 143 -151c0 -111 -80 -163 -180 -163c-84 0 -178 58 -178 200c0 172 140 274 195 291c11 0 79 -52 85 -74c-63 -23 -126 -75 -137 -120zM154 475c0 -36 18 -65 61 -65s65 27 65 61s-18 66 -62 66c-46 0 -64 -32 -64 -62z
" />
    <glyph glyph-name="sevensuperior" unicode="&#x2077;" horiz-adv-x="354" 
d="M47 336l161 342l-179 -3c-6 16 -9 104 -5 111c45 6 301 4 303 4c2 -1 11 -97 11 -97s-160 -384 -161 -384c-2 0 -107 9 -130 27z" />
    <glyph glyph-name="eightsuperior" unicode="&#x2078;" horiz-adv-x="430" 
d="M32 451c0 57 43 97 81 114c-32 16 -67 52 -67 100c0 90 74 132 166 132c96 0 169 -43 169 -133c0 -47 -28 -82 -59 -97c37 -18 77 -59 77 -119c0 -91 -80 -140 -179 -140c-110 0 -188 42 -188 143zM212 615c38 0 55 15 55 41s-15 46 -52 46c-41 0 -57 -20 -57 -44
c0 -25 16 -43 54 -43zM154 461c0 -33 19 -54 62 -54c44 0 65 21 65 50c0 32 -19 57 -63 57c-46 0 -64 -25 -64 -53z" />
    <glyph glyph-name="ninesuperior" unicode="&#x2079;" horiz-adv-x="411" 
d="M235 504l-2 3c-18 -12 -42 -20 -75 -20c-63 0 -136 44 -136 150c0 112 80 164 179 164c84 0 178 -59 178 -201c0 -171 -140 -274 -195 -290c-11 0 -79 52 -86 74c64 23 126 75 137 120zM257 636c0 35 -19 65 -61 65c-43 0 -65 -27 -65 -62c0 -33 19 -65 62 -65
c45 0 64 32 64 62z" />
    <glyph glyph-name="zeroinferior" unicode="&#x2080;" horiz-adv-x="444" 
d="M223 -132c-125 0 -188 74 -188 243c0 172 72 247 184 247c111 0 190 -70 190 -249c0 -158 -64 -241 -186 -241zM219 -22c47 0 66 38 66 125c0 90 -18 140 -65 140c-48 0 -68 -48 -68 -135c0 -89 18 -130 67 -130z" />
    <glyph glyph-name="oneinferior" unicode="&#x2081;" horiz-adv-x="307" 
d="M254 -118c-5 -2 -118 -7 -122 -1c-4 23 2 231 4 339c0 0 -88 -42 -97 -41c-6 1 -30 93 -28 96c13 13 161 78 177 82c13 -1 62 -9 70 -18c0 0 0 -430 -4 -457z" />
    <glyph glyph-name="twoinferior" unicode="&#x2082;" horiz-adv-x="380" 
d="M195 -7l1 -2l141 3c8 -7 5 -115 -2 -114c-13 -1 -289 -3 -293 -1c-4 3 -17 77 -14 93c88 93 186 167 186 224c0 24 -14 47 -50 47c-43 0 -64 -27 -72 -37c-14 9 -65 71 -64 81c1 11 50 73 159 73c91 0 158 -51 158 -141c0 -77 -62 -142 -150 -226z" />
    <glyph glyph-name="threeinferior" unicode="&#x2083;" horiz-adv-x="389" 
d="M283 122v-4c21 -4 74 -34 74 -103c0 -96 -82 -143 -174 -143c-86 0 -141 35 -162 57c-2 9 40 74 58 82c15 -14 46 -31 89 -31c44 0 62 23 62 47c0 28 -25 44 -69 44h-59c-8 10 -10 93 0 99c15 0 49 -1 67 -1c22 0 54 8 54 40c0 29 -26 44 -56 44c-31 0 -58 -16 -71 -28
c-11 0 -57 60 -67 73c26 29 72 62 155 62c93 0 160 -50 160 -131c0 -61 -40 -96 -61 -107z" />
    <glyph glyph-name="fourinferior" unicode="&#x2084;" horiz-adv-x="429" 
d="M342 -121c-33 -5 -79 -5 -113 4v82c-23 -1 -164 -3 -200 -1c-5 19 -13 76 -10 96c21 51 161 257 198 299c28 0 103 -6 129 -15l-1 -281s47 0 60 -1c3 -8 0 -94 0 -94c0 -1 -63 -2 -64 -2c0 0 1 -86 1 -87zM237 211h-4c-14 -19 -86 -121 -99 -149l97 1z" />
    <glyph glyph-name="fiveinferior" unicode="&#x2085;" horiz-adv-x="395" 
d="M18 -68c3 17 43 93 48 93c6 0 50 -44 110 -44c36 0 61 18 61 55c0 31 -19 50 -55 52c-29 1 -53 -12 -65 -18l-62 36c0 52 10 207 21 245c8 3 243 10 268 4c0 0 1 -102 -3 -103s-174 -5 -174 -5l-4 -73c4 2 31 11 64 11c81 0 139 -53 139 -147c0 -111 -78 -166 -183 -166
c-86 0 -155 44 -165 60z" />
    <glyph glyph-name="sixinferior" unicode="&#x2086;" horiz-adv-x="411" 
d="M175 169l2 -2c18 11 42 19 70 19c69 0 143 -44 143 -151c0 -111 -80 -163 -180 -163c-84 0 -178 58 -178 200c0 172 140 274 195 291c11 0 79 -52 85 -74c-63 -23 -126 -75 -137 -120zM154 37c0 -36 18 -65 61 -65s65 27 65 61s-18 66 -62 66c-46 0 -64 -32 -64 -62z" />
    <glyph glyph-name="seveninferior" unicode="&#x2087;" horiz-adv-x="355" 
d="M47 -102l161 342l-179 -3c-6 16 -9 104 -5 111c45 6 301 4 303 4c2 -1 11 -97 11 -97s-160 -384 -161 -384c-2 0 -107 9 -130 27z" />
    <glyph glyph-name="eightinferior" unicode="&#x2088;" horiz-adv-x="431" 
d="M32 13c0 57 43 97 81 114c-32 16 -67 52 -67 100c0 90 74 132 166 132c96 0 169 -43 169 -133c0 -47 -28 -82 -59 -97c37 -18 77 -59 77 -119c0 -91 -80 -140 -179 -140c-110 0 -188 42 -188 143zM212 177c38 0 55 15 55 41s-15 46 -52 46c-41 0 -57 -20 -57 -44
c0 -25 16 -43 54 -43zM154 23c0 -33 19 -54 62 -54c44 0 65 21 65 50c0 32 -19 57 -63 57c-46 0 -64 -25 -64 -53z" />
    <glyph glyph-name="nineinferior" unicode="&#x2089;" horiz-adv-x="411" 
d="M235 66l-2 3c-18 -12 -42 -20 -75 -20c-63 0 -136 44 -136 150c0 112 80 164 179 164c84 0 178 -59 178 -201c0 -171 -140 -274 -195 -290c-11 0 -79 52 -86 74c64 23 126 75 137 120zM257 198c0 35 -19 65 -61 65c-43 0 -65 -27 -65 -62c0 -33 19 -65 62 -65
c45 0 64 32 64 62z" />
    <glyph glyph-name="zero.denom" horiz-adv-x="444" 
d="M223 -12c-125 0 -188 74 -188 243c0 172 72 247 184 247c111 0 190 -70 190 -249c0 -158 -64 -241 -186 -241zM219 98c47 0 66 38 66 125c0 90 -18 140 -65 140c-48 0 -68 -48 -68 -135c0 -89 18 -130 67 -130z" />
    <glyph glyph-name="one.denom" horiz-adv-x="307" 
d="M254 2c-5 -2 -118 -7 -122 -1c-4 23 2 231 4 339c0 0 -88 -42 -97 -41c-6 1 -30 93 -28 96c13 13 161 78 177 82c13 -1 62 -9 70 -18c0 0 0 -430 -4 -457z" />
    <glyph glyph-name="two.denom" horiz-adv-x="380" 
d="M195 113l1 -2l141 3c8 -7 5 -115 -2 -114c-13 -1 -289 -3 -293 -1c-4 3 -17 77 -14 93c88 93 186 167 186 224c0 24 -14 47 -50 47c-43 0 -64 -27 -72 -37c-14 9 -65 71 -64 81c1 11 50 73 159 73c91 0 158 -51 158 -141c0 -77 -62 -142 -150 -226z" />
    <glyph glyph-name="three.denom" horiz-adv-x="389" 
d="M283 242v-4c21 -4 74 -34 74 -103c0 -96 -82 -143 -174 -143c-86 0 -141 35 -162 57c-2 9 40 74 58 82c15 -14 46 -31 89 -31c44 0 62 23 62 47c0 28 -25 44 -69 44h-59c-8 10 -10 93 0 99c15 0 49 -1 67 -1c22 0 54 8 54 40c0 29 -26 44 -56 44c-31 0 -58 -16 -71 -28
c-11 0 -57 60 -67 73c26 29 72 62 155 62c93 0 160 -50 160 -131c0 -61 -40 -96 -61 -107z" />
    <glyph glyph-name="four.denom" horiz-adv-x="429" 
d="M342 -1c-33 -5 -79 -5 -113 4v82c-23 -1 -164 -3 -200 -1c-5 19 -13 76 -10 96c21 51 161 257 198 299c28 0 103 -6 129 -15l-1 -281s47 0 60 -1c3 -8 0 -94 0 -94c0 -1 -63 -2 -64 -2c0 0 1 -86 1 -87zM237 331h-4c-14 -19 -86 -121 -99 -149l97 1z" />
    <glyph glyph-name="five.denom" horiz-adv-x="395" 
d="M18 52c3 17 43 93 48 93c6 0 50 -44 110 -44c36 0 61 18 61 55c0 31 -19 50 -55 52c-29 1 -53 -12 -65 -18l-62 36c0 52 10 207 21 245c8 3 243 10 268 4c0 0 1 -102 -3 -103s-174 -5 -174 -5l-4 -73c4 2 31 11 64 11c81 0 139 -53 139 -147c0 -111 -78 -166 -183 -166
c-86 0 -155 44 -165 60z" />
    <glyph glyph-name="six.denom" horiz-adv-x="411" 
d="M175 289l2 -2c18 11 42 19 70 19c69 0 143 -44 143 -151c0 -111 -80 -163 -180 -163c-84 0 -178 58 -178 200c0 172 140 274 195 291c11 0 79 -52 85 -74c-63 -23 -126 -75 -137 -120zM154 157c0 -36 18 -65 61 -65s65 27 65 61s-18 66 -62 66c-46 0 -64 -32 -64 -62z
" />
    <glyph glyph-name="seven.denom" horiz-adv-x="355" 
d="M47 18l161 342l-179 -3c-6 16 -9 104 -5 111c45 6 301 4 303 4c2 -1 11 -97 11 -97s-160 -384 -161 -384c-2 0 -107 9 -130 27z" />
    <glyph glyph-name="eight.denom" horiz-adv-x="431" 
d="M32 133c0 57 43 97 81 114c-32 16 -67 52 -67 100c0 90 74 132 166 132c96 0 169 -43 169 -133c0 -47 -28 -82 -59 -97c37 -18 77 -59 77 -119c0 -91 -80 -140 -179 -140c-110 0 -188 42 -188 143zM212 297c38 0 55 15 55 41s-15 46 -52 46c-41 0 -57 -20 -57 -44
c0 -25 16 -43 54 -43zM154 143c0 -33 19 -54 62 -54c44 0 65 21 65 50c0 32 -19 57 -63 57c-46 0 -64 -25 -64 -53z" />
    <glyph glyph-name="nine.denom" horiz-adv-x="411" 
d="M235 186l-2 3c-18 -12 -42 -20 -75 -20c-63 0 -136 44 -136 150c0 112 80 164 179 164c84 0 178 -59 178 -201c0 -171 -140 -274 -195 -290c-11 0 -79 52 -86 74c64 23 126 75 137 120zM257 318c0 35 -19 65 -61 65c-43 0 -65 -27 -65 -62c0 -33 19 -65 62 -65
c45 0 64 32 64 62z" />
    <glyph glyph-name="zero.num" horiz-adv-x="444" 
d="M223 216c-125 0 -188 74 -188 243c0 172 72 247 184 247c111 0 190 -70 190 -249c0 -158 -64 -241 -186 -241zM219 326c47 0 66 38 66 125c0 90 -18 140 -65 140c-48 0 -68 -48 -68 -135c0 -89 18 -130 67 -130z" />
    <glyph glyph-name="one.num" horiz-adv-x="307" 
d="M254 230c-5 -2 -118 -7 -122 -1c-4 23 2 231 4 339c0 0 -88 -42 -97 -41c-6 1 -30 93 -28 96c13 13 161 78 177 82c13 -1 62 -9 70 -18c0 0 0 -430 -4 -457z" />
    <glyph glyph-name="two.num" horiz-adv-x="380" 
d="M195 341l1 -2l141 3c8 -7 5 -115 -2 -114c-13 -1 -289 -3 -293 -1c-4 3 -17 77 -14 93c88 93 186 167 186 224c0 24 -14 47 -50 47c-43 0 -64 -27 -72 -37c-14 9 -65 71 -64 81c1 11 50 73 159 73c91 0 158 -51 158 -141c0 -77 -62 -142 -150 -226z" />
    <glyph glyph-name="three.num" horiz-adv-x="389" 
d="M283 470v-4c21 -4 74 -34 74 -103c0 -96 -82 -143 -174 -143c-86 0 -141 35 -162 57c-2 9 40 74 58 82c15 -14 46 -31 89 -31c44 0 62 23 62 47c0 28 -25 44 -69 44h-59c-8 10 -10 93 0 99c15 0 49 -1 67 -1c22 0 54 8 54 40c0 29 -26 44 -56 44c-31 0 -58 -16 -71 -28
c-11 0 -57 60 -67 73c26 29 72 62 155 62c93 0 160 -50 160 -131c0 -61 -40 -96 -61 -107z" />
    <glyph glyph-name="four.num" horiz-adv-x="429" 
d="M342 227c-33 -5 -79 -5 -113 4v82c-23 -1 -164 -3 -200 -1c-5 19 -13 76 -10 96c21 51 161 257 198 299c28 0 103 -6 129 -15l-1 -281s47 0 60 -1c3 -8 0 -94 0 -94c0 -1 -63 -2 -64 -2c0 0 1 -86 1 -87zM237 559h-4c-14 -19 -86 -121 -99 -149l97 1z" />
    <glyph glyph-name="five.num" horiz-adv-x="397" 
d="M19 280c3 17 43 93 48 93c6 0 50 -44 110 -44c36 0 61 18 61 55c0 31 -19 50 -55 52c-29 1 -53 -12 -65 -18l-62 36c0 52 10 207 21 245c8 3 243 10 268 4c0 0 1 -102 -3 -103s-174 -5 -174 -5l-4 -73c4 2 31 11 64 11c81 0 139 -53 139 -147c0 -111 -78 -166 -183 -166
c-86 0 -155 44 -165 60z" />
    <glyph glyph-name="six.num" horiz-adv-x="411" 
d="M175 517l2 -2c18 11 42 19 70 19c69 0 143 -44 143 -151c0 -111 -80 -163 -180 -163c-84 0 -178 58 -178 200c0 172 140 274 195 291c11 0 79 -52 85 -74c-63 -23 -126 -75 -137 -120zM154 385c0 -36 18 -65 61 -65s65 27 65 61s-18 66 -62 66c-46 0 -64 -32 -64 -62z
" />
    <glyph glyph-name="seven.num" horiz-adv-x="354" 
d="M47 246l161 342l-179 -3c-6 16 -9 104 -5 111c45 6 301 4 303 4c2 -1 11 -97 11 -97s-160 -384 -161 -384c-2 0 -107 9 -130 27z" />
    <glyph glyph-name="eight.num" horiz-adv-x="431" 
d="M32 361c0 57 43 97 81 114c-32 16 -67 52 -67 100c0 90 74 132 166 132c96 0 169 -43 169 -133c0 -47 -28 -82 -59 -97c37 -18 77 -59 77 -119c0 -91 -80 -140 -179 -140c-110 0 -188 42 -188 143zM212 525c38 0 55 15 55 41s-15 46 -52 46c-41 0 -57 -20 -57 -44
c0 -25 16 -43 54 -43zM154 371c0 -33 19 -54 62 -54c44 0 65 21 65 50c0 32 -19 57 -63 57c-46 0 -64 -25 -64 -53z" />
    <glyph glyph-name="nine.num" horiz-adv-x="411" 
d="M235 414l-2 3c-18 -12 -42 -20 -75 -20c-63 0 -136 44 -136 150c0 112 80 164 179 164c84 0 178 -59 178 -201c0 -171 -140 -274 -195 -290c-11 0 -79 52 -86 74c64 23 126 75 137 120zM257 546c0 35 -19 65 -61 65c-43 0 -65 -27 -65 -62c0 -33 19 -65 62 -65
c45 0 64 32 64 62z" />
    <glyph glyph-name="arrowleft" unicode="&#x2190;" horiz-adv-x="734" 
d="M299 -11c-3 1 -263 289 -263 310c0 17 259 306 264 310s79 -51 79 -55c0 -3 -110 -139 -148 -189c107 4 413 7 447 4c15 -13 16 -119 11 -121c-4 -2 -349 -9 -458 -9c38 -50 147 -184 147 -188c0 -7 -76 -63 -79 -62z" />
    <glyph glyph-name="arrowup" unicode="&#x2191;" horiz-adv-x="714" 
d="M45 364c1 3 290 263 311 263c17 0 306 -259 310 -264s-51 -79 -55 -79c-2 0 -140 109 -189 148c4 -108 7 -413 4 -447c-14 -15 -119 -16 -121 -12s-9 350 -10 459c-49 -38 -183 -147 -187 -147c-7 0 -64 76 -63 79z" />
    <glyph glyph-name="arrowright" unicode="&#x2192;" horiz-adv-x="734" 
d="M430 609c3 -1 263 -290 263 -311c0 -17 -259 -305 -264 -309s-78 50 -78 54c0 2 109 139 148 188c-108 -2 -414 -6 -448 -2c-15 13 -16 118 -12 120s350 9 459 9c-38 49 -146 183 -146 188c0 7 75 64 78 63z" />
    <glyph glyph-name="arrowdown" unicode="&#x2193;" horiz-adv-x="714" 
d="M664 232c-1 -3 -289 -262 -310 -262c-17 0 -306 259 -310 264s51 78 55 78c1 0 139 -110 189 -148c-4 107 -7 414 -4 448c13 15 118 16 120 11c2 -4 10 -350 10 -458c50 38 183 146 188 146c7 0 63 -76 62 -79z" />
    <glyph glyph-name="uni2196" unicode="&#x2196;" horiz-adv-x="734" 
d="M99 126c-1 3 19 390 34 405c12 12 399 33 406 32c6 -1 19 -92 16 -94c-1 -2 -175 -21 -237 -29c78 -73 295 -288 318 -313c2 -20 -73 -96 -78 -95c-4 2 -253 241 -330 319c-8 -62 -26 -234 -29 -237c-6 -5 -98 9 -100 12z" />
    <glyph glyph-name="uni2197" unicode="&#x2197;" horiz-adv-x="714" 
d="M180 564c3 1 391 -19 406 -34c12 -12 33 -399 32 -406c-1 -6 -92 -19 -94 -17s-21 177 -29 239c-73 -79 -287 -297 -313 -319c-20 -1 -96 72 -94 77c1 5 240 254 318 331c-62 8 -234 26 -237 29c-5 5 8 99 11 100z" />
    <glyph glyph-name="uni2198" unicode="&#x2198;" horiz-adv-x="734" 
d="M630 472c1 -3 -19 -391 -34 -406c-12 -12 -399 -33 -405 -32c-7 1 -20 91 -17 94c1 1 176 21 238 29c-78 73 -297 287 -319 314c-1 19 72 95 77 93c4 -2 254 -241 331 -317c8 61 26 232 30 235c5 6 97 -7 99 -10z" />
    <glyph glyph-name="uni2199" unicode="&#x2199;" horiz-adv-x="714" 
d="M528 33c-2 -2 -389 19 -404 33c-12 12 -33 399 -32 406c1 6 91 19 94 17c0 -1 20 -176 28 -239c73 79 288 297 314 320c20 1 95 -72 93 -77c-1 -4 -240 -255 -317 -331c62 -8 233 -27 236 -30c5 -5 -9 -98 -12 -99z" />
    <glyph glyph-name="parenleft.case" horiz-adv-x="384" 
d="M333 -72c-3 0 -303 47 -303 437c0 387 312 422 313 420c8 -14 15 -94 15 -101c0 -10 -206 -12 -206 -322c0 -305 217 -327 217 -330c-3 -35 -32 -104 -36 -104z" />
    <glyph glyph-name="parenright.case" horiz-adv-x="384" 
d="M50 787c3 0 303 -47 303 -437c0 -387 -312 -422 -313 -420c-8 14 -23 95 -23 102c0 10 214 11 214 321c0 306 -208 328 -208 331c4 35 23 103 27 103z" />
    <glyph glyph-name="hyphen.case" horiz-adv-x="403" 
d="M348 405c7 -21 -1 -120 -3 -120c-3 -1 -261 -8 -281 -5c-14 12 -16 116 -12 118s292 14 296 7z" />
    <glyph glyph-name="bracketleft.case" horiz-adv-x="378" 
d="M197 18c0 -1 154 -4 154 -4s1 -106 -3 -108c-3 -2 -280 7 -281 7s-5 856 -5 856l289 4c1 0 4 -101 1 -104c-3 -2 -144 -6 -156 -5c-6 -6 1 -645 1 -646z" />
    <glyph glyph-name="bracketright.case" horiz-adv-x="373" 
d="M28 23c0 0 154 -6 154 -5s10 646 3 646c-6 0 -155 2 -158 4c-3 3 0 103 1 103l293 -2s-24 -856 -25 -856s-261 0 -265 2s-3 108 -3 108z" />
    <glyph glyph-name="braceleft.case" horiz-adv-x="333" 
d="M153 341v-3c31 -10 84 -42 84 -97c0 -63 -39 -119 -39 -172c0 -52 29 -66 99 -66c4 -18 3 -101 1 -101c-139 0 -218 38 -218 145c0 57 36 102 36 174c0 52 -55 58 -92 59c-9 0 -10 114 -4 114c78 0 111 7 111 56c0 27 -31 114 -31 166c0 119 87 166 203 166
c10 -26 7 -102 0 -102c-55 0 -101 -16 -101 -78c0 -44 35 -116 35 -164c0 -53 -51 -91 -84 -97z" />
    <glyph glyph-name="bar.case" horiz-adv-x="201" 
d="M71 -163c-3 10 -13 951 -9 957c8 12 77 7 77 6v-958s-66 -15 -68 -5z" />
    <glyph glyph-name="braceright.case" horiz-adv-x="332" 
d="M180 344v3c-31 10 -84 42 -84 97c0 64 39 119 39 172c0 52 -29 66 -99 66c-4 17 -3 100 -1 100c139 0 218 -37 218 -144c0 -58 -36 -102 -36 -174c0 -52 55 -58 92 -58c9 0 10 -114 4 -114c-78 0 -111 -8 -111 -57c0 -27 31 -115 31 -167c0 -119 -86 -166 -201 -166
c-11 26 -8 102 0 102c54 0 99 17 99 79c0 44 -35 116 -35 165c0 52 51 90 84 96z" />
    <glyph glyph-name="guilsinglleft.case" horiz-adv-x="306" 
d="M198 102c-2 1 -167 249 -167 256s165 234 169 237s53 -34 53 -37s-105 -190 -104 -194s110 -206 110 -211s-59 -52 -61 -51z" />
    <glyph glyph-name="guilsinglright.case" horiz-adv-x="306" 
d="M108 595c2 -1 166 -240 166 -247s-164 -241 -168 -244s-53 34 -53 37s105 201 104 205s-110 192 -110 197c0 6 59 53 61 52z" />
    <glyph glyph-name="guillemotleft.case" horiz-adv-x="528" 
d="M198 102c-2 1 -167 249 -167 256s165 234 169 237s53 -34 53 -37s-105 -190 -104 -194s110 -206 110 -211s-59 -52 -61 -51zM419 102c-2 1 -167 249 -167 256s165 234 169 237s53 -34 53 -37s-105 -190 -104 -194s110 -206 110 -211s-59 -52 -61 -51z" />
    <glyph glyph-name="guillemotright.case" horiz-adv-x="519" 
d="M108 594c2 -1 166 -240 166 -247s-164 -241 -168 -244s-53 34 -53 37s105 201 104 205s-110 192 -110 197c0 6 59 53 61 52zM322 594c2 -1 166 -240 166 -247s-164 -241 -168 -244s-53 34 -53 37s105 201 104 205s-110 192 -110 197c0 6 59 53 61 52z" />
    <glyph glyph-name="endash.case" horiz-adv-x="522" 
d="M57 274c-7 0 -4 117 0 118c3 2 409 14 411 7s-3 -116 -6 -116s-399 -9 -405 -9z" />
    <glyph glyph-name="emdash.case" horiz-adv-x="730" 
d="M57 289c-7 0 -4 109 0 111c3 1 619 13 621 6c2 -6 -3 -108 -6 -108s-609 -9 -615 -9z" />
    <glyph glyph-name="bullet.case" horiz-adv-x="358" 
d="M183 229c-75 0 -127 35 -127 124c0 86 58 118 127 118c68 0 119 -43 119 -119c0 -63 -35 -123 -119 -123z" />
    <glyph glyph-name="periodcentered.case" horiz-adv-x="290" 
d="M252 350c0 -69 -43 -110 -121 -108c-46 2 -94 43 -94 105c0 70 42 113 120 108c47 -2 95 -28 95 -105z" />
    <glyph glyph-name="w.alt" horiz-adv-x="816" 
d="M20 475c0 7 132 29 145 29c10 0 76 -312 79 -328c5 15 106 318 112 321c21 7 119 -3 126 -4c11 -2 82 -299 87 -315c5 16 91 327 95 328c6 1 147 -29 146 -35c-14 -63 -154 -473 -159 -478c-13 -11 -156 2 -157 5c-1 1 -51 167 -82 296c-45 -134 -106 -298 -108 -301
c-12 -13 -156 2 -157 4s-128 447 -127 478z" />
    <glyph glyph-name="a.alt" horiz-adv-x="607" 
d="M248 -3c-121 0 -220 88 -220 254c0 156 125 242 232 243c89 0 136 -60 144 -73c0 8 -1 51 1 58c3 11 131 13 151 3c2 -1 -4 -472 -7 -483c-3 -3 -112 -13 -148 1c0 7 -2 48 -3 55c-8 -12 -66 -58 -150 -58zM200 245c0 -68 43 -104 98 -104c67 0 99 45 99 105
c0 66 -45 104 -99 104c-63 0 -98 -43 -98 -105z" />
    <glyph glyph-name="exclam" unicode="!" horiz-adv-x="298" 
d="M257 103c0 -64 -22 -109 -106 -109c-61 0 -106 43 -106 114c0 54 44 95 109 95c60 -1 103 -34 103 -100zM47 698c19 9 177 17 199 8c-1 -180 -59 -417 -65 -427s-61 -4 -64 0c-4 4 -72 272 -70 419z" />
    <glyph glyph-name=".null" horiz-adv-x="0" 
 />
    <glyph glyph-name=".null" horiz-adv-x="0" 
 />
    <glyph glyph-name="CR" unicode="&#xd;" horiz-adv-x="0" 
 />
    <glyph glyph-name="agrave.alt" horiz-adv-x="607" 
d="M248 -3c-121 0 -220 88 -220 254c0 156 125 242 232 243c89 0 136 -60 144 -73c0 8 -1 51 1 58c3 11 131 13 151 3c2 -1 -4 -472 -7 -483c-3 -3 -112 -13 -148 1c0 7 -2 48 -3 55c-8 -12 -66 -58 -150 -58zM200 245c0 -68 43 -104 98 -104c67 0 99 45 99 105
c0 66 -45 104 -99 104c-63 0 -98 -43 -98 -105zM153 638c-3 1 43 89 53 90c5 2 224 -116 224 -116s-29 -70 -46 -76c-4 -1 -228 101 -231 102z" />
    <glyph glyph-name="aacute.alt" horiz-adv-x="607" 
d="M248 -3c-121 0 -220 88 -220 254c0 156 125 242 232 243c89 0 136 -60 144 -73c0 8 -1 51 1 58c3 11 131 13 151 3c2 -1 -4 -472 -7 -483c-3 -3 -112 -13 -148 1c0 7 -2 48 -3 55c-8 -12 -66 -58 -150 -58zM200 245c0 -68 43 -104 98 -104c67 0 99 45 99 105
c0 66 -45 104 -99 104c-63 0 -98 -43 -98 -105zM467 638c-3 -1 -227 -103 -231 -102c-17 6 -45 76 -45 76s219 118 224 116c10 -1 55 -89 52 -90z" />
    <glyph glyph-name="acircumflex.alt" horiz-adv-x="607" 
d="M248 -3c-121 0 -220 88 -220 254c0 156 125 242 232 243c89 0 136 -60 144 -73c0 8 -1 51 1 58c3 11 131 13 151 3c2 -1 -4 -472 -7 -483c-3 -3 -112 -13 -148 1c0 7 -2 48 -3 55c-8 -12 -66 -58 -150 -58zM200 245c0 -68 43 -104 98 -104c67 0 99 45 99 105
c0 66 -45 104 -99 104c-63 0 -98 -43 -98 -105zM130 610c0 0 155 105 174 113c8 -3 174 -112 174 -112s-28 -62 -42 -68c-3 -1 -79 36 -132 67c-55 -31 -127 -70 -129 -69c-14 6 -45 69 -45 69z" />
    <glyph glyph-name="atilde.alt" horiz-adv-x="607" 
d="M248 -3c-121 0 -220 88 -220 254c0 156 125 242 232 243c89 0 136 -60 144 -73c0 8 -1 51 1 58c3 11 131 13 151 3c2 -1 -4 -472 -7 -483c-3 -3 -112 -13 -148 1c0 7 -2 48 -3 55c-8 -12 -66 -58 -150 -58zM200 245c0 -68 43 -104 98 -104c67 0 99 45 99 105
c0 66 -45 104 -99 104c-63 0 -98 -43 -98 -105zM124 656c19 25 55 52 102 52c58 0 102 -57 157 -57c33 0 52 21 68 37c8 -2 32 -61 34 -86c0 0 -31 -55 -103 -55c-59 0 -110 53 -164 53c-29 0 -54 -20 -67 -32c-6 -5 -27 78 -27 88z" />
    <glyph glyph-name="adieresis.alt" horiz-adv-x="607" 
d="M248 -3c-121 0 -220 88 -220 254c0 156 125 242 232 243c89 0 136 -60 144 -73c0 8 -1 51 1 58c3 11 131 13 151 3c2 -1 -4 -472 -7 -483c-3 -3 -112 -13 -148 1c0 7 -2 48 -3 55c-8 -12 -66 -58 -150 -58zM200 245c0 -68 43 -104 98 -104c67 0 99 45 99 105
c0 66 -45 104 -99 104c-63 0 -98 -43 -98 -105zM419 558c-53 0 -80 30 -81 76c-1 48 32 79 72 79c41 0 78 -36 78 -75c0 -41 -18 -80 -69 -80zM197 558c-52 0 -79 30 -81 76c-1 48 32 79 72 79c41 0 78 -36 78 -75c0 -41 -18 -80 -69 -80z" />
    <glyph glyph-name="amacron.alt" horiz-adv-x="607" 
d="M248 -3c-121 0 -220 88 -220 254c0 156 125 242 232 243c89 0 136 -60 144 -73c0 8 -1 51 1 58c3 11 131 13 151 3c2 -1 -4 -472 -7 -483c-3 -3 -112 -13 -148 1c0 7 -2 48 -3 55c-8 -12 -66 -58 -150 -58zM200 245c0 -68 43 -104 98 -104c67 0 99 45 99 105
c0 66 -45 104 -99 104c-63 0 -98 -43 -98 -105zM147 569c-7 0 -4 92 0 94c3 2 318 11 320 4c1 -6 -3 -91 -6 -91s-308 -7 -314 -7z" />
    <glyph glyph-name="abreve.alt" horiz-adv-x="607" 
d="M248 -3c-121 0 -220 88 -220 254c0 156 125 242 232 243c89 0 136 -60 144 -73c0 8 -1 51 1 58c3 11 131 13 151 3c2 -1 -4 -472 -7 -483c-3 -3 -112 -13 -148 1c0 7 -2 48 -3 55c-8 -12 -66 -58 -150 -58zM200 245c0 -68 43 -104 98 -104c67 0 99 45 99 105
c0 66 -45 104 -99 104c-63 0 -98 -43 -98 -105zM313 551c-80 0 -143 38 -180 91c0 12 31 43 60 58c24 -23 66 -52 122 -52c47 0 87 28 110 49c16 -5 54 -47 57 -55c-25 -41 -93 -91 -169 -91z" />
    <glyph glyph-name="aring.alt" horiz-adv-x="607" 
d="M248 -3c-121 0 -220 88 -220 254c0 156 125 242 232 243c89 0 136 -60 144 -73c0 8 -1 51 1 58c3 11 131 13 151 3c2 -1 -4 -472 -7 -483c-3 -3 -112 -13 -148 1c0 7 -2 48 -3 55c-8 -12 -66 -58 -150 -58zM200 245c0 -68 43 -104 98 -104c67 0 99 45 99 105
c0 66 -45 104 -99 104c-63 0 -98 -43 -98 -105zM316 532c-64 0 -107 32 -107 100s48 96 107 96c55 0 99 -36 99 -97c0 -50 -30 -99 -99 -99zM314 593c21 0 37 12 37 36c0 18 -12 38 -37 38c-31 0 -42 -19 -42 -38c0 -23 23 -36 42 -36z" />
    <glyph glyph-name="aogonek.alt" horiz-adv-x="607" 
d="M341 -119c0 54 38 92 76 115l-16 4c0 7 -2 48 -3 55c-8 -12 -66 -58 -150 -58c-121 0 -220 88 -220 254c0 156 125 242 232 243c89 0 136 -60 144 -73c0 8 -1 51 1 58c3 11 131 13 151 3c2 -1 -4 -472 -7 -483c-45 -22 -100 -53 -100 -85c0 -18 10 -30 29 -30
c24 0 50 20 50 20c5 1 51 -59 44 -67c-22 -25 -72 -61 -128 -61c-58 0 -103 44 -103 105zM200 245c0 -68 43 -104 98 -104c67 0 99 45 99 105c0 66 -45 104 -99 104c-63 0 -98 -43 -98 -105z" />
    <glyph glyph-name="uni0394" unicode="&#x394;" horiz-adv-x="670" 
d="M19 5c-1 2 269 698 271 698s99 2 99 2c1 -11 273 -679 259 -705c-7 -15 -630 -19 -629 5zM209 122c9 -2 242 -2 242 3s-112 323 -117 340c2 0 -128 -338 -125 -343z" />
    <glyph glyph-name="uni03A9" unicode="&#x3a9;" horiz-adv-x="747" 
d="M338 -1l-265 -2c-17 15 -15 136 -15 136l99 7s-119 87 -119 246c0 215 162 325 335 325c230 0 338 -136 338 -311c0 -162 -132 -263 -132 -263l101 2s6 -133 2 -139c-4 -8 -270 1 -274 2c-4 2 -4 121 -1 122c66 38 136 132 136 234c0 127 -58 194 -168 194
c-100 0 -163 -62 -163 -195c0 -115 61 -199 129 -233z" />
    <glyph glyph-name="uni03BC" unicode="&#x3bc;" horiz-adv-x="593" 
d="M530 2c-10 -13 -140 -9 -149 0c1 21 -1 50 0 57c-16 -24 -58 -73 -130 -73c-17 0 -31 3 -39 9c-3 -81 -6 -151 -7 -208c0 0 -144 -5 -144 4c-6 77 -7 285 -7 408c0 72 10 243 14 290c1 10 151 8 154 5c2 -11 -7 -239 -7 -278c0 -56 23 -90 76 -90c54 0 84 42 84 86
c0 29 5 272 8 275c3 4 148 2 152 -4c1 -4 -2 -268 -5 -481z" />
    </font>
</defs>
</svg>
